<svg xmlns="http://www.w3.org/2000/svg" xmlns:xlink="http://www.w3.org/1999/xlink" width="500" zoomAndPan="magnify" viewBox="0 0 375 374.999991" height="500" preserveAspectRatio="xMidYMid meet" version="1.2"><defs><clipPath id="1d7034b43d"><path d="M 22.734375 1 L 351.984375 1 L 351.984375 375 L 22.734375 375 Z M 22.734375 1 "/></clipPath></defs><g id="4f1acd067d"><g clip-rule="nonzero" clip-path="url(#1d7034b43d)"><path style=" stroke:none;fill-rule:evenodd;fill:#000000;fill-opacity:1;" d="M 29.234375 48.828125 C 25.464844 27.984375 26.042969 15.148438 33.382812 8.355469 C 33.410156 8.332031 33.429688 8.308594 33.453125 8.28125 C 38.414062 2.308594 46.511719 -0.0390625 53.898438 2.355469 C 70.007812 7.578125 71.613281 29.773438 56.667969 37.355469 C 56.363281 37.507812 56.195312 37.816406 56.226562 38.15625 L 56.65625 42.632812 C 56.695312 43.023438 56.457031 43.378906 56.078125 43.488281 C 46.660156 46.246094 39.636719 46.746094 30.253906 49.464844 C 30.027344 49.53125 29.804688 49.5 29.601562 49.375 C 29.402344 49.25 29.277344 49.0625 29.234375 48.828125 Z M 342.617188 49.894531 C 346.386719 29.050781 345.808594 16.214844 338.46875 9.421875 C 338.441406 9.394531 338.421875 9.371094 338.398438 9.34375 C 333.433594 3.375 325.339844 1.027344 317.953125 3.417969 C 301.84375 8.644531 300.238281 30.839844 315.183594 38.417969 C 315.488281 38.574219 315.65625 38.882812 315.625 39.21875 L 315.191406 43.695312 C 315.15625 44.085938 315.394531 44.441406 315.769531 44.550781 C 325.1875 47.308594 332.214844 47.808594 341.59375 50.527344 C 341.824219 50.59375 342.046875 50.566406 342.246094 50.441406 C 342.449219 50.3125 342.574219 50.128906 342.617188 49.894531 Z M 23.164062 373.398438 L 176.554688 250.957031 C 176.855469 250.71875 177.261719 250.71875 177.5625 250.953125 L 216.914062 281.902344 C 217.230469 282.148438 217.675781 282.128906 217.96875 281.851562 L 299.550781 204.808594 C 299.875 204.503906 299.890625 203.988281 299.585938 203.664062 L 289.300781 192.679688 C 289.097656 192.464844 289.03125 192.175781 289.117188 191.890625 C 289.203125 191.605469 289.417969 191.40625 289.707031 191.335938 L 350.953125 177.023438 C 351.242188 176.957031 351.523438 177.039062 351.730469 177.257812 C 351.929688 177.476562 352 177.761719 351.914062 178.046875 L 333.675781 238.289062 C 333.589844 238.574219 333.375 238.777344 333.085938 238.84375 C 332.792969 238.910156 332.511719 238.824219 332.308594 238.609375 L 322.304688 227.925781 C 322.003906 227.605469 321.496094 227.585938 321.167969 227.882812 L 216.625 323.402344 C 216.328125 323.671875 215.890625 323.6875 215.578125 323.441406 L 177.621094 293.59375 C 177.363281 293.390625 177.03125 293.359375 176.742188 293.515625 L 24.050781 374.75 C 23.679688 374.945312 23.222656 374.828125 22.992188 374.480469 C 22.761719 374.125 22.835938 373.660156 23.164062 373.398438 Z M 214.730469 264.472656 C 214.769531 264.667969 214.867188 264.816406 215.019531 264.941406 L 216.191406 265.859375 C 216.507812 266.109375 216.953125 266.089844 217.246094 265.8125 L 256.167969 229.050781 C 256.339844 228.894531 256.425781 228.695312 256.421875 228.460938 C 256.394531 215.664062 256.929688 202.75 258.03125 189.71875 C 258.03125 189.71875 275.171875 173.878906 309.457031 142.207031 C 311.25 140.546875 312.496094 138.8125 313.484375 136.582031 C 317.132812 128.371094 327.734375 104.492188 345.296875 64.945312 C 345.296875 64.945312 331.445312 60.785156 303.742188 52.46875 C 303.742188 52.46875 293.535156 70.34375 273.121094 106.097656 C 271.335938 109.226562 268.976562 111.433594 265.742188 113.007812 C 257.421875 117.046875 238.195312 126.386719 208.066406 141.027344 C 207.800781 141.152344 207.636719 141.394531 207.609375 141.6875 C 203.976562 184.40625 206.351562 225.335938 214.730469 264.472656 Z M 158.53125 249.523438 C 164.519531 214.945312 165.929688 179 162.753906 141.683594 C 162.730469 141.390625 162.566406 141.152344 162.300781 141.023438 C 132.167969 126.386719 112.941406 117.046875 104.625 113.003906 C 101.390625 111.433594 99.027344 109.222656 97.246094 106.097656 C 76.832031 70.34375 66.625 52.46875 66.625 52.46875 C 38.921875 60.785156 25.066406 64.945312 25.066406 64.945312 C 42.628906 104.488281 53.234375 128.367188 56.878906 136.578125 C 57.871094 138.8125 59.113281 140.546875 60.90625 142.203125 C 95.191406 173.878906 112.335938 189.714844 112.335938 189.714844 C 115.132812 222.882812 114.277344 255.28125 109.769531 286.917969 C 109.722656 287.253906 109.875 287.566406 110.167969 287.734375 C 110.460938 287.90625 110.8125 287.878906 111.074219 287.664062 L 158.234375 250.019531 C 158.398438 249.890625 158.496094 249.726562 158.53125 249.523438 Z M 185.765625 64.035156 C 205.664062 64.035156 221.796875 80.179688 221.796875 100.09375 C 221.796875 120.011719 205.664062 136.15625 185.765625 136.15625 C 165.867188 136.15625 149.734375 120.011719 149.734375 100.09375 C 149.734375 80.179688 165.867188 64.035156 185.765625 64.035156 Z M 185.765625 64.035156 "/></g></g></svg>