<svg xmlns="http://www.w3.org/2000/svg" xmlns:xlink="http://www.w3.org/1999/xlink" width="500" zoomAndPan="magnify" viewBox="0 0 375 374.999991" height="500" preserveAspectRatio="xMidYMid meet" version="1.2"><defs><clipPath id="031d806c1d"><path d="M 1 6.328125 L 368 6.328125 L 368 368.578125 L 1 368.578125 Z M 1 6.328125 "/></clipPath></defs><g id="48c7933b5e"><g clip-rule="nonzero" clip-path="url(#031d806c1d)"><path style=" stroke:none;fill-rule:nonzero;fill:#000000;fill-opacity:1;" d="M 345.867188 347.03125 L 292.476562 347.03125 C 289.4375 347.03125 286.964844 344.574219 286.964844 341.523438 C 286.964844 338.492188 289.445312 336.011719 292.476562 336.011719 L 345.867188 336.011719 C 346.472656 332.332031 347.71875 328.804688 349.457031 325.640625 L 272.679688 325.640625 C 258.730469 325.640625 251.347656 342.664062 261.453125 352.742188 C 264.335938 355.648438 268.300781 357.425781 272.679688 357.425781 L 349.457031 357.425781 C 347.71875 354.261719 346.464844 350.738281 345.867188 347.03125 Z M 361.617188 368.453125 L 272.679688 368.453125 C 250.8125 368.453125 237.894531 343.402344 250.992188 325.617188 C 245.882812 325.375 243.5 318.566406 248.511719 315.332031 C 258.597656 308.550781 259.644531 289.542969 248.199219 281.871094 C 243.6875 278.839844 245.875 271.8125 251.25 271.8125 L 251.25 271.789062 L 340.191406 271.789062 C 362.082031 271.789062 374.976562 296.839844 361.878906 314.625 C 366.988281 314.867188 369.371094 321.699219 364.359375 324.910156 C 354.273438 331.691406 353.242188 350.722656 364.671875 358.371094 C 369.183594 361.410156 366.996094 368.429688 361.617188 368.429688 Z M 267.035156 293.203125 L 320.402344 293.203125 C 323.441406 293.203125 325.914062 295.683594 325.914062 298.710938 C 325.914062 301.75 323.433594 304.222656 320.402344 304.222656 L 267.035156 304.222656 C 266.414062 307.925781 265.183594 311.445312 263.421875 314.617188 C 289.011719 314.617188 314.609375 314.617188 340.199219 314.617188 C 354.148438 314.617188 361.53125 297.59375 351.449219 287.488281 C 348.542969 284.585938 344.578125 282.808594 340.199219 282.808594 L 263.421875 282.808594 C 265.183594 285.980469 266.414062 289.503906 267.035156 293.203125 Z M 295.726562 165.789062 L 295.726562 110.914062 C 295.726562 108.773438 296.953125 106.925781 298.742188 106.003906 L 316.859375 95.253906 C 319.472656 93.695312 322.84375 94.5625 324.402344 97.175781 C 325.945312 99.800781 325.070312 103.179688 322.457031 104.714844 L 306.753906 114.03125 L 306.753906 165.78125 L 320.566406 165.78125 C 325.589844 153.511719 331.949219 142.582031 337.925781 132.257812 C 347.472656 115.816406 356.109375 100.9375 356.109375 85.746094 C 356.109375 48.027344 325.542969 17.464844 287.832031 17.464844 C 250.101562 17.464844 219.527344 48.046875 219.527344 85.746094 C 219.527344 100.9375 228.164062 115.816406 237.710938 132.257812 C 243.71875 142.582031 250.054688 153.511719 255.070312 165.78125 L 269.394531 165.78125 L 269.394531 114.03125 L 253.683594 104.707031 C 251.070312 103.164062 250.203125 99.792969 251.738281 97.167969 C 253.28125 94.554688 256.652344 93.6875 259.28125 95.246094 L 277.402344 105.996094 C 279.1875 106.910156 280.414062 108.757812 280.414062 110.90625 L 280.414062 165.78125 L 295.726562 165.78125 Z M 287.832031 6.445312 C 331.628906 6.445312 367.128906 41.960938 367.128906 85.746094 C 367.128906 103.863281 357.777344 119.964844 347.449219 137.765625 C 341.851562 147.40625 335.933594 157.597656 331.273438 168.660156 C 335.421875 171.582031 338.058594 176.355469 338.058594 181.667969 L 338.058594 186.21875 C 338.058594 194.960938 330.917969 202.097656 322.175781 202.097656 L 320.566406 202.097656 L 317.152344 215.460938 C 311.304688 238.367188 264.78125 240.109375 258.492188 215.460938 L 255.078125 202.097656 L 253.472656 202.097656 C 244.726562 202.097656 237.585938 194.960938 237.585938 186.21875 L 237.585938 181.667969 C 237.585938 176.355469 240.214844 171.589844 244.371094 168.660156 C 239.710938 157.597656 233.792969 147.40625 228.195312 137.765625 C 217.867188 119.964844 208.515625 103.839844 208.515625 85.746094 C 208.507812 41.960938 244.027344 6.445312 287.832031 6.445312 Z M 322.820312 176.851562 L 252.824219 176.851562 C 250.730469 176.988281 248.605469 179.152344 248.605469 181.667969 L 248.605469 186.21875 C 248.605469 188.894531 250.820312 191.105469 253.472656 191.105469 L 322.175781 191.105469 C 324.851562 191.105469 327.039062 188.894531 327.039062 186.21875 L 327.039062 181.667969 C 327.03125 179.238281 325.203125 177.167969 322.820312 176.851562 Z M 306.484375 212.746094 L 309.1875 202.128906 L 266.453125 202.128906 L 269.152344 212.746094 C 272.613281 226.242188 303.449219 224.652344 306.484375 212.746094 Z M 163.167969 310.1875 C 179.320312 310.1875 195.480469 310.1875 211.632812 310.1875 C 219.441406 310.1875 224.355469 304.09375 223.191406 296.445312 L 217.945312 262.378906 C 215.851562 248.726562 208.933594 236.300781 199.472656 227.3125 C 190.144531 218.433594 178.433594 212.925781 166.515625 212.925781 L 151.605469 212.925781 C 149.730469 229.816406 135.34375 242.863281 118.136719 242.863281 C 100.953125 242.863281 86.5625 229.816406 84.691406 212.925781 L 69.742188 212.925781 C 57.847656 212.925781 46.113281 218.433594 36.785156 227.3125 C 27.320312 236.300781 20.402344 248.726562 18.308594 262.378906 L 13.089844 296.445312 C 11.910156 304.09375 16.8125 310.1875 24.628906 310.1875 L 73.605469 310.1875 L 73.605469 284.886719 C 64.011719 284.886719 54.441406 284.886719 44.84375 284.886719 C 41.292969 284.886719 38.640625 281.515625 39.515625 278.039062 L 45.960938 252.472656 C 46.703125 249.527344 49.683594 247.742188 52.636719 248.480469 C 55.582031 249.222656 57.390625 252.1875 56.652344 255.15625 L 51.921875 273.867188 L 65.308594 273.867188 L 65.308594 246.230469 C 65.308594 242.726562 68.546875 239.941406 72.425781 240.964844 L 118.136719 251.511719 L 163.855469 240.957031 C 167.710938 239.933594 170.96875 242.71875 170.96875 246.222656 L 170.96875 273.859375 L 184.15625 273.859375 L 180.164062 257.066406 C 179.449219 254.101562 181.28125 251.132812 184.25 250.441406 C 187.214844 249.722656 190.183594 251.558594 190.875 254.523438 L 196.496094 278.101562 C 197.324219 281.582031 194.6875 284.886719 191.144531 284.886719 L 163.160156 284.886719 L 163.160156 310.1875 Z M 180.1875 321.203125 L 170.96875 321.203125 L 170.96875 328.5625 L 170.945312 328.5625 C 170.945312 331.054688 169.230469 333.339844 166.6875 333.914062 L 119.742188 344.734375 C 118.355469 345.070312 117.890625 345.070312 116.53125 344.734375 L 69.585938 333.914062 C 67.019531 333.328125 65.300781 331.054688 65.300781 328.5625 L 65.300781 321.203125 L 56.085938 321.203125 L 56.085938 357.425781 L 180.1875 357.425781 Z M 159.949219 321.203125 L 140.625 321.203125 C 133.886719 321.203125 127.792969 318.210938 123.644531 313.445312 L 123.644531 332.558594 L 159.949219 324.195312 Z M 79.117188 321.203125 L 76.308594 321.203125 L 76.308594 324.195312 L 112.632812 332.558594 L 112.632812 313.996094 C 108.507812 318.433594 102.613281 321.203125 96.144531 321.203125 C 90.453125 321.203125 84.785156 321.203125 79.117188 321.203125 Z M 152.140625 284.886719 L 140.625 284.886719 C 134.3125 284.886719 129.109375 290.078125 129.109375 296.398438 C 129.109375 300.460938 129.195312 303.511719 132.5 306.792969 C 134.578125 308.886719 137.453125 310.1875 140.625 310.1875 L 152.140625 310.1875 Z M 140.632812 273.867188 L 159.957031 273.867188 L 159.957031 253.148438 L 123.652344 261.535156 L 123.652344 281.636719 C 127.800781 276.859375 133.894531 273.867188 140.632812 273.867188 Z M 79.117188 273.867188 L 96.144531 273.867188 C 102.613281 273.867188 108.5 276.628906 112.632812 281.078125 L 112.632812 261.535156 L 76.308594 253.148438 L 76.308594 273.867188 Z M 96.136719 284.886719 L 84.617188 284.886719 L 84.617188 310.1875 L 96.136719 310.1875 C 102.449219 310.1875 107.652344 305.007812 107.652344 298.671875 C 107.652344 294.613281 107.539062 291.558594 104.257812 288.277344 C 102.164062 286.175781 99.285156 284.886719 96.136719 284.886719 Z M 163.570312 128.289062 C 173.054688 117.964844 174.078125 101.785156 171.316406 85.730469 C 169.394531 74.667969 147.664062 85.148438 133.871094 83.882812 C 114.65625 82.121094 112.222656 72.210938 93.710938 83.90625 C 92.394531 84.734375 90.851562 84.929688 89.46875 84.597656 C 72.109375 80.292969 62.871094 90.484375 63.671875 106.972656 C 64.027344 113.867188 66.214844 121.585938 70.433594 129.34375 C 76.746094 120.066406 85.894531 113.0625 98.480469 112.210938 C 100.109375 112.101562 101.628906 112.699219 102.699219 113.753906 C 113.097656 123.347656 125.953125 127.363281 137.507812 128.769531 C 147.589844 129.980469 156.980469 129.273438 163.570312 128.289062 Z M 182.242188 114.503906 C 180.414062 122.953125 177 129.40625 172.9375 134.246094 C 180.683594 133.175781 186.484375 139.15625 186.097656 147.230469 L 185.539062 159.453125 C 185.1875 166.945312 179.652344 174.664062 172.527344 176.921875 L 163.824219 179.671875 C 163.152344 179.890625 162.460938 179.960938 161.792969 179.914062 C 159.117188 184.460938 155.722656 188.523438 151.792969 192 L 151.792969 201.910156 L 166.5 201.910156 C 197.355469 201.910156 224.085938 229.902344 228.816406 260.757812 L 234.058594 294.824219 C 236.25 309.148438 226.046875 321.210938 211.609375 321.210938 L 191.191406 321.210938 L 191.191406 362.949219 C 191.191406 365.988281 188.710938 368.460938 185.683594 368.460938 L 50.574219 368.460938 C 47.519531 368.460938 45.066406 365.980469 45.066406 362.949219 L 45.066406 321.210938 L 24.621094 321.210938 C 10.1875 321.210938 -0.0078125 309.140625 2.195312 294.824219 L 7.414062 260.757812 C 12.144531 229.910156 38.902344 201.910156 69.734375 201.910156 L 84.484375 201.910156 L 84.484375 192 C 80.558594 188.523438 77.164062 184.460938 74.488281 179.914062 C 73.820312 179.960938 73.101562 179.890625 72.410156 179.671875 L 63.703125 176.921875 C 56.613281 174.671875 51.078125 166.953125 50.714844 159.453125 L 50.132812 147.230469 C 49.820312 140.472656 53.878906 134.742188 60.507812 134.183594 C 52.722656 119.546875 49.355469 101.101562 56.714844 87.226562 C 59.886719 81.246094 64.8125 76.722656 71.371094 74.351562 C 76.613281 72.480469 82.777344 72.03125 89.78125 73.417969 C 105.023438 64.3125 112.230469 66.703125 121.710938 69.867188 C 125.394531 71.09375 129.519531 72.457031 134.832031 72.945312 C 138.554688 73.296875 143.734375 72.339844 148.929688 71.363281 C 163.839844 68.59375 179.007812 65.78125 182.132812 83.875 C 184.296875 96.253906 184.003906 106.34375 182.242188 114.503906 Z M 157.613281 140.023438 C 137.554688 141.675781 114.484375 138.332031 97.03125 123.425781 C 91.851562 124.253906 87.726562 126.636719 84.445312 129.699219 C 82.171875 131.816406 80.273438 134.246094 78.691406 136.773438 C 78.691406 136.796875 78.582031 154.015625 78.800781 157.628906 C 79.960938 177.253906 96.984375 193.433594 117.246094 193.433594 L 119.058594 193.433594 C 129.519531 193.433594 139.207031 189.175781 146.277344 182.101562 C 152.457031 175.925781 156.566406 167.691406 157.429688 158.5625 C 157.785156 153.425781 157.613281 145.375 157.613281 140.023438 Z M 168.632812 154.386719 L 168.050781 166.789062 C 170.007812 166.167969 171.152344 165.78125 172.734375 163.617188 C 173.78125 162.167969 174.472656 160.492188 174.558594 158.933594 L 175.117188 146.710938 L 174.851562 145.132812 C 174.109375 145.105469 170.007812 146.539062 168.976562 146.847656 Z M 140.78125 199.382812 C 127.015625 206.167969 109.273438 206.167969 95.511719 199.382812 L 95.511719 209.21875 C 95.511719 229.074219 119.765625 239.558594 134.140625 225.195312 C 138.246094 221.085938 140.789062 215.445312 140.789062 209.21875 L 140.789062 199.382812 Z M 67.867188 159.273438 C 67.757812 157.910156 67.6875 156.550781 67.664062 155.164062 L 67.285156 146.847656 C 66.261719 146.53125 62.105469 145.105469 61.398438 145.132812 L 61.128906 146.710938 L 61.710938 158.933594 C 61.847656 161.855469 64.328125 165.558594 67.042969 166.410156 L 68.222656 166.789062 Z M 67.867188 159.273438 "/></g></g></svg>