<svg xmlns="http://www.w3.org/2000/svg" xmlns:xlink="http://www.w3.org/1999/xlink" width="500" zoomAndPan="magnify" viewBox="0 0 375 374.999991" height="500" preserveAspectRatio="xMidYMid meet" version="1.2"><defs><clipPath id="596aa19065"><path d="M 72.300781 0 L 302.550781 0 L 302.550781 366 L 72.300781 366 Z M 72.300781 0 "/></clipPath></defs><g id="e46fe85e6e"><g clip-rule="nonzero" clip-path="url(#596aa19065)"><path style=" stroke:none;fill-rule:nonzero;fill:#000000;fill-opacity:1;" d="M 295.714844 94.890625 L 126.636719 94.890625 C 127.597656 59.476562 135.867188 37.089844 142.480469 29.769531 C 145.886719 36.214844 152.578125 40.667969 160.355469 40.667969 C 171.550781 40.667969 180.660156 31.542969 180.660156 20.332031 C 180.660156 9.121094 171.550781 0 160.355469 0 C 151.089844 0 143.339844 6.28125 140.910156 14.796875 C 123.613281 21.527344 114.117188 57.503906 113.09375 94.890625 L 79.140625 94.890625 C 75.402344 94.890625 72.371094 97.925781 72.371094 101.667969 C 72.371094 105.40625 75.402344 108.445312 79.140625 108.445312 L 99.789062 108.445312 L 112.984375 359.582031 C 113.175781 363.179688 116.148438 366 119.746094 366 L 255.109375 366 C 258.707031 366 261.679688 363.179688 261.867188 359.582031 L 275.066406 108.445312 L 295.714844 108.445312 C 299.457031 108.445312 302.484375 105.40625 302.484375 101.667969 C 302.484375 97.925781 299.457031 94.890625 295.714844 94.890625 Z M 214.5 176.222656 L 160.355469 176.222656 C 156.621094 176.222656 153.585938 173.1875 153.585938 169.445312 C 153.585938 165.703125 156.621094 162.667969 160.355469 162.667969 L 214.5 162.667969 C 218.242188 162.667969 221.265625 165.703125 221.265625 169.445312 C 221.265625 173.1875 218.242188 176.222656 214.5 176.222656 Z M 214.5 176.222656 "/></g></g></svg>