<svg xmlns="http://www.w3.org/2000/svg" xmlns:xlink="http://www.w3.org/1999/xlink" width="500" zoomAndPan="magnify" viewBox="0 0 375 374.999991" height="500" preserveAspectRatio="xMidYMid meet" version="1.2"><g id="472d0312f5"><path style=" stroke:none;fill-rule:nonzero;fill:#000000;fill-opacity:1;" d="M 81.777344 249.449219 C 68.890625 249.449219 58.410156 238.964844 58.410156 226.082031 C 58.410156 213.203125 68.890625 202.71875 81.777344 202.71875 C 94.660156 202.71875 105.140625 213.203125 105.140625 226.082031 C 105.140625 238.964844 94.660156 249.449219 81.777344 249.449219 Z M 81.777344 226.082031 Z M 81.777344 226.082031 Z M 81.777344 226.082031 Z M 81.777344 226.082031 Z M 81.777344 226.070312 Z M 81.777344 226.070312 Z M 81.777344 226.070312 Z M 81.777344 226.070312 Z M 81.777344 226.070312 "/><path style=" stroke:none;fill-rule:nonzero;fill:#000000;fill-opacity:1;" d="M 151.871094 249.449219 C 138.984375 249.449219 128.503906 238.964844 128.503906 226.082031 C 128.503906 213.203125 138.984375 202.71875 151.871094 202.71875 C 164.753906 202.71875 175.234375 213.203125 175.234375 226.082031 C 175.234375 238.964844 164.753906 249.449219 151.871094 249.449219 Z M 151.871094 226.082031 Z M 151.871094 226.082031 Z M 151.871094 226.082031 Z M 151.871094 226.082031 Z M 151.871094 226.070312 Z M 151.871094 226.070312 Z M 151.871094 226.070312 Z M 151.871094 226.070312 Z M 151.871094 226.070312 "/><path style=" stroke:none;fill-rule:nonzero;fill:#000000;fill-opacity:1;" d="M 221.960938 249.449219 C 209.082031 249.449219 198.597656 238.964844 198.597656 226.082031 C 198.597656 213.203125 209.082031 202.71875 221.960938 202.71875 C 234.84375 202.71875 245.328125 213.203125 245.328125 226.082031 C 245.328125 238.964844 234.84375 249.449219 221.960938 249.449219 Z M 221.960938 226.070312 Z M 221.960938 226.070312 "/><path style=" stroke:none;fill-rule:nonzero;fill:#000000;fill-opacity:1;" d="M 11.683594 374.414062 C 8.613281 374.414062 5.628906 373.207031 3.421875 370.992188 C 0.707031 368.277344 -0.496094 364.410156 0.1875 360.632812 L 14.050781 284.632812 C 5.152344 264.894531 0.644531 243.914062 0.644531 222.226562 C 0.644531 138.660156 68.628906 70.675781 152.1875 70.675781 C 235.753906 70.675781 303.738281 138.660156 303.738281 222.226562 C 303.738281 305.792969 235.753906 373.777344 152.1875 373.777344 C 130.496094 373.777344 109.519531 369.257812 89.785156 360.359375 L 13.78125 374.222656 C 13.078125 374.359375 12.378906 374.414062 11.683594 374.414062 Z M 91.347656 336.515625 C 93.09375 336.515625 94.828125 336.90625 96.414062 337.667969 C 113.976562 346.121094 132.742188 350.414062 152.1875 350.414062 C 222.875 350.414062 280.375 292.914062 280.375 222.226562 C 280.375 151.539062 222.875 94.042969 152.1875 94.042969 C 81.507812 94.042969 24.007812 151.539062 24.007812 222.226562 C 24.007812 241.667969 28.292969 260.433594 36.742188 278.003906 C 37.808594 280.226562 38.144531 282.738281 37.703125 285.167969 L 26.203125 348.210938 L 89.246094 336.710938 C 89.945312 336.585938 90.644531 336.515625 91.347656 336.515625 Z M 91.347656 336.515625 "/><path style=" stroke:none;fill-rule:nonzero;fill:#000000;fill-opacity:1;" d="M 362.148438 280.957031 C 361.453125 280.957031 360.746094 280.902344 360.050781 280.765625 L 320.453125 273.519531 C 314.097656 272.367188 309.898438 266.273438 311.0625 259.933594 C 312.226562 253.589844 318.339844 249.34375 324.648438 250.542969 L 347.625 254.742188 L 337.347656 198.359375 C 336.902344 195.917969 337.234375 193.410156 338.316406 191.183594 C 345.996094 175.257812 349.886719 158.179688 349.886719 140.417969 C 349.886719 76.199219 297.578125 23.949219 233.292969 23.949219 C 203.425781 23.949219 175.050781 35.335938 153.390625 55.996094 C 151.21875 58.070312 148.332031 59.222656 145.328125 59.222656 C 138.875 59.222656 133.585938 54 133.585938 47.542969 C 133.585938 43.753906 135.367188 40.386719 138.140625 38.253906 C 164.046875 13.953125 197.792969 0.585938 233.292969 0.585938 C 310.46875 0.585938 373.25 63.308594 373.25 140.417969 C 373.25 160.417969 369.132812 179.71875 360.996094 197.824219 L 373.636719 267.175781 C 374.332031 270.953125 373.125 274.832031 370.410156 277.535156 C 368.195312 279.75 365.21875 280.957031 362.148438 280.957031 Z M 362.148438 280.957031 "/></g></svg>