<svg xmlns="http://www.w3.org/2000/svg" xmlns:xlink="http://www.w3.org/1999/xlink" width="500" zoomAndPan="magnify" viewBox="0 0 375 374.999991" height="500" preserveAspectRatio="xMidYMid meet" version="1.2"><g id="e706c53647"><path style=" stroke:none;fill-rule:nonzero;fill:#000000;fill-opacity:1;" d="M 187.5 0 C 184.429688 0 181.363281 0.0742188 178.300781 0.226562 C 175.234375 0.375 172.175781 0.601562 169.121094 0.902344 C 166.066406 1.203125 163.023438 1.578125 159.988281 2.03125 C 156.953125 2.480469 153.929688 3.003906 150.921875 3.601562 C 147.910156 4.203125 144.917969 4.875 141.941406 5.617188 C 138.964844 6.363281 136.007812 7.183594 133.070312 8.074219 C 130.136719 8.964844 127.222656 9.925781 124.332031 10.960938 C 121.445312 11.996094 118.582031 13.097656 115.746094 14.273438 C 112.910156 15.445312 110.105469 16.691406 107.332031 18.003906 C 104.558594 19.3125 101.820312 20.691406 99.113281 22.140625 C 96.40625 23.585938 93.738281 25.097656 91.105469 26.675781 C 88.472656 28.253906 85.882812 29.894531 83.332031 31.597656 C 80.777344 33.304688 78.269531 35.070312 75.804688 36.898438 C 73.339844 38.726562 70.921875 40.613281 68.550781 42.558594 C 66.179688 44.507812 63.855469 46.511719 61.582031 48.570312 C 59.308594 50.632812 57.085938 52.746094 54.917969 54.917969 C 52.746094 57.085938 50.632812 59.308594 48.570312 61.582031 C 46.511719 63.855469 44.507812 66.179688 42.558594 68.550781 C 40.613281 70.921875 38.726562 73.339844 36.898438 75.804688 C 35.070312 78.269531 33.304688 80.777344 31.597656 83.332031 C 29.894531 85.882812 28.253906 88.472656 26.675781 91.105469 C 25.097656 93.738281 23.585938 96.40625 22.140625 99.113281 C 20.691406 101.820312 19.3125 104.558594 18.003906 107.332031 C 16.691406 110.105469 15.445312 112.910156 14.273438 115.746094 C 13.097656 118.582031 11.996094 121.445312 10.960938 124.332031 C 9.925781 127.222656 8.964844 130.136719 8.074219 133.070312 C 7.183594 136.007812 6.363281 138.964844 5.617188 141.941406 C 4.875 144.917969 4.203125 147.910156 3.601562 150.921875 C 3.003906 153.929688 2.480469 156.953125 2.03125 159.988281 C 1.578125 163.023438 1.203125 166.066406 0.902344 169.121094 C 0.601562 172.175781 0.375 175.234375 0.226562 178.300781 C 0.0742188 181.363281 0 184.429688 0 187.5 C 0 190.570312 0.0742188 193.636719 0.226562 196.699219 C 0.375 199.765625 0.601562 202.824219 0.902344 205.878906 C 1.203125 208.933594 1.578125 211.976562 2.03125 215.011719 C 2.480469 218.046875 3.003906 221.070312 3.601562 224.078125 C 4.203125 227.089844 4.875 230.082031 5.617188 233.058594 C 6.363281 236.035156 7.183594 238.992188 8.074219 241.929688 C 8.964844 244.863281 9.925781 247.777344 10.960938 250.667969 C 11.996094 253.554688 13.097656 256.417969 14.273438 259.253906 C 15.445312 262.089844 16.691406 264.894531 18.003906 267.667969 C 19.3125 270.441406 20.691406 273.179688 22.140625 275.886719 C 23.585938 278.59375 25.097656 281.261719 26.675781 283.894531 C 28.253906 286.527344 29.894531 289.117188 31.597656 291.667969 C 33.304688 294.222656 35.070312 296.730469 36.898438 299.195312 C 38.726562 301.660156 40.613281 304.078125 42.558594 306.449219 C 44.507812 308.820312 46.511719 311.144531 48.570312 313.417969 C 50.632812 315.691406 52.746094 317.914062 54.917969 320.082031 C 57.085938 322.253906 59.308594 324.367188 61.582031 326.429688 C 63.855469 328.488281 66.179688 330.492188 68.550781 332.441406 C 70.921875 334.386719 73.339844 336.273438 75.804688 338.101562 C 78.269531 339.929688 80.777344 341.695312 83.332031 343.402344 C 85.882812 345.105469 88.472656 346.746094 91.105469 348.324219 C 93.738281 349.902344 96.40625 351.414062 99.113281 352.859375 C 101.820312 354.308594 104.558594 355.6875 107.332031 356.996094 C 110.105469 358.308594 112.910156 359.554688 115.746094 360.726562 C 118.582031 361.902344 121.445312 363.003906 124.332031 364.039062 C 127.222656 365.074219 130.136719 366.035156 133.070312 366.925781 C 136.007812 367.816406 138.964844 368.636719 141.941406 369.378906 C 144.917969 370.125 147.910156 370.796875 150.921875 371.398438 C 153.929688 371.996094 156.953125 372.519531 159.988281 372.96875 C 163.023438 373.421875 166.066406 373.796875 169.121094 374.097656 C 172.175781 374.398438 175.234375 374.625 178.300781 374.773438 C 181.363281 374.925781 184.429688 375 187.5 375 C 190.570312 375 193.636719 374.925781 196.699219 374.773438 C 199.765625 374.625 202.824219 374.398438 205.878906 374.097656 C 208.933594 373.796875 211.976562 373.421875 215.011719 372.96875 C 218.046875 372.519531 221.070312 371.996094 224.078125 371.398438 C 227.089844 370.796875 230.082031 370.125 233.058594 369.378906 C 236.035156 368.636719 238.992188 367.816406 241.929688 366.925781 C 244.863281 366.035156 247.777344 365.074219 250.667969 364.039062 C 253.554688 363.003906 256.417969 361.902344 259.253906 360.726562 C 262.089844 359.554688 264.894531 358.308594 267.667969 356.996094 C 270.441406 355.6875 273.179688 354.308594 275.886719 352.859375 C 278.59375 351.414062 281.261719 349.902344 283.894531 348.324219 C 286.527344 346.746094 289.117188 345.105469 291.667969 343.402344 C 294.222656 341.695312 296.730469 339.929688 299.195312 338.101562 C 301.660156 336.273438 304.078125 334.386719 306.449219 332.441406 C 308.820312 330.492188 311.144531 328.488281 313.417969 326.429688 C 315.691406 324.367188 317.914062 322.253906 320.082031 320.082031 C 322.253906 317.914062 324.367188 315.691406 326.429688 313.417969 C 328.488281 311.144531 330.492188 308.820312 332.441406 306.449219 C 334.386719 304.078125 336.273438 301.660156 338.101562 299.195312 C 339.929688 296.730469 341.695312 294.222656 343.402344 291.667969 C 345.105469 289.117188 346.746094 286.527344 348.324219 283.894531 C 349.902344 281.261719 351.414062 278.59375 352.859375 275.886719 C 354.308594 273.179688 355.6875 270.441406 356.996094 267.667969 C 358.308594 264.894531 359.554688 262.089844 360.726562 259.253906 C 361.902344 256.417969 363.003906 253.554688 364.039062 250.667969 C 365.074219 247.777344 366.035156 244.863281 366.925781 241.929688 C 367.816406 238.992188 368.636719 236.035156 369.378906 233.058594 C 370.125 230.082031 370.796875 227.089844 371.398438 224.078125 C 371.996094 221.070312 372.519531 218.046875 372.96875 215.011719 C 373.421875 211.976562 373.796875 208.933594 374.097656 205.878906 C 374.398438 202.824219 374.625 199.765625 374.773438 196.699219 C 374.925781 193.636719 375 190.570312 375 187.5 C 374.996094 184.433594 374.917969 181.367188 374.765625 178.304688 C 374.609375 175.238281 374.382812 172.179688 374.078125 169.128906 C 373.773438 166.074219 373.394531 163.03125 372.941406 160 C 372.488281 156.964844 371.964844 153.945312 371.363281 150.933594 C 370.761719 147.925781 370.085938 144.933594 369.339844 141.960938 C 368.589844 138.984375 367.769531 136.03125 366.878906 133.09375 C 365.984375 130.160156 365.023438 127.25 363.988281 124.363281 C 362.953125 121.472656 361.847656 118.613281 360.671875 115.78125 C 359.496094 112.945312 358.25 110.144531 356.9375 107.371094 C 355.625 104.597656 354.246094 101.859375 352.796875 99.15625 C 351.351562 96.449219 349.835938 93.78125 348.257812 91.152344 C 346.683594 88.519531 345.039062 85.929688 343.335938 83.382812 C 341.628906 80.832031 339.863281 78.324219 338.035156 75.859375 C 336.207031 73.398438 334.320312 70.980469 332.375 68.609375 C 330.429688 66.238281 328.425781 63.914062 326.363281 61.644531 C 324.304688 59.371094 322.1875 57.148438 320.019531 54.980469 C 317.851562 52.8125 315.628906 50.695312 313.355469 48.636719 C 311.085938 46.574219 308.761719 44.570312 306.390625 42.625 C 304.019531 40.679688 301.601562 38.792969 299.140625 36.964844 C 296.675781 35.136719 294.167969 33.371094 291.617188 31.664062 C 289.070312 29.960938 286.480469 28.316406 283.847656 26.742188 C 281.21875 25.164062 278.550781 23.648438 275.84375 22.203125 C 273.140625 20.753906 270.402344 19.375 267.628906 18.0625 C 264.855469 16.75 262.054688 15.503906 259.21875 14.328125 C 256.386719 13.152344 253.527344 12.046875 250.636719 11.011719 C 247.75 9.976562 244.839844 9.015625 241.90625 8.121094 C 238.96875 7.230469 236.015625 6.410156 233.039062 5.660156 C 230.066406 4.914062 227.074219 4.238281 224.066406 3.636719 C 221.054688 3.035156 218.035156 2.511719 215 2.058594 C 211.96875 1.605469 208.925781 1.226562 205.871094 0.921875 C 202.820312 0.617188 199.761719 0.390625 196.695312 0.234375 C 193.632812 0.0820312 190.566406 0.00390625 187.5 0 Z M 187.5 340.910156 C 184.988281 340.910156 182.480469 340.847656 179.972656 340.722656 C 177.464844 340.601562 174.960938 340.417969 172.464844 340.171875 C 169.964844 339.925781 167.472656 339.617188 164.988281 339.25 C 162.507812 338.878906 160.035156 338.449219 157.570312 337.960938 C 155.109375 337.472656 152.660156 336.921875 150.226562 336.3125 C 147.789062 335.703125 145.371094 335.03125 142.96875 334.304688 C 140.566406 333.574219 138.183594 332.789062 135.816406 331.941406 C 133.453125 331.09375 131.113281 330.191406 128.792969 329.230469 C 126.472656 328.269531 124.179688 327.253906 121.910156 326.179688 C 119.640625 325.105469 117.398438 323.976562 115.183594 322.792969 C 112.96875 321.609375 110.785156 320.375 108.632812 319.082031 C 106.476562 317.792969 104.359375 316.449219 102.269531 315.054688 C 100.183594 313.660156 98.132812 312.214844 96.113281 310.71875 C 94.097656 309.222656 92.117188 307.679688 90.179688 306.085938 C 88.238281 304.492188 86.335938 302.855469 84.476562 301.167969 C 82.617188 299.484375 80.796875 297.75 79.023438 295.976562 C 77.25 294.203125 75.515625 292.382812 73.832031 290.523438 C 72.144531 288.664062 70.507812 286.761719 68.914062 284.820312 C 67.320312 282.882812 65.777344 280.902344 64.28125 278.886719 C 62.785156 276.867188 61.339844 274.816406 59.945312 272.730469 C 58.550781 270.640625 57.207031 268.523438 55.917969 266.367188 C 54.625 264.214844 53.390625 262.03125 52.207031 259.816406 C 51.023438 257.601562 49.894531 255.359375 48.820312 253.089844 C 47.746094 250.820312 46.730469 248.527344 45.769531 246.207031 C 44.808594 243.886719 43.90625 241.546875 43.058594 239.183594 C 42.210938 236.816406 41.425781 234.433594 40.695312 232.03125 C 39.96875 229.628906 39.296875 227.210938 38.6875 224.773438 C 38.078125 222.339844 37.527344 219.890625 37.039062 217.429688 C 36.546875 214.964844 36.121094 212.492188 35.75 210.011719 C 35.382812 207.527344 35.074219 205.035156 34.828125 202.535156 C 34.582031 200.039062 34.398438 197.535156 34.277344 195.027344 C 34.152344 192.519531 34.089844 190.011719 34.089844 187.5 C 34.089844 184.988281 34.152344 182.480469 34.277344 179.972656 C 34.398438 177.464844 34.582031 174.960938 34.828125 172.464844 C 35.074219 169.964844 35.382812 167.472656 35.75 164.988281 C 36.121094 162.507812 36.546875 160.035156 37.039062 157.570312 C 37.527344 155.109375 38.078125 152.660156 38.6875 150.226562 C 39.296875 147.789062 39.96875 145.371094 40.695312 142.96875 C 41.425781 140.566406 42.210938 138.183594 43.058594 135.816406 C 43.90625 133.453125 44.808594 131.113281 45.769531 128.792969 C 46.730469 126.472656 47.746094 124.179688 48.820312 121.910156 C 49.894531 119.640625 51.023438 117.398438 52.207031 115.183594 C 53.390625 112.96875 54.625 110.785156 55.917969 108.632812 C 57.207031 106.476562 58.550781 104.359375 59.945312 102.269531 C 61.339844 100.183594 62.785156 98.132812 64.28125 96.113281 C 65.777344 94.097656 67.320312 92.117188 68.914062 90.179688 C 70.507812 88.238281 72.144531 86.335938 73.832031 84.476562 C 75.515625 82.617188 77.25 80.796875 79.023438 79.023438 C 80.796875 77.25 82.617188 75.515625 84.476562 73.832031 C 86.335938 72.144531 88.238281 70.507812 90.179688 68.914062 C 92.117188 67.320312 94.097656 65.777344 96.113281 64.28125 C 98.132812 62.785156 100.183594 61.339844 102.269531 59.945312 C 104.359375 58.550781 106.476562 57.207031 108.632812 55.917969 C 110.785156 54.625 112.96875 53.390625 115.183594 52.207031 C 117.398438 51.023438 119.640625 49.894531 121.910156 48.820312 C 124.179688 47.746094 126.472656 46.730469 128.792969 45.769531 C 131.113281 44.808594 133.453125 43.90625 135.816406 43.058594 C 138.183594 42.210938 140.566406 41.425781 142.96875 40.695312 C 145.371094 39.96875 147.789062 39.296875 150.226562 38.6875 C 152.660156 38.078125 155.109375 37.527344 157.570312 37.039062 C 160.035156 36.546875 162.507812 36.121094 164.988281 35.75 C 167.472656 35.382812 169.964844 35.074219 172.464844 34.828125 C 174.960938 34.582031 177.464844 34.398438 179.972656 34.277344 C 182.480469 34.152344 184.988281 34.089844 187.5 34.089844 C 190.011719 34.089844 192.519531 34.152344 195.027344 34.277344 C 197.535156 34.398438 200.039062 34.582031 202.535156 34.828125 C 205.035156 35.074219 207.527344 35.382812 210.011719 35.75 C 212.492188 36.121094 214.964844 36.546875 217.429688 37.039062 C 219.890625 37.527344 222.339844 38.078125 224.773438 38.6875 C 227.210938 39.296875 229.628906 39.96875 232.03125 40.695312 C 234.433594 41.425781 236.816406 42.210938 239.183594 43.058594 C 241.546875 43.90625 243.886719 44.808594 246.207031 45.769531 C 248.527344 46.730469 250.820312 47.746094 253.089844 48.820312 C 255.359375 49.894531 257.601562 51.023438 259.816406 52.207031 C 262.03125 53.390625 264.214844 54.625 266.367188 55.917969 C 268.523438 57.207031 270.640625 58.550781 272.730469 59.945312 C 274.816406 61.339844 276.867188 62.785156 278.886719 64.28125 C 280.902344 65.777344 282.882812 67.320312 284.820312 68.914062 C 286.761719 70.507812 288.664062 72.144531 290.523438 73.832031 C 292.382812 75.515625 294.203125 77.25 295.976562 79.023438 C 297.75 80.796875 299.484375 82.617188 301.167969 84.476562 C 302.855469 86.335938 304.492188 88.238281 306.085938 90.179688 C 307.679688 92.117188 309.222656 94.097656 310.71875 96.113281 C 312.214844 98.132812 313.660156 100.183594 315.054688 102.269531 C 316.449219 104.359375 317.792969 106.476562 319.082031 108.632812 C 320.375 110.785156 321.609375 112.96875 322.792969 115.183594 C 323.976562 117.398438 325.105469 119.640625 326.179688 121.910156 C 327.253906 124.179688 328.269531 126.472656 329.230469 128.792969 C 330.191406 131.113281 331.09375 133.453125 331.941406 135.816406 C 332.789062 138.183594 333.574219 140.566406 334.304688 142.96875 C 335.03125 145.371094 335.703125 147.789062 336.3125 150.226562 C 336.921875 152.660156 337.472656 155.109375 337.960938 157.570312 C 338.453125 160.035156 338.878906 162.507812 339.25 164.988281 C 339.617188 167.472656 339.925781 169.964844 340.171875 172.464844 C 340.417969 174.960938 340.601562 177.464844 340.722656 179.972656 C 340.847656 182.480469 340.910156 184.988281 340.910156 187.5 C 340.90625 190.011719 340.84375 192.519531 340.714844 195.023438 C 340.589844 197.53125 340.402344 200.035156 340.15625 202.53125 C 339.90625 205.027344 339.597656 207.519531 339.226562 210 C 338.855469 212.484375 338.425781 214.957031 337.933594 217.417969 C 337.441406 219.878906 336.890625 222.324219 336.277344 224.761719 C 335.667969 227.195312 334.996094 229.613281 334.265625 232.011719 C 333.535156 234.414062 332.746094 236.796875 331.898438 239.160156 C 331.050781 241.523438 330.148438 243.863281 329.1875 246.179688 C 328.222656 248.5 327.207031 250.792969 326.132812 253.0625 C 325.058594 255.328125 323.929688 257.570312 322.746094 259.78125 C 321.558594 261.996094 320.324219 264.179688 319.03125 266.332031 C 317.742188 268.484375 316.398438 270.601562 315.003906 272.6875 C 313.609375 274.777344 312.164062 276.828125 310.667969 278.84375 C 309.171875 280.859375 307.628906 282.835938 306.035156 284.777344 C 304.441406 286.714844 302.804688 288.617188 301.117188 290.476562 C 299.433594 292.335938 297.703125 294.152344 295.925781 295.925781 C 294.152344 297.703125 292.335938 299.433594 290.476562 301.117188 C 288.617188 302.804688 286.714844 304.441406 284.777344 306.035156 C 282.835938 307.628906 280.859375 309.171875 278.84375 310.667969 C 276.828125 312.164062 274.777344 313.609375 272.6875 315.003906 C 270.601562 316.398438 268.484375 317.742188 266.332031 319.03125 C 264.179688 320.324219 261.996094 321.558594 259.78125 322.746094 C 257.570312 323.929688 255.328125 325.058594 253.0625 326.132812 C 250.792969 327.207031 248.5 328.222656 246.179688 329.1875 C 243.863281 330.148438 241.523438 331.050781 239.160156 331.898438 C 236.796875 332.746094 234.414062 333.535156 232.011719 334.265625 C 229.613281 334.996094 227.195312 335.667969 224.761719 336.277344 C 222.324219 336.890625 219.878906 337.441406 217.417969 337.933594 C 214.957031 338.425781 212.484375 338.855469 210 339.226562 C 207.519531 339.597656 205.027344 339.90625 202.53125 340.15625 C 200.035156 340.402344 197.53125 340.589844 195.023438 340.714844 C 192.519531 340.84375 190.011719 340.90625 187.5 340.910156 Z M 187.5 340.910156 "/><path style=" stroke:none;fill-rule:nonzero;fill:#000000;fill-opacity:1;" d="M 204.546875 180.441406 L 204.546875 119.316406 C 204.546875 118.761719 204.519531 118.203125 204.464844 117.648438 C 204.410156 117.09375 204.328125 116.539062 204.21875 115.992188 C 204.109375 115.445312 203.972656 114.90625 203.8125 114.371094 C 203.648438 113.835938 203.460938 113.3125 203.246094 112.796875 C 203.035156 112.28125 202.796875 111.773438 202.53125 111.28125 C 202.269531 110.789062 201.984375 110.3125 201.671875 109.847656 C 201.363281 109.382812 201.03125 108.9375 200.675781 108.503906 C 200.320312 108.074219 199.949219 107.660156 199.554688 107.265625 C 199.15625 106.871094 198.746094 106.496094 198.3125 106.140625 C 197.882812 105.789062 197.433594 105.457031 196.96875 105.144531 C 196.503906 104.835938 196.027344 104.546875 195.535156 104.285156 C 195.042969 104.023438 194.539062 103.785156 194.023438 103.570312 C 193.507812 103.355469 192.980469 103.167969 192.449219 103.007812 C 191.914062 102.84375 191.371094 102.710938 190.824219 102.601562 C 190.277344 102.492188 189.726562 102.410156 189.171875 102.355469 C 188.613281 102.300781 188.058594 102.273438 187.5 102.273438 C 186.941406 102.273438 186.386719 102.300781 185.828125 102.355469 C 185.273438 102.410156 184.722656 102.492188 184.175781 102.601562 C 183.628906 102.710938 183.085938 102.84375 182.550781 103.007812 C 182.019531 103.167969 181.492188 103.355469 180.976562 103.570312 C 180.460938 103.785156 179.957031 104.023438 179.464844 104.285156 C 178.972656 104.546875 178.496094 104.835938 178.03125 105.144531 C 177.566406 105.457031 177.117188 105.789062 176.6875 106.140625 C 176.253906 106.496094 175.839844 106.871094 175.445312 107.265625 C 175.050781 107.660156 174.679688 108.074219 174.324219 108.503906 C 173.96875 108.9375 173.636719 109.382812 173.328125 109.847656 C 173.015625 110.3125 172.730469 110.789062 172.46875 111.28125 C 172.203125 111.773438 171.964844 112.28125 171.753906 112.796875 C 171.539062 113.3125 171.351562 113.835938 171.1875 114.371094 C 171.027344 114.90625 170.890625 115.445312 170.78125 115.992188 C 170.671875 116.539062 170.589844 117.09375 170.535156 117.648438 C 170.480469 118.203125 170.453125 118.761719 170.453125 119.316406 L 170.453125 187.5 L 170.472656 187.582031 C 170.488281 189.828125 170.925781 191.984375 171.789062 194.058594 C 172.648438 196.128906 173.871094 197.964844 175.453125 199.554688 L 223.65625 247.765625 C 224.046875 248.171875 224.460938 248.554688 224.890625 248.917969 C 225.320312 249.28125 225.769531 249.625 226.230469 249.941406 C 226.695312 250.261719 227.175781 250.558594 227.667969 250.832031 C 228.164062 251.101562 228.667969 251.347656 229.1875 251.570312 C 229.707031 251.792969 230.234375 251.988281 230.773438 252.15625 C 231.308594 252.328125 231.855469 252.46875 232.40625 252.582031 C 232.957031 252.699219 233.511719 252.785156 234.074219 252.847656 C 234.632812 252.90625 235.195312 252.9375 235.761719 252.941406 C 236.324219 252.949219 236.886719 252.925781 237.449219 252.871094 C 238.007812 252.820312 238.566406 252.742188 239.121094 252.636719 C 239.671875 252.527344 240.21875 252.394531 240.761719 252.234375 C 241.300781 252.074219 241.832031 251.886719 242.351562 251.671875 C 242.875 251.457031 243.382812 251.21875 243.882812 250.953125 C 244.378906 250.691406 244.863281 250.402344 245.332031 250.089844 C 245.800781 249.777344 246.253906 249.441406 246.691406 249.085938 C 247.128906 248.726562 247.542969 248.351562 247.941406 247.953125 C 248.339844 247.554688 248.71875 247.136719 249.078125 246.699219 C 249.433594 246.265625 249.769531 245.8125 250.082031 245.339844 C 250.394531 244.871094 250.683594 244.390625 250.945312 243.890625 C 251.210938 243.394531 251.449219 242.882812 251.664062 242.363281 C 251.875 241.839844 252.0625 241.308594 252.226562 240.769531 C 252.386719 240.230469 252.519531 239.683594 252.628906 239.128906 C 252.734375 238.574219 252.8125 238.019531 252.863281 237.457031 C 252.917969 236.894531 252.941406 236.332031 252.9375 235.769531 C 252.929688 235.207031 252.898438 234.644531 252.839844 234.082031 C 252.777344 233.523438 252.691406 232.964844 252.578125 232.414062 C 252.460938 231.863281 252.320312 231.316406 252.148438 230.78125 C 251.980469 230.242188 251.785156 229.714844 251.5625 229.195312 C 251.339844 228.679688 251.09375 228.171875 250.824219 227.679688 C 250.550781 227.183594 250.253906 226.707031 249.9375 226.242188 C 249.617188 225.777344 249.277344 225.328125 248.910156 224.898438 C 248.546875 224.46875 248.164062 224.054688 247.757812 223.664062 Z M 204.546875 180.441406 "/></g></svg>