<svg xmlns="http://www.w3.org/2000/svg" xmlns:xlink="http://www.w3.org/1999/xlink" width="500" zoomAndPan="magnify" viewBox="0 0 375 374.999991" height="500" preserveAspectRatio="xMidYMid meet" version="1.2"><defs><clipPath id="0f1febd621"><path d="M 55 321 L 374 321 L 374 330.796875 L 55 330.796875 Z M 55 321 "/></clipPath></defs><g id="06f0a557ab"><path style=" stroke:none;fill-rule:evenodd;fill:#000000;fill-opacity:1;" d="M 37.757812 272.546875 C 49.253906 262.300781 68.84375 249.484375 82.757812 242.039062 C 83.433594 243.222656 84.128906 244.433594 84.820312 245.652344 C 75.464844 252.503906 69.789062 263.101562 66.609375 272.011719 C 59.921875 281.25 62.0625 288.480469 57.816406 288.425781 C 54.125 288.375 35.949219 289.851562 30.152344 287.367188 C 32.914062 282.792969 47.070312 268.53125 74.265625 249.675781 C 76.46875 248.148438 40.429688 270.332031 37.757812 272.546875 Z M 37.757812 272.546875 "/><path style=" stroke:none;fill-rule:evenodd;fill:#000000;fill-opacity:1;" d="M 88.464844 239.097656 C 90.058594 238.292969 92.210938 237.207031 94.820312 235.894531 C 94.820312 235.894531 92.96875 237.21875 96.238281 237.121094 C 99.507812 237.027344 191.496094 190.410156 196.027344 189.972656 C 200.558594 189.535156 209.871094 216.351562 212.882812 216.050781 C 215.894531 215.75 217 205.695312 219.105469 205.238281 C 221.210938 204.78125 228.667969 216.011719 230.816406 215.148438 C 232.964844 214.285156 240.296875 188.660156 240.296875 188.660156 C 253.570312 199 281.421875 220.945312 293.296875 231.199219 C 300.347656 256.78125 303.289062 275.046875 298.84375 274.648438 C 278.363281 272.828125 249.875 279.152344 241.21875 283.03125 C 226.523438 286.457031 215.542969 291.109375 208.527344 294.441406 C 188.261719 289.839844 129.992188 288.976562 127.300781 288.816406 C 124.492188 288.648438 125.101562 283.199219 121.15625 281.863281 C 121.449219 281.707031 121.648438 281.496094 121.742188 281.230469 C 122.519531 278.933594 117.570312 275.417969 111.164062 271.988281 C 111.238281 270.394531 111.351562 268.460938 111.351562 268.460938 C 111.355469 268.460938 111.355469 268.460938 111.359375 268.460938 C 113.542969 268.417969 112.324219 252.945312 109.34375 248.367188 C 106.496094 243.980469 98.367188 241.480469 90.957031 243.4375 C 90.113281 241.964844 89.277344 240.507812 88.464844 239.097656 Z M 88.464844 239.097656 "/><path style=" stroke:none;fill-rule:evenodd;fill:#000000;fill-opacity:1;" d="M 253.503906 98.089844 C 245.800781 92.972656 236.480469 87.839844 235.421875 89.785156 C 233.773438 92.800781 251.195312 105.761719 251.195312 105.761719 C 251.195312 105.761719 222.90625 91.679688 221.835938 95.382812 C 220.765625 99.082031 243.089844 114.652344 243.089844 114.652344 C 243.089844 114.652344 216.839844 103.46875 215.554688 107.785156 C 214.265625 112.097656 243.546875 126.394531 243.546875 126.394531 C 243.546875 126.394531 217.847656 115.429688 217.214844 118.699219 C 217.152344 119.015625 217.347656 119.421875 217.753906 119.910156 C 204.546875 115.40625 196.746094 100.117188 196.453125 102.015625 C 190.28125 142.289062 179.816406 137.648438 172.757812 133.433594 C 168.273438 130.761719 164.078125 133.890625 164.691406 138.960938 C 157.660156 139.765625 147.839844 133.261719 156.585938 120.15625 C 142.550781 124.734375 132.949219 105.746094 160.796875 90.40625 C 144.253906 77.371094 167.578125 59.566406 186 66.484375 C 193.40625 44.296875 215.210938 48.273438 218.839844 61.222656 C 233.839844 50.742188 253.246094 64.273438 246.59375 77.84375 C 261.5625 80.726562 264.582031 96.011719 253.503906 98.089844 Z M 253.503906 98.089844 "/><path style=" stroke:none;fill-rule:evenodd;fill:#000000;fill-opacity:1;" d="M 60.640625 324.019531 C 55.847656 324.019531 56.160156 329.640625 60.511719 329.640625 L 368.5625 329.640625 C 373.691406 329.640625 374.125 322.507812 368.363281 322.507812 C 362.601562 322.507812 62.859375 324.019531 60.640625 324.019531 Z M 60.640625 324.019531 "/><path style=" stroke:none;fill-rule:nonzero;fill:#000000;fill-opacity:1;" d="M 203.722656 118.941406 C 203.410156 119.003906 203.167969 119.167969 202.992188 119.433594 C 201.832031 121.171875 201.652344 122.121094 198.863281 122.757812 C 198.714844 122.789062 198.578125 122.851562 198.453125 122.941406 C 198.328125 123.027344 198.226562 123.136719 198.144531 123.265625 C 198.0625 123.394531 198.007812 123.535156 197.984375 123.6875 C 197.957031 123.835938 197.960938 123.988281 197.996094 124.136719 C 198.03125 124.285156 198.089844 124.421875 198.179688 124.546875 C 198.265625 124.671875 198.375 124.773438 198.503906 124.855469 C 198.636719 124.9375 198.773438 124.992188 198.925781 125.015625 C 199.074219 125.042969 199.226562 125.039062 199.375 125.003906 C 202.769531 124.234375 203.867188 122.273438 204.90625 120.714844 C 204.992188 120.585938 205.050781 120.449219 205.078125 120.296875 C 205.109375 120.148438 205.109375 119.996094 205.078125 119.847656 C 205.050781 119.699219 204.992188 119.558594 204.90625 119.433594 C 204.824219 119.304688 204.714844 119.199219 204.589844 119.113281 C 204.324219 118.9375 204.035156 118.878906 203.722656 118.941406 Z M 203.722656 118.941406 "/><path style=" stroke:none;fill-rule:nonzero;fill:#000000;fill-opacity:1;" d="M 206.339844 133.910156 C 206.019531 133.917969 205.75 134.035156 205.53125 134.261719 C 204.648438 135.175781 202.589844 136.003906 200.398438 136.390625 C 198.210938 136.78125 195.875 136.78125 194.582031 136.511719 C 194.433594 136.480469 194.28125 136.480469 194.132812 136.507812 C 193.980469 136.539062 193.84375 136.59375 193.714844 136.679688 C 193.585938 136.761719 193.480469 136.867188 193.394531 136.992188 C 193.308594 137.121094 193.25 137.257812 193.21875 137.40625 C 193.1875 137.558594 193.1875 137.707031 193.214844 137.859375 C 193.242188 138.007812 193.300781 138.148438 193.382812 138.273438 C 193.46875 138.402344 193.574219 138.511719 193.699219 138.597656 C 193.824219 138.683594 193.964844 138.742188 194.113281 138.769531 C 195.890625 139.140625 198.355469 139.097656 200.804688 138.664062 C 203.25 138.226562 205.660156 137.445312 207.1875 135.863281 C 207.292969 135.753906 207.375 135.628906 207.429688 135.484375 C 207.488281 135.34375 207.511719 135.195312 207.511719 135.042969 C 207.507812 134.890625 207.476562 134.742188 207.414062 134.605469 C 207.355469 134.464844 207.269531 134.339844 207.160156 134.234375 C 206.929688 134.011719 206.65625 133.90625 206.339844 133.910156 Z M 206.339844 133.910156 "/><path style=" stroke:none;fill-rule:nonzero;fill:#000000;fill-opacity:1;" d="M 221.976562 125.542969 C 221.828125 125.570312 221.6875 125.628906 221.5625 125.710938 C 221.433594 125.796875 221.328125 125.902344 221.242188 126.027344 C 221.15625 126.15625 221.097656 126.292969 221.066406 126.445312 C 221.035156 126.59375 221.035156 126.742188 221.066406 126.894531 C 221.398438 128.617188 222.957031 136.257812 224.398438 143.636719 C 225.117188 147.324219 225.808594 150.945312 226.292969 153.703125 C 226.539062 155.082031 226.730469 156.246094 226.851562 157.085938 C 226.914062 157.503906 226.953125 157.84375 226.976562 158.070312 C 226.980469 158.152344 226.984375 158.195312 226.984375 158.238281 C 226.765625 158.886719 226.125 159.449219 226.125 159.449219 C 226.003906 159.542969 225.902344 159.65625 225.824219 159.789062 C 225.75 159.921875 225.699219 160.0625 225.679688 160.214844 C 225.660156 160.363281 225.667969 160.515625 225.707031 160.664062 C 225.746094 160.808594 225.8125 160.945312 225.90625 161.066406 C 225.996094 161.1875 226.109375 161.289062 226.242188 161.363281 C 226.375 161.441406 226.515625 161.492188 226.667969 161.511719 C 226.816406 161.53125 226.96875 161.523438 227.117188 161.484375 C 227.261719 161.445312 227.398438 161.378906 227.519531 161.285156 C 227.519531 161.285156 228.785156 160.398438 229.238281 158.792969 C 229.320312 158.507812 229.296875 158.410156 229.292969 158.28125 C 229.292969 158.148438 229.285156 158.015625 229.269531 157.867188 C 229.242188 157.566406 229.199219 157.199219 229.132812 156.757812 C 229.007812 155.875 228.8125 154.695312 228.566406 153.300781 C 228.074219 150.515625 227.382812 146.890625 226.660156 143.195312 C 225.214844 135.800781 223.648438 128.109375 223.328125 126.457031 C 223.300781 126.304688 223.242188 126.167969 223.160156 126.039062 C 223.074219 125.910156 222.96875 125.804688 222.84375 125.71875 C 222.714844 125.632812 222.578125 125.574219 222.429688 125.542969 C 222.277344 125.515625 222.128906 125.511719 221.976562 125.542969 Z M 221.976562 125.542969 "/><path style=" stroke:none;fill-rule:nonzero;fill:#000000;fill-opacity:1;" d="M 224.125 167.578125 C 223.824219 167.480469 223.53125 167.507812 223.246094 167.65625 C 221.988281 168.3125 219.507812 167.84375 219.507812 167.84375 C 219.359375 167.808594 219.207031 167.800781 219.058594 167.820312 C 218.90625 167.84375 218.765625 167.894531 218.632812 167.972656 C 218.503906 168.050781 218.390625 168.152344 218.300781 168.273438 C 218.207031 168.394531 218.144531 168.53125 218.105469 168.679688 C 218.066406 168.828125 218.058594 168.976562 218.082031 169.128906 C 218.105469 169.28125 218.152344 169.421875 218.230469 169.550781 C 218.308594 169.683594 218.410156 169.796875 218.53125 169.886719 C 218.65625 169.976562 218.789062 170.042969 218.9375 170.082031 C 218.9375 170.082031 221.851562 170.984375 224.3125 169.699219 C 224.449219 169.628906 224.566406 169.535156 224.664062 169.417969 C 224.761719 169.300781 224.835938 169.167969 224.878906 169.023438 C 224.925781 168.878906 224.941406 168.726562 224.929688 168.574219 C 224.914062 168.421875 224.875 168.28125 224.800781 168.144531 C 224.65625 167.863281 224.429688 167.671875 224.125 167.578125 Z M 224.125 167.578125 "/><path style=" stroke:none;fill-rule:nonzero;fill:#000000;fill-opacity:1;" d="M 227.789062 131.425781 C 227.484375 131.523438 227.261719 131.714844 227.117188 131.996094 C 227.046875 132.132812 227.007812 132.277344 226.992188 132.429688 C 226.980469 132.582031 227 132.730469 227.046875 132.875 C 227.09375 133.023438 227.167969 133.152344 227.265625 133.269531 C 227.363281 133.386719 227.480469 133.480469 227.617188 133.546875 C 228.492188 133.996094 229.605469 134.207031 230.832031 134.285156 C 232.058594 134.367188 233.34375 134.308594 234.457031 133.847656 C 234.597656 133.789062 234.722656 133.707031 234.832031 133.597656 C 234.941406 133.492188 235.023438 133.367188 235.082031 133.226562 C 235.140625 133.085938 235.171875 132.9375 235.171875 132.785156 C 235.171875 132.632812 235.144531 132.484375 235.085938 132.34375 C 235.027344 132.203125 234.945312 132.078125 234.835938 131.96875 C 234.726562 131.859375 234.601562 131.777344 234.460938 131.71875 C 234.320312 131.660156 234.175781 131.628906 234.019531 131.628906 C 233.867188 131.628906 233.722656 131.65625 233.578125 131.714844 C 233.046875 131.9375 231.984375 132.050781 230.984375 131.984375 C 229.984375 131.917969 228.988281 131.660156 228.667969 131.496094 C 228.382812 131.351562 228.089844 131.328125 227.789062 131.425781 Z M 227.789062 131.425781 "/><path style=" stroke:none;fill-rule:nonzero;fill:#000000;fill-opacity:1;" d="M 283.34375 280.722656 C 255.101562 280.960938 225.949219 287.78125 209.644531 304.746094 C 186.535156 293.359375 160.621094 290.125 138.523438 291.433594 C 116.191406 292.753906 97.8125 298.554688 89.863281 305.804688 C 89.75 305.90625 89.660156 306.027344 89.59375 306.164062 C 89.53125 306.304688 89.492188 306.449219 89.488281 306.601562 C 89.480469 306.753906 89.5 306.902344 89.554688 307.046875 C 89.605469 307.191406 89.683594 307.320312 89.785156 307.433594 C 89.886719 307.542969 90.007812 307.632812 90.148438 307.699219 C 90.285156 307.765625 90.429688 307.800781 90.585938 307.808594 C 90.738281 307.8125 90.886719 307.792969 91.027344 307.738281 C 91.171875 307.6875 91.300781 307.609375 91.414062 307.507812 C 98.480469 301.070312 116.660156 295.039062 138.660156 293.734375 C 160.660156 292.429688 186.53125 295.707031 209.363281 307.164062 C 209.589844 307.277344 209.832031 307.3125 210.082031 307.265625 C 210.335938 307.222656 210.546875 307.105469 210.722656 306.917969 C 226.15625 290.304688 255.144531 283.265625 283.363281 283.03125 C 311.582031 282.792969 339.027344 289.4375 350.921875 299.105469 C 351.039062 299.199219 351.171875 299.269531 351.320312 299.3125 C 351.464844 299.359375 351.617188 299.371094 351.765625 299.355469 C 351.917969 299.339844 352.0625 299.296875 352.195312 299.222656 C 352.332031 299.148438 352.445312 299.054688 352.542969 298.9375 C 352.640625 298.816406 352.710938 298.683594 352.753906 298.539062 C 352.796875 298.390625 352.8125 298.242188 352.796875 298.089844 C 352.78125 297.9375 352.734375 297.792969 352.664062 297.660156 C 352.589844 297.527344 352.496094 297.410156 352.375 297.3125 C 339.558594 286.898438 311.925781 280.484375 283.34375 280.722656 Z M 283.34375 280.722656 "/><path style=" stroke:none;fill-rule:nonzero;fill:#000000;fill-opacity:1;" d="M 361.914062 289.898438 C 357.789062 289.925781 354.386719 290.035156 354.386719 290.035156 C 354.234375 290.039062 354.089844 290.074219 353.949219 290.136719 C 353.808594 290.199219 353.6875 290.285156 353.582031 290.398438 C 353.476562 290.507812 353.398438 290.636719 353.34375 290.777344 C 353.289062 290.921875 353.265625 291.070312 353.269531 291.222656 C 353.273438 291.375 353.308594 291.519531 353.371094 291.660156 C 353.433594 291.800781 353.519531 291.921875 353.632812 292.027344 C 353.742188 292.132812 353.871094 292.210938 354.011719 292.265625 C 354.15625 292.320312 354.304688 292.34375 354.457031 292.339844 C 354.457031 292.339844 368.273438 291.949219 373.53125 292.558594 C 373.683594 292.574219 373.832031 292.5625 373.980469 292.519531 C 374.125 292.476562 374.257812 292.410156 374.378906 292.316406 C 374.5 292.21875 374.597656 292.105469 374.671875 291.972656 C 374.746094 291.839844 374.789062 291.695312 374.808594 291.542969 C 374.824219 291.390625 374.8125 291.242188 374.773438 291.09375 C 374.730469 290.949219 374.660156 290.816406 374.566406 290.695312 C 374.472656 290.574219 374.355469 290.476562 374.222656 290.402344 C 374.089844 290.328125 373.949219 290.285156 373.796875 290.265625 C 370.894531 289.929688 366.042969 289.875 361.914062 289.898438 Z M 361.914062 289.898438 "/><g clip-rule="nonzero" clip-path="url(#0f1febd621)"><path style=" stroke:none;fill-rule:nonzero;fill:#000000;fill-opacity:1;" d="M 368.363281 321.355469 C 365.382812 321.355469 289.101562 321.734375 213.167969 322.109375 C 175.203125 322.300781 137.34375 322.488281 108.84375 322.628906 C 80.339844 322.773438 61.066406 322.867188 60.640625 322.867188 C 57.792969 322.867188 55.960938 324.816406 55.992188 326.847656 C 56.027344 328.878906 57.839844 330.792969 60.511719 330.792969 L 368.5625 330.792969 C 371.660156 330.792969 373.660156 328.464844 373.699219 326.09375 C 373.71875 324.910156 373.277344 323.695312 372.347656 322.792969 C 371.421875 321.894531 370.042969 321.355469 368.363281 321.355469 Z M 368.363281 323.660156 C 369.566406 323.660156 370.292969 324.011719 370.746094 324.449219 C 371.195312 324.890625 371.40625 325.457031 371.394531 326.054688 C 371.375 327.25 370.59375 328.488281 368.5625 328.488281 L 60.511719 328.488281 C 58.832031 328.488281 58.3125 327.589844 58.296875 326.8125 C 58.285156 326.03125 58.695312 325.171875 60.640625 325.171875 C 61.328125 325.171875 80.351562 325.078125 108.855469 324.9375 C 137.355469 324.792969 175.214844 324.605469 213.179688 324.417969 C 289.113281 324.039062 365.582031 323.660156 368.363281 323.660156 Z M 368.363281 323.660156 "/></g><path style=" stroke:none;fill-rule:nonzero;fill:#000000;fill-opacity:1;" d="M 138.90625 317.367188 L 65.21875 318.226562 C 65.066406 318.226562 64.917969 318.257812 64.777344 318.320312 C 64.636719 318.378906 64.515625 318.464844 64.40625 318.574219 C 64.300781 318.683594 64.21875 318.808594 64.164062 318.949219 C 64.105469 319.089844 64.078125 319.238281 64.078125 319.390625 C 64.082031 319.542969 64.113281 319.691406 64.171875 319.832031 C 64.234375 319.972656 64.316406 320.097656 64.425781 320.203125 C 64.535156 320.308594 64.660156 320.390625 64.804688 320.449219 C 64.945312 320.503906 65.09375 320.53125 65.246094 320.53125 L 138.929688 319.671875 C 139.085938 319.671875 139.230469 319.640625 139.371094 319.582031 C 139.511719 319.519531 139.636719 319.433594 139.742188 319.324219 C 139.847656 319.214844 139.929688 319.089844 139.988281 318.949219 C 140.042969 318.808594 140.070312 318.660156 140.070312 318.507812 C 140.066406 318.355469 140.039062 318.207031 139.976562 318.066406 C 139.917969 317.925781 139.832031 317.800781 139.722656 317.695312 C 139.613281 317.589844 139.488281 317.507812 139.347656 317.449219 C 139.203125 317.394531 139.058594 317.367188 138.90625 317.367188 Z M 138.90625 317.367188 "/><path style=" stroke:none;fill-rule:nonzero;fill:#000000;fill-opacity:1;" d="M 77.195312 312.742188 C 77.042969 312.742188 76.894531 312.769531 76.753906 312.828125 C 76.613281 312.886719 76.488281 312.96875 76.378906 313.078125 C 76.269531 313.183594 76.1875 313.308594 76.128906 313.449219 C 76.070312 313.589844 76.039062 313.738281 76.039062 313.890625 C 76.035156 314.042969 76.066406 314.191406 76.125 314.332031 C 76.179688 314.472656 76.261719 314.597656 76.371094 314.707031 C 76.476562 314.816406 76.601562 314.898438 76.742188 314.957031 C 76.882812 315.019531 77.03125 315.046875 77.183594 315.050781 L 209.644531 315.734375 C 209.796875 315.738281 209.941406 315.707031 210.085938 315.652344 C 210.226562 315.59375 210.351562 315.511719 210.460938 315.402344 C 210.566406 315.296875 210.652344 315.171875 210.710938 315.03125 C 210.769531 314.890625 210.800781 314.742188 210.800781 314.589844 C 210.800781 314.4375 210.773438 314.289062 210.714844 314.148438 C 210.65625 314.003906 210.574219 313.878906 210.46875 313.773438 C 210.359375 313.664062 210.234375 313.578125 210.09375 313.519531 C 209.953125 313.460938 209.808594 313.429688 209.65625 313.429688 Z M 77.195312 312.742188 "/><path style=" stroke:none;fill-rule:nonzero;fill:#000000;fill-opacity:1;" d="M 242.53125 311.0625 C 242.378906 311.0625 242.234375 311.089844 242.089844 311.148438 C 241.949219 311.207031 241.824219 311.289062 241.71875 311.398438 C 241.609375 311.503906 241.523438 311.628906 241.464844 311.769531 C 241.40625 311.914062 241.378906 312.058594 241.378906 312.210938 C 241.378906 312.367188 241.40625 312.511719 241.464844 312.652344 C 241.523438 312.796875 241.605469 312.921875 241.714844 313.027344 C 241.824219 313.136719 241.945312 313.21875 242.089844 313.277344 C 242.230469 313.335938 242.375 313.367188 242.527344 313.367188 L 360.628906 313.527344 C 360.78125 313.527344 360.929688 313.496094 361.070312 313.4375 C 361.210938 313.382812 361.335938 313.296875 361.445312 313.191406 C 361.550781 313.082031 361.636719 312.957031 361.695312 312.816406 C 361.753906 312.675781 361.78125 312.527344 361.785156 312.375 C 361.785156 312.222656 361.753906 312.074219 361.695312 311.933594 C 361.636719 311.792969 361.554688 311.667969 361.445312 311.558594 C 361.339844 311.449219 361.214844 311.367188 361.074219 311.308594 C 360.933594 311.25 360.785156 311.21875 360.632812 311.21875 Z M 242.53125 311.0625 "/><path style=" stroke:none;fill-rule:nonzero;fill:#000000;fill-opacity:1;" d="M 289.699219 293.832031 C 262.789062 293.675781 234.226562 297.757812 216.140625 306.679688 C 216.003906 306.746094 215.886719 306.839844 215.785156 306.953125 C 215.683594 307.070312 215.609375 307.199219 215.5625 307.34375 C 215.511719 307.488281 215.492188 307.636719 215.503906 307.789062 C 215.511719 307.941406 215.550781 308.085938 215.617188 308.222656 C 215.6875 308.359375 215.777344 308.480469 215.894531 308.582031 C 216.007812 308.683594 216.136719 308.757812 216.28125 308.804688 C 216.425781 308.855469 216.574219 308.875 216.726562 308.863281 C 216.878906 308.855469 217.023438 308.816406 217.160156 308.75 C 234.625 300.132812 263.023438 295.984375 289.683594 296.136719 C 316.347656 296.289062 341.382812 300.875 351.847656 308.796875 C 351.96875 308.890625 352.105469 308.953125 352.253906 308.992188 C 352.398438 309.03125 352.550781 309.042969 352.703125 309.019531 C 352.851562 309 352.996094 308.949219 353.125 308.871094 C 353.257812 308.796875 353.371094 308.695312 353.460938 308.574219 C 353.554688 308.453125 353.621094 308.316406 353.65625 308.167969 C 353.695312 308.019531 353.707031 307.871094 353.683594 307.71875 C 353.664062 307.570312 353.613281 307.425781 353.539062 307.296875 C 353.460938 307.164062 353.359375 307.050781 353.238281 306.957031 C 341.742188 298.253906 316.605469 293.984375 289.699219 293.832031 Z M 289.699219 293.832031 "/><path style=" stroke:none;fill-rule:nonzero;fill:#000000;fill-opacity:1;" d="M 77.515625 279.5625 C 77.371094 279.519531 77.222656 279.507812 77.070312 279.523438 C 76.917969 279.539062 76.773438 279.582031 76.640625 279.65625 C 76.503906 279.730469 76.390625 279.824219 76.292969 279.945312 C 76.199219 280.0625 76.128906 280.195312 76.085938 280.34375 C 76.042969 280.488281 76.027344 280.640625 76.042969 280.792969 C 76.058594 280.945312 76.105469 281.085938 76.179688 281.222656 C 76.25 281.355469 76.347656 281.46875 76.464844 281.566406 C 76.585938 281.664062 76.71875 281.734375 76.863281 281.777344 C 80.703125 282.910156 87.5625 284.738281 94.066406 286.316406 C 100.574219 287.894531 106.550781 289.226562 109.21875 289.351562 C 112.78125 289.515625 114.753906 288.671875 115.753906 287.476562 C 116.753906 286.285156 116.550781 284.847656 116.550781 284.847656 C 116.527344 284.699219 116.472656 284.558594 116.390625 284.429688 C 116.308594 284.300781 116.207031 284.191406 116.082031 284.101562 C 115.957031 284.015625 115.820312 283.953125 115.671875 283.917969 C 115.523438 283.886719 115.371094 283.882812 115.222656 283.90625 C 115.070312 283.933594 114.933594 283.984375 114.800781 284.066406 C 114.671875 284.148438 114.5625 284.253906 114.476562 284.378906 C 114.386719 284.5 114.328125 284.636719 114.292969 284.789062 C 114.257812 284.9375 114.253906 285.085938 114.28125 285.238281 C 114.28125 285.238281 114.375 285.535156 113.988281 285.996094 C 113.601562 286.457031 112.5 287.191406 109.324219 287.046875 C 107.339844 286.957031 101.082031 285.644531 94.609375 284.074219 C 88.140625 282.503906 81.285156 280.675781 77.515625 279.5625 Z M 77.515625 279.5625 "/><path style=" stroke:none;fill-rule:nonzero;fill:#000000;fill-opacity:1;" d="M 77.585938 285.3125 C 77.441406 285.257812 77.292969 285.234375 77.140625 285.242188 C 76.988281 285.25 76.84375 285.285156 76.703125 285.347656 C 76.566406 285.414062 76.445312 285.5 76.34375 285.613281 C 76.238281 285.726562 76.160156 285.855469 76.109375 286 C 76.054688 286.140625 76.03125 286.289062 76.039062 286.441406 C 76.046875 286.59375 76.082031 286.742188 76.144531 286.878906 C 76.210938 287.019531 76.296875 287.140625 76.410156 287.242188 C 76.523438 287.347656 76.652344 287.425781 76.792969 287.476562 C 80.324219 288.769531 85.714844 290.480469 90.667969 291.914062 C 95.621094 293.34375 99.953125 294.492188 101.980469 294.65625 C 104.9375 294.894531 106.753906 294.214844 107.785156 293.273438 C 108.8125 292.335938 108.960938 291.097656 108.960938 291.097656 C 108.972656 290.945312 108.957031 290.796875 108.910156 290.652344 C 108.863281 290.503906 108.789062 290.375 108.691406 290.257812 C 108.589844 290.140625 108.472656 290.046875 108.335938 289.980469 C 108.199219 289.910156 108.058594 289.867188 107.90625 289.855469 C 107.753906 289.84375 107.601562 289.863281 107.457031 289.910156 C 107.3125 289.957031 107.183594 290.027344 107.066406 290.128906 C 106.949219 290.226562 106.855469 290.34375 106.785156 290.480469 C 106.71875 290.617188 106.675781 290.761719 106.664062 290.914062 C 106.664062 290.914062 106.695312 291.148438 106.230469 291.570312 C 105.769531 291.992188 104.714844 292.5625 102.167969 292.359375 C 100.847656 292.253906 96.21875 291.117188 91.304688 289.699219 C 86.394531 288.277344 81.019531 286.566406 77.585938 285.3125 Z M 77.585938 285.3125 "/><path style=" stroke:none;fill-rule:nonzero;fill:#000000;fill-opacity:1;" d="M 84.996094 244.511719 C 84.683594 244.464844 84.398438 244.53125 84.140625 244.722656 C 74.699219 251.636719 68.984375 262.148438 65.722656 271.082031 C 64.089844 275.546875 63.070312 279.625 62.519531 282.695312 C 62.246094 284.230469 62.085938 285.515625 62.027344 286.492188 C 61.996094 286.980469 61.992188 287.394531 62.015625 287.75 C 62.039062 288.109375 61.953125 288.363281 62.367188 288.914062 C 62.609375 289.230469 62.800781 289.335938 63.035156 289.492188 C 63.269531 289.644531 63.539062 289.796875 63.855469 289.960938 C 64.488281 290.292969 65.308594 290.671875 66.28125 291.09375 C 68.222656 291.933594 70.769531 292.9375 73.523438 293.953125 C 79.03125 295.976562 85.324219 298.039062 89.238281 298.882812 C 93.140625 299.726562 95.878906 299.671875 97.773438 299.136719 C 98.71875 298.871094 99.460938 298.484375 100.007812 297.972656 C 100.550781 297.460938 100.917969 296.789062 100.898438 296.054688 C 100.894531 295.898438 100.863281 295.753906 100.800781 295.613281 C 100.738281 295.472656 100.652344 295.351562 100.539062 295.246094 C 100.429688 295.140625 100.304688 295.0625 100.160156 295.003906 C 100.019531 294.949219 99.871094 294.925781 99.71875 294.929688 C 99.566406 294.933594 99.417969 294.964844 99.277344 295.027344 C 99.140625 295.089844 99.015625 295.175781 98.910156 295.285156 C 98.804688 295.398438 98.726562 295.523438 98.671875 295.667969 C 98.617188 295.808594 98.589844 295.957031 98.59375 296.109375 C 98.59375 296.039062 98.625 296.109375 98.429688 296.289062 C 98.238281 296.472656 97.828125 296.726562 97.148438 296.917969 C 95.792969 297.300781 93.382812 297.417969 89.722656 296.628906 C 86.074219 295.839844 79.765625 293.792969 74.320312 291.789062 C 71.59375 290.785156 69.074219 289.792969 67.195312 288.976562 C 66.253906 288.570312 65.472656 288.207031 64.921875 287.917969 C 64.65625 287.777344 64.453125 287.660156 64.3125 287.570312 C 64.300781 287.371094 64.300781 287.046875 64.324219 286.632812 C 64.378906 285.785156 64.523438 284.570312 64.789062 283.101562 C 65.316406 280.167969 66.304688 276.203125 67.886719 271.871094 C 71.050781 263.207031 76.601562 253.097656 85.5 246.582031 C 85.625 246.492188 85.726562 246.378906 85.804688 246.25 C 85.882812 246.117188 85.9375 245.976562 85.960938 245.828125 C 85.984375 245.675781 85.976562 245.527344 85.941406 245.378906 C 85.902344 245.230469 85.839844 245.09375 85.75 244.96875 C 85.5625 244.710938 85.3125 244.558594 84.996094 244.511719 Z M 84.996094 244.511719 "/><path style=" stroke:none;fill-rule:nonzero;fill:#000000;fill-opacity:1;" d="M 88.589844 260.835938 C 88.445312 260.785156 88.296875 260.765625 88.144531 260.777344 C 87.992188 260.785156 87.847656 260.824219 87.710938 260.894531 C 87.574219 260.960938 87.453125 261.050781 87.355469 261.167969 C 87.253906 261.28125 87.179688 261.414062 87.128906 261.558594 C 87.082031 261.703125 87.0625 261.851562 87.070312 262.003906 C 87.082031 262.15625 87.121094 262.300781 87.1875 262.4375 C 87.257812 262.574219 87.347656 262.695312 87.460938 262.792969 C 87.578125 262.894531 87.707031 262.96875 87.851562 263.019531 C 91.203125 264.152344 100.046875 267.664062 107.722656 271.507812 C 111.5625 273.429688 115.125 275.445312 117.539062 277.242188 C 118.75 278.140625 119.667969 278.996094 120.171875 279.671875 C 120.660156 280.324219 120.691406 280.660156 120.648438 280.828125 C 120.636719 280.832031 120.640625 280.832031 120.609375 280.847656 C 120.496094 280.90625 120.222656 280.996094 119.832031 281.046875 C 119.046875 281.144531 117.8125 281.097656 116.332031 280.902344 C 113.371094 280.515625 109.390625 279.574219 105.304688 278.449219 C 97.125 276.203125 88.566406 273.265625 85.929688 272.53125 C 85.785156 272.488281 85.632812 272.476562 85.484375 272.496094 C 85.332031 272.515625 85.1875 272.5625 85.054688 272.636719 C 84.921875 272.710938 84.808594 272.808594 84.714844 272.929688 C 84.621094 273.050781 84.550781 273.183594 84.511719 273.332031 C 84.46875 273.476562 84.457031 273.628906 84.476562 273.78125 C 84.496094 273.929688 84.542969 274.074219 84.617188 274.207031 C 84.691406 274.339844 84.789062 274.453125 84.910156 274.546875 C 85.03125 274.644531 85.164062 274.710938 85.3125 274.753906 C 87.644531 275.402344 96.417969 278.402344 104.691406 280.675781 C 108.832031 281.808594 112.863281 282.773438 116.03125 283.1875 C 117.617188 283.398438 118.980469 283.476562 120.117188 283.335938 C 120.6875 283.261719 121.207031 283.140625 121.6875 282.886719 C 122.171875 282.628906 122.632812 282.1875 122.832031 281.601562 C 123.226562 280.441406 122.753906 279.273438 122.019531 278.292969 C 121.289062 277.3125 120.226562 276.367188 118.914062 275.394531 C 116.292969 273.441406 112.65625 271.398438 108.753906 269.445312 C 100.949219 265.539062 92.140625 262.035156 88.589844 260.835938 Z M 88.589844 260.835938 "/><path style=" stroke:none;fill-rule:nonzero;fill:#000000;fill-opacity:1;" d="M 78.714844 222.839844 C 78.464844 222.8125 78.210938 222.8125 77.972656 222.84375 C 77.007812 222.972656 76.160156 223.445312 75.445312 224.0625 C 74.734375 224.679688 74.152344 225.457031 73.828125 226.347656 C 73.503906 227.238281 73.464844 228.335938 74.050781 229.253906 C 74.328125 229.691406 75.851562 232.308594 77.859375 235.804688 C 79.867188 239.300781 82.410156 243.753906 84.910156 248.136719 C 89.910156 256.898438 94.730469 265.386719 94.730469 265.386719 C 94.804688 265.519531 94.902344 265.632812 95.023438 265.726562 C 95.144531 265.820312 95.277344 265.886719 95.425781 265.929688 C 95.574219 265.96875 95.722656 265.980469 95.875 265.960938 C 96.027344 265.941406 96.167969 265.894531 96.300781 265.820312 C 96.433594 265.742188 96.546875 265.644531 96.640625 265.523438 C 96.734375 265.402344 96.804688 265.269531 96.84375 265.121094 C 96.882812 264.976562 96.894531 264.824219 96.875 264.671875 C 96.855469 264.523438 96.808594 264.378906 96.734375 264.246094 C 96.734375 264.246094 91.914062 255.757812 86.914062 246.992188 C 84.414062 242.609375 81.867188 238.15625 79.859375 234.65625 C 77.847656 231.15625 76.425781 228.695312 75.992188 228.015625 C 75.863281 227.8125 75.835938 227.5625 75.992188 227.132812 C 76.148438 226.707031 76.511719 226.191406 76.957031 225.804688 C 77.398438 225.421875 77.917969 225.179688 78.269531 225.132812 C 78.621094 225.085938 78.753906 225.109375 78.996094 225.40625 C 79.070312 225.496094 79.730469 226.492188 80.554688 227.859375 C 81.382812 229.226562 82.46875 231.0625 83.714844 233.199219 C 86.210938 237.476562 89.363281 242.964844 92.453125 248.378906 C 98.636719 259.210938 104.582031 269.746094 104.582031 269.746094 C 104.65625 269.878906 104.753906 269.992188 104.875 270.089844 C 104.992188 270.183594 105.128906 270.25 105.273438 270.292969 C 105.421875 270.332031 105.570312 270.34375 105.722656 270.324219 C 105.875 270.304688 106.015625 270.261719 106.152344 270.183594 C 106.285156 270.109375 106.398438 270.011719 106.492188 269.890625 C 106.585938 269.769531 106.652344 269.636719 106.695312 269.488281 C 106.734375 269.34375 106.746094 269.191406 106.726562 269.042969 C 106.710938 268.890625 106.664062 268.746094 106.585938 268.613281 C 106.585938 268.613281 100.640625 258.070312 94.457031 247.234375 C 91.363281 241.816406 88.207031 236.324219 85.707031 232.039062 C 84.457031 229.894531 83.367188 228.050781 82.527344 226.664062 C 81.6875 225.277344 81.1875 224.441406 80.78125 223.945312 C 80.242188 223.285156 79.472656 222.925781 78.714844 222.839844 Z M 78.714844 222.839844 "/><path style=" stroke:none;fill-rule:nonzero;fill:#000000;fill-opacity:1;" d="M 96.574219 241.609375 C 94.625 241.582031 92.625 241.804688 90.664062 242.324219 C 90.515625 242.359375 90.382812 242.425781 90.261719 242.519531 C 90.136719 242.613281 90.039062 242.726562 89.960938 242.855469 C 89.886719 242.988281 89.835938 243.132812 89.816406 243.28125 C 89.796875 243.433594 89.804688 243.582031 89.84375 243.730469 C 89.882812 243.878906 89.949219 244.015625 90.042969 244.136719 C 90.132812 244.257812 90.246094 244.355469 90.378906 244.433594 C 90.511719 244.511719 90.652344 244.558594 90.804688 244.578125 C 90.953125 244.601562 91.105469 244.589844 91.253906 244.550781 C 94.738281 243.632812 98.433594 243.761719 101.550781 244.632812 C 104.667969 245.507812 107.171875 247.136719 108.378906 248.996094 C 109.582031 250.847656 110.746094 255.875 111.140625 260.21875 C 111.335938 262.390625 111.371094 264.425781 111.238281 265.835938 C 111.191406 266.304688 111.117188 266.550781 111.046875 266.84375 C 110.6875 266.449219 110.242188 265.867188 109.742188 265.113281 C 108.679688 263.515625 107.414062 261.277344 106.183594 258.914062 C 103.71875 254.1875 101.34375 248.785156 100.855469 247.058594 C 100.8125 246.914062 100.746094 246.78125 100.652344 246.660156 C 100.554688 246.539062 100.441406 246.441406 100.308594 246.367188 C 100.175781 246.292969 100.03125 246.246094 99.878906 246.230469 C 99.730469 246.210938 99.578125 246.222656 99.433594 246.265625 C 99.285156 246.304688 99.152344 246.375 99.03125 246.46875 C 98.910156 246.5625 98.816406 246.679688 98.738281 246.8125 C 98.664062 246.945312 98.621094 247.085938 98.601562 247.238281 C 98.582031 247.390625 98.59375 247.539062 98.636719 247.6875 C 99.289062 250 101.628906 255.164062 104.140625 259.980469 C 105.394531 262.390625 106.679688 264.671875 107.824219 266.390625 C 108.394531 267.25 108.921875 267.96875 109.433594 268.519531 C 109.945312 269.070312 110.351562 269.632812 111.382812 269.613281 C 111.859375 269.605469 112.304688 269.347656 112.566406 269.070312 C 112.828125 268.792969 112.976562 268.496094 113.09375 268.191406 C 113.335938 267.578125 113.453125 266.878906 113.53125 266.054688 C 113.6875 264.410156 113.640625 262.28125 113.433594 260.007812 C 113.019531 255.460938 112.082031 250.464844 110.308594 247.738281 C 108.667969 245.210938 105.683594 243.398438 102.171875 242.414062 C 100.417969 241.921875 98.519531 241.640625 96.574219 241.609375 Z M 96.574219 241.609375 "/><path style=" stroke:none;fill-rule:nonzero;fill:#000000;fill-opacity:1;" d="M 113.625 288.824219 C 113.308594 288.796875 113.027344 288.882812 112.785156 289.085938 C 112.664062 289.183594 112.570312 289.300781 112.5 289.4375 C 112.429688 289.570312 112.386719 289.714844 112.375 289.867188 C 112.359375 290.019531 112.375 290.167969 112.421875 290.316406 C 112.46875 290.460938 112.539062 290.59375 112.636719 290.710938 L 116.953125 295.890625 C 117.125 296.09375 117.339844 296.222656 117.597656 296.277344 C 117.855469 296.332031 118.105469 296.304688 118.34375 296.1875 C 118.582031 296.070312 118.757812 295.894531 118.875 295.65625 C 118.992188 295.417969 119.023438 295.171875 118.96875 294.910156 L 117.871094 289.734375 C 117.839844 289.582031 117.78125 289.445312 117.695312 289.320312 C 117.609375 289.195312 117.5 289.089844 117.371094 289.003906 C 117.246094 288.921875 117.105469 288.867188 116.957031 288.839844 C 116.804688 288.8125 116.65625 288.8125 116.503906 288.84375 C 116.355469 288.875 116.21875 288.933594 116.09375 289.019531 C 115.964844 289.109375 115.863281 289.214844 115.777344 289.34375 C 115.695312 289.472656 115.640625 289.609375 115.609375 289.761719 C 115.582031 289.910156 115.585938 290.0625 115.617188 290.210938 L 115.75 290.847656 L 114.40625 289.234375 C 114.203125 288.988281 113.941406 288.851562 113.625 288.824219 Z M 113.625 288.824219 "/><path style=" stroke:none;fill-rule:nonzero;fill:#000000;fill-opacity:1;" d="M 1.269531 291.410156 C 1.117188 291.410156 0.96875 291.4375 0.828125 291.496094 C 0.6875 291.554688 0.5625 291.640625 0.457031 291.746094 C 0.347656 291.855469 0.265625 291.980469 0.207031 292.121094 C 0.148438 292.261719 0.117188 292.410156 0.117188 292.5625 C 0.117188 292.714844 0.148438 292.863281 0.207031 293.003906 C 0.265625 293.144531 0.347656 293.269531 0.457031 293.378906 C 0.5625 293.484375 0.6875 293.570312 0.828125 293.628906 C 0.96875 293.6875 1.117188 293.714844 1.269531 293.714844 L 27.503906 293.714844 C 27.65625 293.714844 27.804688 293.6875 27.945312 293.628906 C 28.085938 293.570312 28.210938 293.484375 28.316406 293.378906 C 28.425781 293.269531 28.507812 293.144531 28.566406 293.003906 C 28.625 292.863281 28.65625 292.714844 28.65625 292.5625 C 28.65625 292.410156 28.625 292.261719 28.566406 292.121094 C 28.507812 291.980469 28.425781 291.855469 28.320312 291.746094 C 28.210938 291.640625 28.085938 291.554688 27.945312 291.496094 C 27.804688 291.4375 27.65625 291.410156 27.503906 291.410156 Z M 1.269531 291.410156 "/><path style=" stroke:none;fill-rule:nonzero;fill:#000000;fill-opacity:1;" d="M 232.394531 181.839844 C 231.964844 181.898438 231.609375 182.054688 231.265625 182.25 C 230.578125 182.640625 229.929688 183.21875 229.226562 183.929688 C 227.820312 185.351562 226.246094 187.332031 224.675781 189.359375 C 223.105469 191.382812 221.550781 193.453125 220.265625 194.980469 C 219.625 195.746094 219.050781 196.375 218.613281 196.773438 C 218.324219 197.035156 218.078125 197.128906 218.035156 197.167969 C 217.332031 197.089844 215.875 196.324219 214.28125 194.957031 C 212.601562 193.511719 210.742188 191.539062 208.964844 189.582031 C 207.1875 187.625 205.496094 185.683594 204.074219 184.257812 C 203.367188 183.542969 202.734375 182.957031 202.125 182.53125 C 201.820312 182.316406 201.523438 182.140625 201.164062 182.019531 C 200.804688 181.898438 200.308594 181.828125 199.816406 182.066406 C 199.105469 182.40625 193.015625 185.445312 183.832031 190.035156 C 174.644531 194.625 162.4375 200.726562 149.746094 207.078125 C 124.355469 219.78125 97.015625 233.480469 87.945312 238.070312 C 87.808594 238.136719 87.691406 238.230469 87.59375 238.347656 C 87.492188 238.460938 87.417969 238.59375 87.371094 238.738281 C 87.324219 238.882812 87.304688 239.03125 87.316406 239.183594 C 87.328125 239.335938 87.367188 239.480469 87.4375 239.617188 C 87.507812 239.753906 87.597656 239.871094 87.714844 239.972656 C 87.832031 240.070312 87.960938 240.144531 88.105469 240.195312 C 88.253906 240.242188 88.402344 240.257812 88.554688 240.246094 C 88.707031 240.234375 88.851562 240.195312 88.988281 240.128906 C 98.039062 235.546875 125.386719 221.84375 150.777344 209.140625 C 163.46875 202.789062 175.675781 196.6875 184.859375 192.097656 C 193.894531 187.585938 199.847656 184.617188 200.550781 184.273438 C 200.617188 184.308594 200.671875 184.328125 200.804688 184.421875 C 201.195312 184.695312 201.777344 185.214844 202.441406 185.882812 C 203.769531 187.21875 205.464844 189.152344 207.257812 191.132812 C 209.054688 193.109375 210.957031 195.136719 212.78125 196.703125 C 214.601562 198.273438 216.289062 199.503906 218.167969 199.507812 C 219.15625 199.507812 219.585938 199.003906 220.164062 198.476562 C 220.738281 197.953125 221.359375 197.265625 222.03125 196.460938 C 223.382812 194.855469 224.941406 192.777344 226.496094 190.769531 C 228.054688 188.761719 229.609375 186.820312 230.867188 185.550781 C 231.492188 184.917969 232.058594 184.453125 232.410156 184.253906 C 232.523438 184.1875 232.546875 184.1875 232.59375 184.171875 C 233.09375 184.535156 236.082031 186.832031 240.523438 190.296875 C 245.058594 193.832031 251.0625 198.542969 257.484375 203.621094 C 270.328125 213.78125 284.847656 225.425781 292.542969 232.070312 C 292.660156 232.171875 292.789062 232.246094 292.933594 232.292969 C 293.078125 232.339844 293.226562 232.359375 293.382812 232.347656 C 293.535156 232.335938 293.675781 232.296875 293.8125 232.226562 C 293.949219 232.160156 294.070312 232.066406 294.167969 231.953125 C 294.269531 231.835938 294.34375 231.703125 294.390625 231.558594 C 294.4375 231.414062 294.457031 231.265625 294.445312 231.113281 C 294.433594 230.960938 294.394531 230.816406 294.324219 230.679688 C 294.257812 230.542969 294.164062 230.425781 294.050781 230.324219 C 286.273438 223.613281 271.765625 211.980469 258.914062 201.8125 C 252.488281 196.730469 246.480469 192.015625 241.941406 188.476562 C 237.402344 184.9375 234.441406 182.648438 233.761719 182.164062 C 233.355469 181.875 232.824219 181.785156 232.394531 181.839844 Z M 83.09375 240.933594 C 82.789062 240.839844 82.496094 240.871094 82.214844 241.019531 C 71.292969 246.863281 56.972656 255.949219 45.683594 264.570312 C 40.039062 268.882812 35.160156 273.070312 31.820312 276.726562 C 30.152344 278.558594 28.863281 280.25 28.050781 281.824219 C 27.238281 283.402344 26.851562 284.949219 27.390625 286.367188 C 27.761719 287.347656 28.605469 287.9375 29.558594 288.367188 C 30.511719 288.796875 31.65625 289.089844 32.960938 289.316406 C 35.574219 289.769531 38.832031 289.933594 42.164062 289.964844 C 48.824219 290.027344 55.882812 289.550781 57.800781 289.578125 C 59.1875 289.59375 60.378906 288.828125 61.023438 287.785156 C 61.664062 286.742188 61.988281 285.496094 62.40625 284.015625 C 63.238281 281.054688 64.316406 277.144531 67.542969 272.691406 C 67.632812 272.566406 67.695312 272.429688 67.730469 272.28125 C 67.765625 272.132812 67.773438 271.980469 67.75 271.832031 C 67.722656 271.679688 67.671875 271.539062 67.59375 271.410156 C 67.511719 271.277344 67.410156 271.167969 67.285156 271.078125 C 67.164062 270.988281 67.027344 270.925781 66.878906 270.890625 C 66.730469 270.855469 66.578125 270.851562 66.429688 270.875 C 66.277344 270.898438 66.136719 270.949219 66.007812 271.03125 C 65.875 271.109375 65.765625 271.210938 65.675781 271.335938 C 62.214844 276.117188 61.015625 280.441406 60.1875 283.390625 C 59.773438 284.867188 59.417969 285.992188 59.058594 286.578125 C 58.699219 287.164062 58.566406 287.28125 57.828125 287.269531 C 55.5 287.238281 48.71875 287.71875 42.183594 287.65625 C 38.917969 287.625 35.738281 287.457031 33.355469 287.042969 C 32.164062 286.839844 31.171875 286.566406 30.507812 286.265625 C 29.84375 285.964844 29.585938 285.660156 29.542969 285.546875 C 29.355469 285.050781 29.441406 284.160156 30.097656 282.878906 C 30.757812 281.601562 31.933594 280.023438 33.523438 278.28125 C 36.699219 274.804688 41.503906 270.667969 47.082031 266.40625 C 58.242188 257.878906 72.519531 248.824219 83.300781 243.054688 C 83.4375 242.980469 83.550781 242.886719 83.648438 242.769531 C 83.746094 242.648438 83.816406 242.519531 83.859375 242.371094 C 83.90625 242.226562 83.917969 242.074219 83.902344 241.925781 C 83.890625 241.773438 83.847656 241.628906 83.773438 241.492188 C 83.625 241.210938 83.394531 241.027344 83.089844 240.933594 Z M 83.09375 240.933594 "/><path style=" stroke:none;fill-rule:nonzero;fill:#000000;fill-opacity:1;" d="M 111.421875 267.308594 C 111.269531 267.300781 111.121094 267.320312 110.976562 267.371094 C 110.832031 267.421875 110.703125 267.496094 110.585938 267.597656 C 110.472656 267.699219 110.382812 267.820312 110.316406 267.957031 C 110.25 268.09375 110.210938 268.238281 110.203125 268.390625 C 110.203125 268.390625 110.085938 270.332031 110.011719 271.933594 C 110.003906 272.085938 110.027344 272.234375 110.078125 272.378906 C 110.128906 272.523438 110.207031 272.652344 110.3125 272.765625 C 110.414062 272.878906 110.535156 272.964844 110.671875 273.03125 C 110.8125 273.097656 110.957031 273.132812 111.109375 273.140625 C 111.261719 273.148438 111.410156 273.125 111.554688 273.074219 C 111.699219 273.019531 111.824219 272.941406 111.9375 272.839844 C 112.050781 272.738281 112.140625 272.617188 112.207031 272.476562 C 112.269531 272.339844 112.308594 272.195312 112.3125 272.042969 C 112.386719 270.460938 112.503906 268.53125 112.503906 268.53125 C 112.511719 268.378906 112.492188 268.230469 112.441406 268.085938 C 112.390625 267.941406 112.316406 267.808594 112.214844 267.695312 C 112.113281 267.582031 111.992188 267.492188 111.855469 267.425781 C 111.71875 267.355469 111.574219 267.320312 111.421875 267.308594 Z M 111.421875 267.308594 "/><path style=" stroke:none;fill-rule:nonzero;fill:#000000;fill-opacity:1;" d="M 121.523438 280.769531 C 121.378906 280.722656 121.230469 280.703125 121.078125 280.710938 C 120.925781 280.722656 120.78125 280.761719 120.644531 280.828125 C 120.507812 280.894531 120.386719 280.988281 120.289062 281.101562 C 120.1875 281.21875 120.113281 281.347656 120.0625 281.492188 C 120.015625 281.636719 119.996094 281.785156 120.003906 281.9375 C 120.015625 282.089844 120.054688 282.234375 120.121094 282.375 C 120.191406 282.511719 120.28125 282.628906 120.394531 282.730469 C 120.511719 282.832031 120.640625 282.90625 120.785156 282.953125 C 122.292969 283.464844 122.921875 284.726562 123.601562 286.246094 C 123.941406 287.007812 124.257812 287.800781 124.777344 288.519531 C 125.292969 289.238281 126.15625 289.902344 127.230469 289.96875 C 128.125 290.019531 132.449219 290.097656 139.039062 290.289062 C 145.625 290.480469 154.332031 290.773438 163.496094 291.21875 C 181.820312 292.113281 202.113281 293.6875 210.570312 296.15625 C 210.714844 296.199219 210.867188 296.210938 211.019531 296.195312 C 211.167969 296.179688 211.3125 296.132812 211.445312 296.058594 C 211.582031 295.984375 211.695312 295.890625 211.792969 295.769531 C 211.886719 295.652344 211.957031 295.519531 212 295.371094 C 212.042969 295.222656 212.054688 295.074219 212.039062 294.921875 C 212.023438 294.769531 211.976562 294.628906 211.902344 294.492188 C 211.828125 294.359375 211.734375 294.246094 211.613281 294.148438 C 211.496094 294.054688 211.363281 293.984375 211.214844 293.941406 C 202.082031 291.273438 181.976562 289.8125 163.605469 288.917969 C 154.421875 288.46875 145.703125 288.175781 139.105469 287.984375 C 132.507812 287.792969 127.878906 287.695312 127.367188 287.664062 C 127.042969 287.644531 126.929688 287.5625 126.644531 287.171875 C 126.363281 286.78125 126.058594 286.097656 125.707031 285.304688 C 125 283.726562 123.964844 281.59375 121.523438 280.769531 Z M 121.523438 280.769531 "/><path style=" stroke:none;fill-rule:nonzero;fill:#000000;fill-opacity:1;" d="M 272.015625 277.566406 C 241.078125 279.171875 219.386719 288.007812 208.035156 293.402344 C 207.894531 293.464844 207.777344 293.554688 207.671875 293.667969 C 207.570312 293.78125 207.492188 293.910156 207.441406 294.054688 C 207.390625 294.199219 207.371094 294.347656 207.378906 294.5 C 207.386719 294.652344 207.421875 294.796875 207.488281 294.9375 C 207.554688 295.074219 207.640625 295.195312 207.753906 295.296875 C 207.867188 295.398438 207.996094 295.476562 208.140625 295.527344 C 208.285156 295.578125 208.433594 295.601562 208.585938 295.59375 C 208.738281 295.585938 208.882812 295.550781 209.023438 295.484375 C 220.226562 290.160156 241.578125 281.457031 272.136719 279.871094 C 272.289062 279.863281 272.433594 279.824219 272.574219 279.757812 C 272.710938 279.695312 272.832031 279.605469 272.933594 279.492188 C 273.035156 279.375 273.113281 279.246094 273.164062 279.105469 C 273.214844 278.960938 273.234375 278.8125 273.226562 278.660156 C 273.21875 278.507812 273.183594 278.359375 273.117188 278.222656 C 273.050781 278.085938 272.960938 277.964844 272.847656 277.863281 C 272.734375 277.757812 272.605469 277.683594 272.460938 277.632812 C 272.316406 277.582031 272.171875 277.558594 272.015625 277.566406 Z M 272.015625 277.566406 "/><path style=" stroke:none;fill-rule:nonzero;fill:#000000;fill-opacity:1;" d="M 236.367188 88.207031 C 236.136719 88.210938 235.910156 88.234375 235.675781 88.292969 C 235.210938 88.40625 234.683594 88.726562 234.410156 89.230469 C 233.914062 90.136719 234.203125 91.058594 234.59375 91.847656 C 234.984375 92.640625 235.578125 93.441406 236.316406 94.304688 C 237.785156 96.023438 239.835938 97.945312 241.933594 99.773438 C 242.234375 100.035156 242.523438 100.269531 242.824219 100.523438 C 241.089844 99.738281 239.242188 98.917969 237.367188 98.121094 C 233.742188 96.582031 230.082031 95.160156 227.191406 94.332031 C 225.742188 93.917969 224.5 93.648438 223.445312 93.613281 C 222.917969 93.59375 222.429688 93.621094 221.933594 93.808594 C 221.441406 93.996094 220.902344 94.457031 220.726562 95.0625 C 220.414062 96.140625 220.894531 97.011719 221.476562 97.902344 C 222.054688 98.792969 222.878906 99.742188 223.882812 100.761719 C 225.886719 102.804688 228.597656 105.113281 231.34375 107.304688 C 232.640625 108.339844 233.933594 109.339844 235.167969 110.277344 C 233.582031 109.6875 231.886719 109.082031 230.171875 108.507812 C 226.78125 107.367188 223.351562 106.359375 220.589844 105.898438 C 219.210938 105.667969 218.003906 105.5625 216.960938 105.695312 C 216.441406 105.761719 215.949219 105.886719 215.492188 106.15625 C 215.035156 106.425781 214.617188 106.894531 214.449219 107.453125 C 214.09375 108.652344 214.730469 109.644531 215.507812 110.566406 C 216.28125 111.484375 217.367188 112.425781 218.6875 113.429688 C 221.019531 115.199219 224.101562 117.117188 227.265625 118.96875 C 225.316406 118.332031 223.4375 117.757812 221.851562 117.398438 C 220.554688 117.105469 219.449219 116.921875 218.507812 116.941406 C 218.035156 116.949219 217.597656 116.992188 217.144531 117.195312 C 216.691406 117.398438 216.199219 117.890625 216.082031 118.480469 C 215.964844 119.097656 216.171875 119.601562 216.414062 120.011719 C 216.65625 120.425781 216.972656 120.792969 217.359375 121.179688 C 218.128906 121.957031 219.191406 122.792969 220.480469 123.710938 C 223.0625 125.550781 226.566406 127.703125 230.261719 129.914062 C 233.957031 132.125 237.839844 134.386719 241.148438 136.40625 C 244.457031 138.429688 247.214844 140.246094 248.5 141.394531 C 251.152344 143.757812 257.679688 151.472656 265.054688 163.847656 C 272.429688 176.222656 280.738281 193.324219 287.289062 214.710938 C 292.484375 231.683594 296.433594 246.847656 298.402344 257.648438 C 299.386719 263.046875 299.867188 267.371094 299.789062 270.179688 C 299.746094 271.585938 299.542969 272.613281 299.316406 273.109375 C 299.203125 273.359375 299.097656 273.457031 299.0625 273.480469 C 299.027344 273.507812 299.050781 273.511719 298.949219 273.5 C 288.542969 272.574219 276.234375 273.714844 265.402344 275.566406 C 254.574219 277.417969 245.292969 279.945312 240.746094 281.980469 C 240.609375 282.042969 240.484375 282.128906 240.382812 282.238281 C 240.277344 282.351562 240.195312 282.476562 240.140625 282.621094 C 240.085938 282.765625 240.0625 282.910156 240.066406 283.0625 C 240.070312 283.21875 240.105469 283.363281 240.167969 283.503906 C 240.230469 283.640625 240.316406 283.765625 240.425781 283.871094 C 240.539062 283.976562 240.664062 284.054688 240.808594 284.109375 C 240.949219 284.164062 241.097656 284.1875 241.25 284.183594 C 241.40625 284.179688 241.550781 284.148438 241.691406 284.085938 C 245.800781 282.242188 255.09375 279.667969 265.792969 277.839844 C 276.488281 276.011719 288.667969 274.902344 298.742188 275.796875 C 299.3125 275.847656 299.921875 275.699219 300.390625 275.367188 C 300.859375 275.035156 301.179688 274.578125 301.410156 274.070312 C 301.875 273.0625 302.046875 271.8125 302.09375 270.246094 C 302.179688 267.113281 301.667969 262.710938 300.667969 257.234375 C 298.671875 246.273438 294.707031 231.0625 289.492188 214.035156 C 282.882812 192.453125 274.496094 175.191406 267.035156 162.667969 C 259.570312 150.140625 253.117188 142.417969 250.035156 139.671875 C 248.453125 138.261719 245.6875 136.480469 242.351562 134.4375 C 239.011719 132.398438 235.121094 130.136719 231.441406 127.933594 C 227.765625 125.734375 224.289062 123.59375 221.816406 121.832031 C 220.582031 120.953125 219.59375 120.160156 218.992188 119.554688 C 218.867188 119.429688 218.839844 119.367188 218.75 119.261719 C 219.347656 119.277344 220.242188 119.398438 221.339844 119.648438 C 223.746094 120.195312 227 121.25 230.230469 122.40625 C 236.691406 124.722656 243.09375 127.457031 243.09375 127.457031 C 243.234375 127.515625 243.378906 127.542969 243.527344 127.546875 C 243.675781 127.546875 243.820312 127.523438 243.960938 127.46875 C 244.101562 127.414062 244.226562 127.335938 244.332031 127.230469 C 244.441406 127.128906 244.527344 127.007812 244.589844 126.871094 C 244.652344 126.734375 244.6875 126.59375 244.695312 126.445312 C 244.699219 126.292969 244.679688 126.148438 244.628906 126.007812 C 244.578125 125.867188 244.503906 125.738281 244.402344 125.628906 C 244.304688 125.515625 244.1875 125.425781 244.054688 125.359375 C 244.054688 125.359375 236.757812 121.796875 229.640625 117.707031 C 226.085938 115.664062 222.570312 113.484375 220.082031 111.59375 C 218.835938 110.648438 217.847656 109.765625 217.269531 109.078125 C 216.730469 108.441406 216.703125 108.097656 216.671875 108.140625 C 216.746094 108.097656 216.941406 108.023438 217.253906 107.984375 C 217.890625 107.902344 218.949219 107.964844 220.210938 108.175781 C 222.734375 108.597656 226.105469 109.574219 229.4375 110.691406 C 236.105469 112.929688 242.640625 115.710938 242.640625 115.710938 C 242.910156 115.828125 243.1875 115.835938 243.464844 115.738281 C 243.742188 115.644531 243.953125 115.464844 244.097656 115.207031 C 244.242188 114.949219 244.277344 114.675781 244.210938 114.390625 C 244.144531 114.101562 243.992188 113.875 243.75 113.703125 C 243.75 113.703125 238.191406 109.828125 232.78125 105.503906 C 230.078125 103.339844 227.410156 101.0625 225.527344 99.144531 C 224.585938 98.1875 223.84375 97.3125 223.40625 96.644531 C 223.210938 96.339844 223.125 96.113281 223.066406 95.941406 C 223.171875 95.929688 223.195312 95.910156 223.363281 95.917969 C 224.058594 95.941406 225.203125 96.164062 226.558594 96.550781 C 229.269531 97.324219 232.882812 98.726562 236.464844 100.246094 C 243.628906 103.285156 250.679688 106.792969 250.679688 106.792969 C 250.949219 106.925781 251.226562 106.953125 251.511719 106.871094 C 251.800781 106.785156 252.019531 106.617188 252.175781 106.363281 C 252.332031 106.109375 252.382812 105.835938 252.324219 105.542969 C 252.269531 105.25 252.121094 105.015625 251.882812 104.835938 C 251.882812 104.835938 247.550781 101.613281 243.449219 98.035156 C 241.394531 96.246094 239.398438 94.363281 238.066406 92.804688 C 237.402344 92.023438 236.902344 91.320312 236.660156 90.824219 C 236.585938 90.679688 236.582031 90.625 236.554688 90.539062 C 236.632812 90.539062 236.636719 90.527344 236.742188 90.542969 C 237.320312 90.621094 238.257812 90.910156 239.371094 91.371094 C 241.597656 92.292969 244.5625 93.890625 247.613281 95.726562 C 253.71875 99.394531 260.292969 104.136719 262.289062 106.167969 C 275.507812 119.617188 292.046875 145.683594 307.832031 178.15625 C 323.621094 210.625 338.699219 249.523438 349.207031 288.753906 C 349.246094 288.902344 349.3125 289.035156 349.40625 289.160156 C 349.496094 289.28125 349.609375 289.378906 349.742188 289.453125 C 349.875 289.53125 350.015625 289.578125 350.167969 289.601562 C 350.320312 289.621094 350.46875 289.609375 350.617188 289.570312 C 350.765625 289.53125 350.898438 289.464844 351.019531 289.371094 C 351.140625 289.277344 351.238281 289.164062 351.316406 289.03125 C 351.394531 288.902344 351.441406 288.757812 351.460938 288.605469 C 351.480469 288.457031 351.472656 288.304688 351.433594 288.15625 C 340.878906 248.765625 325.757812 209.75 309.90625 177.148438 C 294.054688 144.542969 277.519531 118.375 263.933594 104.550781 C 261.46875 102.042969 255.019531 97.488281 248.800781 93.75 C 245.695312 91.878906 242.675781 90.246094 240.253906 89.242188 C 239.042969 88.738281 237.992188 88.386719 237.058594 88.257812 C 236.824219 88.226562 236.59375 88.207031 236.367188 88.207031 Z M 216.660156 108.113281 C 216.660156 108.113281 216.660156 108.113281 216.660156 108.117188 C 216.660156 108.117188 216.660156 108.113281 216.660156 108.117188 Z M 216.660156 108.113281 "/><path style=" stroke:none;fill-rule:nonzero;fill:#000000;fill-opacity:1;" d="M 180.484375 134.972656 C 180.332031 134.992188 180.191406 135.039062 180.058594 135.113281 C 179.925781 135.1875 179.8125 135.289062 179.71875 135.410156 C 179.625 135.53125 179.554688 135.664062 179.515625 135.8125 C 179.476562 135.957031 179.464844 136.109375 179.484375 136.257812 C 180.160156 141.625 181.457031 147.035156 183.289062 152.203125 C 186.464844 161.144531 191.246094 169.355469 197.300781 175.257812 C 203.359375 181.164062 210.757812 184.765625 218.964844 184.253906 C 228.261719 183.671875 235.621094 177.171875 240.300781 168.28125 C 244.984375 159.394531 247.101562 148.046875 246.007812 137.253906 C 245.992188 137.101562 245.949219 136.957031 245.875 136.824219 C 245.804688 136.6875 245.707031 136.574219 245.589844 136.476562 C 245.46875 136.378906 245.339844 136.308594 245.191406 136.265625 C 245.046875 136.222656 244.894531 136.207031 244.742188 136.222656 C 244.59375 136.238281 244.449219 136.28125 244.3125 136.355469 C 244.179688 136.425781 244.0625 136.523438 243.96875 136.640625 C 243.871094 136.757812 243.800781 136.890625 243.757812 137.039062 C 243.710938 137.183594 243.699219 137.332031 243.714844 137.484375 C 244.761719 147.816406 242.699219 158.785156 238.261719 167.207031 C 233.824219 175.628906 227.125 181.433594 218.820312 181.953125 C 211.367188 182.417969 204.632812 179.1875 198.910156 173.605469 C 193.1875 168.027344 188.539062 160.101562 185.460938 151.429688 C 183.683594 146.417969 182.425781 141.160156 181.769531 135.96875 C 181.75 135.820312 181.703125 135.675781 181.628906 135.542969 C 181.550781 135.410156 181.453125 135.296875 181.332031 135.203125 C 181.210938 135.109375 181.078125 135.042969 180.929688 135.003906 C 180.785156 134.960938 180.632812 134.953125 180.484375 134.972656 Z M 180.484375 134.972656 "/><path style=" stroke:none;fill-rule:nonzero;fill:#000000;fill-opacity:1;" d="M 196.726562 100.710938 C 196.40625 100.671875 195.894531 100.839844 195.640625 101.121094 C 195.390625 101.40625 195.34375 101.660156 195.316406 101.84375 C 192.246094 121.875 188.003906 130.539062 184.226562 133.5 C 182.339844 134.980469 180.613281 135.183594 178.789062 134.835938 C 176.960938 134.484375 175.085938 133.480469 173.347656 132.445312 C 170.671875 130.847656 167.789062 131.019531 165.859375 132.570312 C 163.933594 134.121094 163.039062 136.898438 163.703125 140 C 164.710938 144.738281 168.070312 148.648438 172.082031 151.046875 C 176.09375 153.449219 180.835938 154.410156 184.789062 152.894531 C 184.933594 152.839844 185.058594 152.757812 185.167969 152.652344 C 185.28125 152.546875 185.367188 152.425781 185.429688 152.285156 C 185.492188 152.144531 185.523438 152 185.527344 151.847656 C 185.53125 151.695312 185.507812 151.546875 185.453125 151.402344 C 185.398438 151.261719 185.316406 151.132812 185.210938 151.023438 C 185.105469 150.910156 184.984375 150.824219 184.84375 150.761719 C 184.707031 150.699219 184.558594 150.667969 184.40625 150.664062 C 184.253906 150.660156 184.105469 150.683594 183.964844 150.738281 C 180.914062 151.910156 176.8125 151.195312 173.265625 149.070312 C 169.714844 146.945312 166.800781 143.480469 165.957031 139.519531 C 165.4375 137.089844 166.148438 135.296875 167.304688 134.367188 C 168.460938 133.4375 170.132812 133.210938 172.167969 134.425781 C 173.960938 135.496094 176.035156 136.652344 178.351562 137.097656 C 180.667969 137.546875 183.265625 137.183594 185.648438 135.316406 C 190.242188 131.714844 194.191406 122.976562 197.246094 104.226562 C 198.207031 105.445312 199.597656 107.273438 201.394531 109.324219 C 205.097656 113.542969 210.46875 118.644531 217.382812 121 C 217.527344 121.050781 217.675781 121.070312 217.828125 121.058594 C 217.980469 121.050781 218.125 121.011719 218.261719 120.945312 C 218.398438 120.878906 218.519531 120.785156 218.621094 120.671875 C 218.71875 120.554688 218.796875 120.425781 218.84375 120.28125 C 218.894531 120.136719 218.914062 119.988281 218.902344 119.835938 C 218.894531 119.683594 218.855469 119.539062 218.789062 119.402344 C 218.722656 119.265625 218.628906 119.144531 218.515625 119.042969 C 218.398438 118.941406 218.269531 118.867188 218.125 118.820312 C 211.835938 116.671875 206.703125 111.878906 203.128906 107.800781 C 201.339844 105.765625 199.945312 103.917969 198.953125 102.664062 C 198.453125 102.035156 198.085938 101.566406 197.691406 101.207031 C 197.492188 101.027344 197.367188 100.78125 196.726562 100.710938 Z M 196.132812 102.90625 C 196.136719 102.90625 196.144531 102.921875 196.148438 102.921875 C 196.085938 102.890625 196.09375 102.867188 196.132812 102.90625 Z M 196.132812 102.90625 "/><path style=" stroke:none;fill-rule:nonzero;fill:#000000;fill-opacity:1;" d="M 203.808594 49.523438 C 196.726562 49.691406 189.242188 54.382812 185.304688 65.039062 C 175.929688 62.007812 165.703125 64.785156 159.535156 70.089844 C 156.328125 72.84375 154.179688 76.34375 154.015625 80.144531 C 153.867188 83.546875 155.386719 87.066406 158.820312 90.21875 C 145.777344 97.8125 141.117188 106.339844 141.839844 112.878906 C 142.214844 116.265625 144.089844 119.046875 146.839844 120.601562 C 148.917969 121.773438 151.46875 122.246094 154.214844 121.878906 C 151.171875 127.59375 151.542969 132.28125 153.78125 135.441406 C 156.324219 139.027344 160.898438 140.554688 164.824219 140.105469 C 164.976562 140.089844 165.117188 140.042969 165.25 139.96875 C 165.386719 139.894531 165.5 139.796875 165.59375 139.679688 C 165.691406 139.558594 165.757812 139.425781 165.800781 139.277344 C 165.84375 139.132812 165.855469 138.980469 165.835938 138.832031 C 165.820312 138.679688 165.773438 138.535156 165.699219 138.402344 C 165.625 138.269531 165.527344 138.152344 165.410156 138.058594 C 165.289062 137.964844 165.15625 137.894531 165.007812 137.851562 C 164.863281 137.8125 164.714844 137.796875 164.5625 137.816406 C 161.453125 138.171875 157.605469 136.847656 155.664062 134.109375 C 153.722656 131.367188 153.328125 127.109375 157.542969 120.796875 C 157.679688 120.59375 157.742188 120.367188 157.734375 120.121094 C 157.726562 119.875 157.652344 119.65625 157.503906 119.460938 C 157.355469 119.265625 157.164062 119.128906 156.929688 119.054688 C 156.695312 118.984375 156.460938 118.984375 156.226562 119.058594 C 152.980469 120.121094 150.101562 119.792969 147.972656 118.59375 C 145.84375 117.390625 144.429688 115.328125 144.132812 112.625 C 143.535156 107.214844 147.65625 98.960938 161.355469 91.417969 C 161.523438 91.324219 161.660156 91.195312 161.765625 91.03125 C 161.871094 90.871094 161.929688 90.691406 161.949219 90.5 C 161.964844 90.308594 161.933594 90.121094 161.855469 89.945312 C 161.777344 89.769531 161.664062 89.621094 161.511719 89.5 C 157.578125 86.402344 156.1875 83.234375 156.316406 80.246094 C 156.445312 77.257812 158.175781 74.296875 161.039062 71.835938 C 166.757812 66.917969 176.839844 64.277344 185.597656 67.5625 C 185.742188 67.621094 185.894531 67.644531 186.050781 67.636719 C 186.207031 67.628906 186.355469 67.59375 186.496094 67.527344 C 186.640625 67.457031 186.761719 67.367188 186.863281 67.25 C 186.96875 67.132812 187.046875 67 187.09375 66.851562 C 190.683594 56.097656 197.527344 51.980469 203.863281 51.828125 C 210.203125 51.679688 216.070312 55.609375 217.730469 61.53125 C 217.78125 61.710938 217.871094 61.871094 217.996094 62.007812 C 218.125 62.144531 218.277344 62.242188 218.453125 62.308594 C 218.628906 62.371094 218.808594 62.390625 218.992188 62.363281 C 219.179688 62.339844 219.347656 62.273438 219.5 62.167969 C 226.617188 57.191406 234.691406 57.953125 240.214844 61.484375 C 242.980469 63.25 245.074219 65.707031 246.09375 68.449219 C 247.109375 71.191406 247.09375 74.210938 245.558594 77.335938 C 245.480469 77.496094 245.441406 77.667969 245.441406 77.847656 C 245.445312 78.027344 245.484375 78.195312 245.5625 78.355469 C 245.644531 78.515625 245.753906 78.652344 245.898438 78.761719 C 246.042969 78.871094 246.199219 78.941406 246.378906 78.972656 C 253.503906 80.347656 257.605469 84.636719 258.707031 88.578125 C 259.257812 90.550781 259.070312 92.40625 258.207031 93.871094 C 257.347656 95.335938 255.800781 96.484375 253.289062 96.957031 C 253.140625 96.984375 253 97.039062 252.871094 97.125 C 252.746094 97.207031 252.636719 97.3125 252.550781 97.4375 C 252.464844 97.5625 252.40625 97.703125 252.375 97.851562 C 252.34375 98 252.339844 98.152344 252.371094 98.300781 C 252.398438 98.453125 252.453125 98.589844 252.535156 98.71875 C 252.621094 98.847656 252.726562 98.953125 252.851562 99.039062 C 252.976562 99.128906 253.117188 99.1875 253.265625 99.21875 C 253.414062 99.25 253.5625 99.25 253.714844 99.222656 C 256.746094 98.652344 258.976562 97.113281 260.195312 95.039062 C 261.417969 92.964844 261.617188 90.429688 260.925781 87.957031 C 259.628906 83.320312 255.203125 78.84375 248.183594 77.058594 C 249.414062 73.816406 249.332031 70.546875 248.253906 67.644531 C 247.035156 64.359375 244.589844 61.542969 241.457031 59.542969 C 235.527344 55.75 227.027344 54.867188 219.453125 59.457031 C 217 53.273438 210.613281 49.363281 203.808594 49.523438 Z M 203.808594 49.523438 "/><path style=" stroke:none;fill-rule:nonzero;fill:#000000;fill-opacity:1;" d="M 240.613281 187.550781 C 240.46875 187.507812 240.316406 187.496094 240.164062 187.511719 C 240.015625 187.53125 239.871094 187.578125 239.738281 187.652344 C 239.605469 187.726562 239.488281 187.820312 239.394531 187.941406 C 239.300781 188.0625 239.230469 188.195312 239.1875 188.339844 C 239.1875 188.339844 237.359375 194.734375 235.265625 201.226562 C 234.21875 204.472656 233.105469 207.742188 232.132812 210.222656 C 231.644531 211.464844 231.191406 212.511719 230.816406 213.230469 C 230.644531 213.558594 230.5 213.796875 230.386719 213.957031 C 230.359375 213.945312 230.363281 213.953125 230.328125 213.9375 C 230.054688 213.785156 229.625 213.46875 229.144531 213.039062 C 228.183594 212.179688 226.992188 210.886719 225.796875 209.570312 C 224.601562 208.253906 223.398438 206.90625 222.3125 205.878906 C 221.773438 205.363281 221.261719 204.925781 220.746094 204.597656 C 220.226562 204.265625 219.671875 203.9375 218.859375 204.109375 C 218.179688 204.257812 217.757812 204.695312 217.433594 205.132812 C 217.109375 205.566406 216.855469 206.0625 216.613281 206.613281 C 216.128906 207.710938 215.699219 209.03125 215.246094 210.320312 C 214.792969 211.609375 214.316406 212.867188 213.828125 213.730469 C 213.410156 214.464844 213.070312 214.734375 212.886719 214.824219 C 212.769531 214.722656 212.601562 214.5625 212.386719 214.289062 C 211.90625 213.675781 211.292969 212.6875 210.621094 211.484375 C 209.285156 209.070312 207.695312 205.765625 206.058594 202.449219 C 204.417969 199.136719 202.726562 195.8125 201.121094 193.285156 C 200.316406 192.023438 199.542969 190.957031 198.742188 190.164062 C 197.941406 189.367188 197.0625 188.714844 195.917969 188.824219 C 195.238281 188.890625 194.722656 189.125 193.773438 189.503906 C 192.820312 189.878906 191.589844 190.40625 190.105469 191.066406 C 187.132812 192.390625 183.148438 194.253906 178.488281 196.472656 C 169.167969 200.910156 157.140625 206.78125 145.152344 212.640625 C 133.167969 218.5 121.222656 224.351562 112.074219 228.738281 C 107.5 230.929688 103.628906 232.757812 100.804688 234.035156 C 99.394531 234.675781 98.246094 235.175781 97.417969 235.511719 C 97 235.679688 96.667969 235.808594 96.433594 235.886719 C 96.199219 235.964844 95.988281 235.976562 96.207031 235.96875 C 96.042969 235.972656 96.082031 235.957031 95.953125 235.953125 C 95.972656 235.6875 95.90625 235.445312 95.757812 235.222656 C 95.667969 235.101562 95.558594 234.996094 95.429688 234.917969 C 95.300781 234.835938 95.160156 234.78125 95.007812 234.757812 C 94.859375 234.730469 94.710938 234.738281 94.558594 234.773438 C 94.410156 234.804688 94.273438 234.867188 94.148438 234.957031 C 94.148438 234.957031 93.960938 235.089844 93.765625 235.285156 C 93.570312 235.480469 93.273438 235.722656 93.167969 236.351562 C 93.113281 236.667969 93.183594 237.117188 93.410156 237.441406 C 93.640625 237.761719 93.941406 237.9375 94.222656 238.046875 C 94.789062 238.265625 95.382812 238.300781 96.273438 238.273438 C 96.699219 238.261719 96.863281 238.175781 97.171875 238.070312 C 97.476562 237.96875 97.84375 237.828125 98.285156 237.648438 C 99.164062 237.292969 100.332031 236.78125 101.757812 236.136719 C 104.609375 234.84375 108.492188 233.011719 113.074219 230.816406 C 122.234375 226.421875 134.183594 220.570312 146.167969 214.710938 C 158.152344 208.851562 170.175781 202.980469 179.480469 198.550781 C 184.132812 196.339844 188.105469 194.484375 191.042969 193.175781 C 192.511719 192.519531 193.722656 192 194.621094 191.644531 C 195.519531 191.292969 196.25 191.109375 196.140625 191.121094 C 196.128906 191.121094 196.527344 191.210938 197.117188 191.796875 C 197.707031 192.382812 198.425781 193.339844 199.179688 194.523438 C 200.683594 196.894531 202.363281 200.175781 203.992188 203.472656 C 205.625 206.769531 207.210938 210.085938 208.609375 212.601562 C 209.308594 213.859375 209.949219 214.914062 210.574219 215.710938 C 210.886719 216.109375 211.1875 216.445312 211.546875 216.71875 C 211.90625 216.992188 212.375 217.261719 213 217.199219 C 214.375 217.058594 215.203125 215.984375 215.835938 214.867188 C 216.464844 213.746094 216.960938 212.402344 217.421875 211.085938 C 217.886719 209.765625 218.316406 208.46875 218.722656 207.542969 C 218.929688 207.082031 219.132812 206.710938 219.28125 206.511719 C 219.304688 206.476562 219.308594 206.480469 219.328125 206.457031 C 219.382812 206.480469 219.417969 206.480469 219.507812 206.539062 C 219.808594 206.730469 220.246094 207.089844 220.730469 207.550781 C 221.703125 208.472656 222.890625 209.796875 224.09375 211.121094 C 225.292969 212.445312 226.5 213.769531 227.609375 214.757812 C 228.160156 215.253906 228.683594 215.667969 229.234375 215.964844 C 229.785156 216.261719 230.46875 216.527344 231.246094 216.214844 C 231.785156 216 231.980469 215.699219 232.207031 215.386719 C 232.433594 215.078125 232.644531 214.714844 232.863281 214.292969 C 233.304688 213.445312 233.773438 212.347656 234.277344 211.066406 C 235.285156 208.5 236.40625 205.203125 237.460938 201.933594 C 239.570312 195.394531 241.40625 188.976562 241.40625 188.976562 C 241.449219 188.828125 241.460938 188.679688 241.441406 188.527344 C 241.425781 188.375 241.378906 188.230469 241.304688 188.097656 C 241.230469 187.964844 241.132812 187.851562 241.015625 187.753906 C 240.894531 187.660156 240.761719 187.589844 240.613281 187.550781 Z M 240.613281 187.550781 "/><path style=" stroke:none;fill-rule:nonzero;fill:#000000;fill-opacity:1;" d="M 74.113281 248.476562 C 74.011719 248.496094 73.972656 248.515625 73.941406 248.527344 C 73.875 248.550781 73.847656 248.566406 73.824219 248.578125 C 73.769531 248.601562 73.734375 248.625 73.691406 248.648438 C 73.515625 248.746094 73.242188 248.90625 72.847656 249.140625 C 72.0625 249.609375 70.820312 250.359375 69.265625 251.308594 C 66.152344 253.210938 61.769531 255.910156 57.230469 258.730469 C 52.695312 261.546875 48.003906 264.480469 44.277344 266.851562 C 42.417969 268.039062 40.792969 269.082031 39.546875 269.902344 C 38.300781 270.726562 37.480469 271.277344 37.019531 271.660156 C 36.902344 271.757812 36.808594 271.875 36.738281 272.011719 C 36.664062 272.144531 36.621094 272.289062 36.609375 272.441406 C 36.59375 272.59375 36.609375 272.742188 36.65625 272.886719 C 36.699219 273.035156 36.769531 273.167969 36.867188 273.285156 C 36.964844 273.402344 37.082031 273.496094 37.21875 273.566406 C 37.351562 273.640625 37.496094 273.683594 37.648438 273.695312 C 37.800781 273.710938 37.949219 273.695312 38.097656 273.648438 C 38.242188 273.605469 38.375 273.535156 38.492188 273.4375 C 38.699219 273.261719 39.589844 272.640625 40.816406 271.828125 C 42.042969 271.019531 43.660156 269.980469 45.515625 268.796875 C 47.574219 267.488281 50.21875 265.84375 52.683594 264.300781 C 48.765625 267.441406 45.210938 270.40625 42.28125 273.015625 C 34.957031 279.546875 30.722656 284.191406 29.167969 286.773438 C 29.085938 286.902344 29.035156 287.042969 29.011719 287.195312 C 28.988281 287.347656 28.996094 287.496094 29.035156 287.644531 C 29.070312 287.792969 29.132812 287.929688 29.222656 288.050781 C 29.316406 288.175781 29.425781 288.277344 29.554688 288.355469 C 29.6875 288.433594 29.828125 288.484375 29.980469 288.507812 C 30.128906 288.53125 30.28125 288.523438 30.429688 288.488281 C 30.578125 288.453125 30.710938 288.386719 30.835938 288.296875 C 30.960938 288.207031 31.058594 288.09375 31.140625 287.964844 C 32.34375 285.96875 36.570312 281.195312 43.8125 274.738281 C 51.054688 268.28125 61.359375 260.027344 74.921875 250.625 C 74.964844 250.59375 74.996094 250.570312 75.046875 250.535156 C 75.070312 250.515625 75.09375 250.5 75.160156 250.433594 C 75.195312 250.402344 75.238281 250.371094 75.335938 250.21875 C 75.433594 250.066406 75.054688 248.679688 75.054688 248.679688 C 75.054688 248.679688 74.214844 248.453125 74.113281 248.476562 Z M 74.113281 248.476562 "/></g></svg>