<svg xmlns="http://www.w3.org/2000/svg" xmlns:xlink="http://www.w3.org/1999/xlink" width="500" zoomAndPan="magnify" viewBox="0 0 375 374.999991" height="500" preserveAspectRatio="xMidYMid meet" version="1.2"><defs><clipPath id="5e08e26198"><path d="M 245 221 L 375 221 L 375 361.59375 L 245 361.59375 Z M 245 221 "/></clipPath></defs><g id="dfd7905683"><path style=" stroke:none;fill-rule:evenodd;fill:#000000;fill-opacity:1;" d="M 130.332031 26.375 L 244.78125 26.375 C 253.28125 26.375 259.894531 33.03125 259.894531 41.578125 L 259.894531 100.222656 C 259.894531 108.769531 253.285156 115.421875 244.78125 115.421875 L 225.746094 115.421875 C 222.390625 115.421875 219.679688 118.164062 219.679688 121.523438 L 219.679688 140.683594 C 219.679688 144.382812 216.996094 144.097656 215.585938 142.132812 L 198.382812 118.007812 C 197.265625 116.371094 195.417969 115.429688 193.429688 115.429688 L 130.359375 115.429688 C 121.886719 115.429688 115.230469 108.773438 115.230469 100.226562 L 115.230469 41.582031 C 115.230469 33.03125 121.859375 26.375 130.332031 26.375 Z M 130.332031 14.199219 C 115.277344 14.199219 103.023438 26.503906 103.023438 41.582031 L 103.023438 100.226562 C 103.023438 115.285156 115.34375 127.609375 130.359375 127.609375 L 190.300781 127.609375 L 205.660156 149.21875 C 209.6875 154.910156 216.207031 157.648438 221.910156 156.234375 C 227.621094 154.777344 231.851562 149.175781 231.851562 142.882812 L 231.851562 127.613281 L 244.777344 127.613281 C 259.824219 127.613281 272.113281 115.289062 272.113281 100.234375 L 272.113281 41.585938 C 272.113281 26.507812 259.824219 14.207031 244.777344 14.207031 L 130.332031 14.207031 Z M 130.332031 14.199219 "/><path style=" stroke:none;fill-rule:evenodd;fill:#000000;fill-opacity:1;" d="M 97.988281 145.433594 C 97.988281 172.5625 76.078125 194.582031 49.023438 194.582031 C 21.96875 194.582031 0.0273438 172.5625 0.0273438 145.433594 C 0.0273438 132.394531 5.179688 119.878906 14.382812 110.671875 C 23.5625 101.453125 36.007812 96.277344 49.023438 96.277344 C 62.003906 96.277344 74.460938 101.453125 83.664062 110.671875 C 92.84375 119.878906 97.988281 132.394531 97.988281 145.433594 Z M 97.988281 145.433594 "/><path style=" stroke:none;fill-rule:evenodd;fill:#000000;fill-opacity:1;" d="M 375.117188 145.433594 C 375.117188 172.5625 353.175781 194.582031 326.125 194.582031 C 313.136719 194.582031 300.660156 189.40625 291.480469 180.1875 C 282.308594 170.976562 277.125 158.464844 277.125 145.433594 C 277.125 132.394531 282.308594 119.878906 291.480469 110.671875 C 300.660156 101.453125 313.136719 96.277344 326.125 96.277344 C 353.175781 96.277344 375.117188 118.285156 375.117188 145.433594 Z M 375.117188 145.433594 "/><g clip-rule="nonzero" clip-path="url(#5e08e26198)"><path style=" stroke:none;fill-rule:evenodd;fill:#000000;fill-opacity:1;" d="M 326.09375 221.757812 C 352.988281 221.757812 374.5 243.125 374.5 269.75 L 374.5 340.632812 C 374.5 352.285156 365.210938 361.546875 353.546875 361.546875 L 256.386719 361.546875 C 252.941406 361.546875 250.429688 360.328125 248.746094 357.945312 C 244.410156 351.753906 245.199219 345.683594 248.21875 339.824219 C 249.585938 337.105469 252.554688 335.660156 256.664062 335.289062 L 322.195312 329.25 C 328.214844 328.6875 332.550781 326.585938 334.984375 323.171875 C 337.453125 319.78125 337.804688 315.75 337.804688 311.949219 L 337.804688 266.863281 C 338.058594 262.074219 332.800781 262.074219 333.050781 266.863281 L 330.984375 311.949219 C 330.644531 319.128906 326.976562 321.902344 321.550781 322.414062 L 282.882812 325.992188 C 279.242188 326.332031 277.730469 324.089844 277.730469 321.289062 L 277.730469 269.75 C 277.742188 243.121094 299.230469 221.757812 326.09375 221.757812 Z M 326.09375 221.757812 "/></g><path style=" stroke:none;fill-rule:evenodd;fill:#000000;fill-opacity:1;" d="M 49.023438 221.757812 C 75.886719 221.757812 97.375 243.125 97.375 269.75 L 97.375 293.542969 C 97.375 303.960938 83.492188 307.664062 77.960938 299.257812 L 57.527344 268.402344 C 55.148438 264.769531 51.652344 266.972656 53.699219 270.585938 L 71.996094 302.648438 C 73.898438 305.953125 76.277344 309.234375 80.082031 310.941406 C 83.917969 312.613281 88.644531 312.277344 94.125 309.851562 L 145.503906 287.171875 C 149.308594 285.484375 152.433594 285.730469 155.238281 286.964844 C 158.039062 288.230469 160.472656 290.699219 162.039062 293.640625 C 163.609375 296.570312 164.253906 299.9375 163.800781 302.78125 C 163.328125 305.648438 161.960938 308.023438 158.988281 309.734375 L 125.328125 329.1875 L 125.195312 329.25 C 125.023438 329.328125 124.882812 329.40625 124.710938 329.527344 L 83.273438 353.457031 C 73.171875 359.273438 60.445312 355.914062 54.648438 345.8125 L 23.058594 291.71875 C 20.929688 287.238281 15.785156 290.070312 18.609375 294.15625 L 48.691406 349.230469 C 51.152344 353.769531 49.675781 356.277344 43.542969 356.277344 L 0.644531 356.277344 L 0.644531 269.75 C 0.644531 243.121094 22.160156 221.757812 49.023438 221.757812 Z M 49.023438 221.757812 "/><path style=" stroke:none;fill-rule:evenodd;fill:#000000;fill-opacity:1;" d="M 147.492188 238.957031 L 191.925781 238.957031 C 196.460938 238.957031 198.617188 242.28125 198.058594 246.148438 L 183.535156 346.800781 C 182.976562 350.632812 181.6875 351.859375 176.148438 351.859375 L 132.21875 351.859375 C 128.746094 351.859375 127.609375 350.179688 128.019531 347.265625 L 129.503906 336.910156 C 129.890625 334.160156 130.261719 334.222656 132.023438 333.1875 L 162.410156 315.664062 C 167.113281 312.941406 169.796875 308.492188 170.554688 303.902344 C 171.28125 299.285156 170.277344 294.558594 168.0625 290.410156 C 165.875 286.265625 162.464844 282.679688 158.046875 280.71875 C 153.597656 278.734375 148.171875 278.511719 142.769531 280.882812 L 140.300781 281.976562 C 137.902344 283.035156 137.589844 281.113281 137.730469 280.011719 L 143.132812 242.53125 C 143.457031 240.265625 143.761719 238.957031 147.492188 238.957031 Z M 147.492188 238.957031 "/></g></svg>