<svg xmlns="http://www.w3.org/2000/svg" xmlns:xlink="http://www.w3.org/1999/xlink" width="500" zoomAndPan="magnify" viewBox="0 0 375 374.999991" height="500" preserveAspectRatio="xMidYMid meet" version="1.2"><g id="f9c5347ee7"><path style=" stroke:none;fill-rule:nonzero;fill:#000000;fill-opacity:1;" d="M 113.769531 122.15625 C 113.769531 123.15625 113.722656 124.148438 113.625 125.140625 C 113.527344 126.132812 113.378906 127.117188 113.1875 128.09375 C 112.992188 129.074219 112.75 130.039062 112.460938 130.992188 C 112.171875 131.945312 111.835938 132.882812 111.453125 133.804688 C 111.074219 134.722656 110.648438 135.625 110.175781 136.503906 C 109.707031 137.382812 109.195312 138.234375 108.640625 139.066406 C 108.089844 139.894531 107.496094 140.691406 106.863281 141.464844 C 106.230469 142.234375 105.5625 142.972656 104.859375 143.675781 C 104.152344 144.382812 103.414062 145.050781 102.644531 145.683594 C 101.875 146.3125 101.074219 146.90625 100.246094 147.460938 C 99.417969 148.015625 98.5625 148.527344 97.683594 148.996094 C 96.804688 149.464844 95.90625 149.890625 94.984375 150.273438 C 94.066406 150.652344 93.128906 150.988281 92.171875 151.277344 C 91.21875 151.566406 90.253906 151.808594 89.277344 152.003906 C 88.300781 152.199219 87.316406 152.34375 86.324219 152.441406 C 85.332031 152.539062 84.335938 152.589844 83.339844 152.589844 C 82.34375 152.589844 81.347656 152.539062 80.355469 152.441406 C 79.367188 152.34375 78.378906 152.199219 77.402344 152.003906 C 76.425781 151.808594 75.460938 151.566406 74.507812 151.277344 C 73.550781 150.988281 72.617188 150.652344 71.695312 150.273438 C 70.773438 149.890625 69.875 149.464844 68.996094 148.996094 C 68.117188 148.527344 67.261719 148.015625 66.433594 147.460938 C 65.605469 146.90625 64.804688 146.3125 64.035156 145.683594 C 63.265625 145.050781 62.527344 144.382812 61.820312 143.675781 C 61.117188 142.972656 60.449219 142.234375 59.816406 141.464844 C 59.183594 140.691406 58.589844 139.894531 58.039062 139.066406 C 57.484375 138.234375 56.972656 137.382812 56.503906 136.503906 C 56.03125 135.625 55.605469 134.722656 55.226562 133.804688 C 54.84375 132.882812 54.507812 131.945312 54.21875 130.992188 C 53.929688 130.039062 53.6875 129.074219 53.492188 128.09375 C 53.300781 127.117188 53.152344 126.132812 53.054688 125.140625 C 52.957031 124.148438 52.910156 123.15625 52.910156 122.15625 C 52.910156 121.160156 52.957031 120.167969 53.054688 119.175781 C 53.152344 118.183594 53.300781 117.199219 53.492188 116.222656 C 53.6875 115.242188 53.929688 114.277344 54.21875 113.324219 C 54.507812 112.371094 54.84375 111.433594 55.226562 110.511719 C 55.605469 109.59375 56.03125 108.691406 56.503906 107.8125 C 56.972656 106.933594 57.484375 106.082031 58.039062 105.25 C 58.589844 104.421875 59.183594 103.625 59.816406 102.851562 C 60.449219 102.082031 61.117188 101.34375 61.820312 100.640625 C 62.527344 99.933594 63.265625 99.265625 64.035156 98.632812 C 64.804688 98.003906 65.605469 97.410156 66.433594 96.855469 C 67.261719 96.300781 68.117188 95.789062 68.996094 95.320312 C 69.875 94.851562 70.773438 94.425781 71.695312 94.042969 C 72.617188 93.664062 73.550781 93.328125 74.507812 93.039062 C 75.460938 92.75 76.425781 92.507812 77.402344 92.3125 C 78.378906 92.117188 79.367188 91.972656 80.355469 91.875 C 81.347656 91.777344 82.34375 91.726562 83.339844 91.726562 C 84.335938 91.726562 85.332031 91.777344 86.324219 91.875 C 87.316406 91.972656 88.300781 92.117188 89.277344 92.3125 C 90.253906 92.507812 91.21875 92.75 92.171875 93.039062 C 93.128906 93.328125 94.066406 93.664062 94.984375 94.042969 C 95.90625 94.425781 96.804688 94.851562 97.683594 95.320312 C 98.5625 95.789062 99.417969 96.300781 100.246094 96.855469 C 101.074219 97.410156 101.875 98.003906 102.644531 98.632812 C 103.414062 99.265625 104.152344 99.933594 104.859375 100.640625 C 105.5625 101.34375 106.230469 102.082031 106.863281 102.851562 C 107.496094 103.625 108.089844 104.421875 108.640625 105.25 C 109.195312 106.082031 109.707031 106.933594 110.175781 107.8125 C 110.648438 108.691406 111.074219 109.59375 111.453125 110.511719 C 111.835938 111.433594 112.171875 112.371094 112.460938 113.324219 C 112.75 114.277344 112.992188 115.242188 113.1875 116.222656 C 113.378906 117.199219 113.527344 118.183594 113.625 119.175781 C 113.722656 120.167969 113.769531 121.160156 113.769531 122.15625 Z M 113.769531 122.15625 "/><path style=" stroke:none;fill-rule:nonzero;fill:#000000;fill-opacity:1;" d="M 168.199219 206.820312 L 143.808594 198.925781 L 123.835938 174.335938 C 116.691406 165.574219 106.152344 160.523438 94.863281 160.523438 L 68.261719 160.523438 C 36.882812 160.523438 13.125 214.199219 6.570312 230.660156 C 3.769531 237.683594 7.203125 245.617188 14.230469 248.421875 C 15.886719 249.09375 17.582031 249.40625 19.28125 249.40625 C 24.726562 249.40625 29.859375 246.132812 31.988281 240.804688 C 37.59375 226.753906 45.25 212.859375 52.316406 202.832031 L 50.421875 256.234375 L 28.871094 356.566406 C 27.097656 364.777344 32.34375 372.867188 40.554688 374.605469 C 41.621094 374.84375 42.6875 374.960938 43.753906 374.960938 C 50.777344 374.960938 57.054688 370.066406 58.59375 362.960938 L 79.867188 263.855469 L 85.828125 263.855469 L 85.828125 359.804688 C 85.828125 368.210938 92.617188 375 101.023438 375 C 109.429688 375 116.21875 368.210938 116.21875 359.804688 L 116.21875 257.578125 L 114.402344 206.1875 L 125.058594 219.332031 C 126.71875 221.382812 128.964844 222.925781 131.453125 223.714844 L 159.714844 232.871094 C 166.898438 235.238281 174.632812 231.253906 176.960938 224.070312 C 179.328125 216.886719 175.382812 209.148438 168.199219 206.820312 Z M 168.199219 206.820312 "/><path style=" stroke:none;fill-rule:nonzero;fill:#000000;fill-opacity:1;" d="M 322.089844 122.15625 C 322.089844 123.15625 322.042969 124.148438 321.945312 125.140625 C 321.847656 126.132812 321.699219 127.117188 321.507812 128.09375 C 321.3125 129.074219 321.070312 130.039062 320.78125 130.992188 C 320.492188 131.945312 320.15625 132.882812 319.773438 133.804688 C 319.394531 134.722656 318.96875 135.625 318.496094 136.503906 C 318.027344 137.382812 317.515625 138.234375 316.960938 139.066406 C 316.410156 139.894531 315.816406 140.691406 315.183594 141.464844 C 314.550781 142.234375 313.882812 142.972656 313.179688 143.675781 C 312.472656 144.382812 311.734375 145.050781 310.964844 145.683594 C 310.195312 146.3125 309.394531 146.90625 308.566406 147.460938 C 307.738281 148.015625 306.882812 148.527344 306.003906 148.996094 C 305.125 149.464844 304.226562 149.890625 303.304688 150.273438 C 302.382812 150.652344 301.449219 150.988281 300.492188 151.277344 C 299.539062 151.566406 298.574219 151.808594 297.597656 152.003906 C 296.621094 152.199219 295.632812 152.34375 294.644531 152.441406 C 293.652344 152.539062 292.65625 152.589844 291.660156 152.589844 C 290.664062 152.589844 289.667969 152.539062 288.675781 152.441406 C 287.683594 152.34375 286.699219 152.199219 285.722656 152.003906 C 284.746094 151.808594 283.78125 151.566406 282.828125 151.277344 C 281.871094 150.988281 280.933594 150.652344 280.015625 150.273438 C 279.09375 149.890625 278.195312 149.464844 277.316406 148.996094 C 276.4375 148.527344 275.582031 148.015625 274.753906 147.460938 C 273.925781 146.90625 273.125 146.3125 272.355469 145.683594 C 271.585938 145.050781 270.847656 144.382812 270.140625 143.675781 C 269.4375 142.972656 268.769531 142.234375 268.136719 141.464844 C 267.503906 140.691406 266.910156 139.894531 266.359375 139.066406 C 265.804688 138.234375 265.292969 137.382812 264.824219 136.503906 C 264.351562 135.625 263.925781 134.722656 263.546875 133.804688 C 263.164062 132.882812 262.828125 131.945312 262.539062 130.992188 C 262.25 130.039062 262.007812 129.074219 261.8125 128.09375 C 261.621094 127.117188 261.472656 126.132812 261.375 125.140625 C 261.277344 124.148438 261.230469 123.15625 261.230469 122.15625 C 261.230469 121.160156 261.277344 120.167969 261.375 119.175781 C 261.472656 118.183594 261.621094 117.199219 261.8125 116.222656 C 262.007812 115.242188 262.25 114.277344 262.539062 113.324219 C 262.828125 112.371094 263.164062 111.433594 263.546875 110.511719 C 263.925781 109.59375 264.351562 108.691406 264.824219 107.8125 C 265.292969 106.933594 265.804688 106.082031 266.359375 105.25 C 266.910156 104.421875 267.503906 103.625 268.136719 102.851562 C 268.769531 102.082031 269.4375 101.34375 270.140625 100.640625 C 270.847656 99.933594 271.585938 99.265625 272.355469 98.632812 C 273.125 98.003906 273.925781 97.410156 274.753906 96.855469 C 275.582031 96.300781 276.4375 95.789062 277.316406 95.320312 C 278.195312 94.851562 279.09375 94.425781 280.015625 94.042969 C 280.933594 93.664062 281.871094 93.328125 282.828125 93.039062 C 283.78125 92.75 284.746094 92.507812 285.722656 92.3125 C 286.699219 92.117188 287.683594 91.972656 288.675781 91.875 C 289.667969 91.777344 290.664062 91.726562 291.660156 91.726562 C 292.65625 91.726562 293.652344 91.777344 294.644531 91.875 C 295.632812 91.972656 296.621094 92.117188 297.597656 92.3125 C 298.574219 92.507812 299.539062 92.75 300.492188 93.039062 C 301.449219 93.328125 302.382812 93.664062 303.304688 94.042969 C 304.226562 94.425781 305.125 94.851562 306.003906 95.320312 C 306.882812 95.789062 307.738281 96.300781 308.566406 96.855469 C 309.394531 97.410156 310.195312 98.003906 310.964844 98.632812 C 311.734375 99.265625 312.472656 99.933594 313.179688 100.640625 C 313.882812 101.34375 314.550781 102.082031 315.183594 102.851562 C 315.816406 103.625 316.410156 104.421875 316.960938 105.25 C 317.515625 106.082031 318.027344 106.933594 318.496094 107.8125 C 318.96875 108.691406 319.394531 109.59375 319.773438 110.511719 C 320.15625 111.433594 320.492188 112.371094 320.78125 113.324219 C 321.070312 114.277344 321.3125 115.242188 321.507812 116.222656 C 321.699219 117.199219 321.847656 118.183594 321.945312 119.175781 C 322.042969 120.167969 322.089844 121.160156 322.089844 122.15625 Z M 322.089844 122.15625 "/><path style=" stroke:none;fill-rule:nonzero;fill:#000000;fill-opacity:1;" d="M 368.429688 230.660156 C 361.875 214.199219 338.078125 160.523438 306.738281 160.523438 L 280.136719 160.523438 C 268.847656 160.523438 258.269531 165.535156 251.164062 174.335938 L 231.191406 198.925781 L 206.800781 206.820312 C 199.617188 209.148438 195.671875 216.84375 198 224.070312 C 200.328125 231.253906 208.0625 235.238281 215.246094 232.871094 L 243.507812 223.714844 C 246.035156 222.925781 248.242188 221.382812 249.902344 219.332031 L 260.558594 206.1875 L 258.742188 257.578125 L 258.742188 359.804688 C 258.742188 368.210938 265.53125 375 273.9375 375 C 282.34375 375 289.132812 368.210938 289.132812 359.804688 L 289.132812 263.8125 L 295.09375 263.8125 L 316.367188 362.921875 C 317.90625 370.066406 324.183594 374.921875 331.207031 374.921875 C 332.273438 374.921875 333.339844 374.800781 334.40625 374.566406 C 342.617188 372.789062 347.824219 364.738281 346.089844 356.527344 L 324.539062 256.15625 L 322.644531 202.753906 C 329.75 212.78125 337.367188 226.671875 342.96875 240.726562 C 345.101562 246.09375 350.234375 249.328125 355.679688 249.328125 C 357.375 249.328125 359.074219 249.011719 360.730469 248.34375 C 367.796875 245.617188 371.230469 237.683594 368.429688 230.660156 Z M 368.429688 230.660156 "/><path style=" stroke:none;fill-rule:nonzero;fill:#000000;fill-opacity:1;" d="M 171.554688 88.015625 C 181.578125 95.554688 195.628906 100.171875 211.300781 100.171875 C 214.339844 100.171875 217.300781 99.9375 220.179688 99.621094 C 228.707031 103.726562 237.824219 107.910156 246.113281 111.1875 C 251.125 113.160156 255.464844 107.160156 252.113281 102.898438 C 248.519531 98.320312 246.625 94.53125 245.636719 91.492188 C 258.109375 84.347656 266.082031 73.335938 266.082031 61.019531 C 266.082031 40.0625 242.996094 22.933594 213.945312 21.945312 C 216.390625 27.273438 217.65625 33.035156 217.65625 39.113281 C 217.695312 62.324219 198.628906 81.425781 171.554688 88.015625 Z M 171.554688 88.015625 "/><path style=" stroke:none;fill-rule:nonzero;fill:#000000;fill-opacity:1;" d="M 116.375 69.625 C 115.351562 72.703125 113.457031 76.492188 109.902344 81.03125 C 106.585938 85.292969 110.929688 91.253906 115.941406 89.28125 C 124.191406 86.042969 133.308594 81.859375 141.832031 77.714844 C 144.753906 78.070312 147.714844 78.269531 150.753906 78.269531 C 181.027344 78.269531 205.578125 60.742188 205.578125 39.113281 C 205.578125 17.484375 181.027344 0 150.753906 0 C 120.441406 0 95.929688 17.523438 95.929688 39.152344 C 95.929688 51.46875 103.902344 62.441406 116.375 69.625 Z M 178.066406 30.511719 C 182.804688 30.511719 186.671875 34.378906 186.671875 39.113281 C 186.671875 43.851562 182.84375 47.71875 178.066406 47.71875 C 173.332031 47.71875 169.460938 43.851562 169.460938 39.113281 C 169.5 34.339844 173.332031 30.511719 178.066406 30.511719 Z M 150.753906 30.511719 C 155.488281 30.511719 159.359375 34.378906 159.359375 39.113281 C 159.359375 43.851562 155.53125 47.71875 150.753906 47.71875 C 146.015625 47.71875 142.148438 43.851562 142.148438 39.113281 C 142.148438 34.339844 145.976562 30.511719 150.753906 30.511719 Z M 123.402344 30.511719 C 128.136719 30.511719 132.003906 34.378906 132.003906 39.113281 C 132.003906 43.851562 128.136719 47.71875 123.402344 47.71875 C 118.664062 47.71875 114.796875 43.851562 114.796875 39.113281 C 114.796875 34.339844 118.664062 30.511719 123.402344 30.511719 Z M 123.402344 30.511719 "/></g></svg>