<svg xmlns="http://www.w3.org/2000/svg" xmlns:xlink="http://www.w3.org/1999/xlink" width="500" zoomAndPan="magnify" viewBox="0 0 375 374.999991" height="500" preserveAspectRatio="xMidYMid meet" version="1.2"><defs><clipPath id="14c011b4c1"><path d="M 1.640625 0 L 373.640625 0 L 373.640625 375 L 1.640625 375 Z M 1.640625 0 "/></clipPath></defs><g id="8fc7866b22"><g clip-rule="nonzero" clip-path="url(#14c011b4c1)"><path style=" stroke:none;fill-rule:evenodd;fill:#000000;fill-opacity:1;" d="M 163.78125 267.359375 L 211.578125 267.359375 C 212.789062 267.375 213.996094 267.3125 215.199219 267.164062 C 216.402344 267.019531 217.589844 266.792969 218.761719 266.488281 C 219.933594 266.183594 221.082031 265.800781 222.199219 265.34375 C 223.320312 264.882812 224.40625 264.351562 225.457031 263.746094 C 226.503906 263.140625 227.507812 262.46875 228.464844 261.726562 C 229.425781 260.988281 230.328125 260.1875 231.179688 259.324219 C 232.03125 258.464844 232.820312 257.546875 233.546875 256.582031 C 234.273438 255.613281 234.933594 254.601562 235.523438 253.542969 L 303.457031 135.972656 C 303.96875 135.078125 304.566406 134.242188 305.246094 133.460938 C 305.925781 132.683594 306.675781 131.980469 307.492188 131.351562 C 308.308594 130.71875 309.183594 130.175781 310.109375 129.714844 C 311.035156 129.257812 311.996094 128.894531 312.992188 128.625 C 313.988281 128.355469 315.003906 128.183594 316.035156 128.113281 C 317.066406 128.046875 318.09375 128.078125 319.117188 128.207031 C 320.144531 128.339844 321.144531 128.574219 322.125 128.902344 C 323.101562 129.234375 324.039062 129.65625 324.9375 130.167969 C 325.832031 130.683594 326.667969 131.28125 327.449219 131.960938 C 328.226562 132.640625 328.929688 133.386719 329.558594 134.207031 C 330.191406 135.023438 330.734375 135.894531 331.195312 136.820312 C 331.652344 137.746094 332.015625 138.707031 332.285156 139.703125 C 332.554688 140.699219 332.726562 141.714844 332.792969 142.742188 C 332.863281 143.773438 332.832031 144.800781 332.699219 145.824219 C 332.566406 146.847656 332.332031 147.847656 332.003906 148.828125 C 331.671875 149.804688 331.25 150.742188 330.734375 151.636719 L 251.015625 289.609375 C 250.292969 290.828125 249.941406 292.140625 249.957031 293.558594 L 249.957031 374.902344 L 125.402344 374.902344 L 125.402344 293.554688 C 125.421875 292.140625 125.066406 290.824219 124.34375 289.609375 L 44.625 151.636719 C 44.113281 150.742188 43.6875 149.804688 43.359375 148.828125 C 43.027344 147.847656 42.796875 146.847656 42.664062 145.824219 C 42.53125 144.800781 42.5 143.773438 42.570312 142.746094 C 42.640625 141.714844 42.808594 140.703125 43.078125 139.707031 C 43.347656 138.710938 43.710938 137.75 44.171875 136.824219 C 44.628906 135.898438 45.175781 135.027344 45.804688 134.210938 C 46.433594 133.394531 47.140625 132.644531 47.917969 131.964844 C 48.695312 131.285156 49.53125 130.691406 50.425781 130.175781 C 51.324219 129.660156 52.261719 129.238281 53.238281 128.910156 C 54.21875 128.578125 55.21875 128.347656 56.242188 128.214844 C 57.269531 128.082031 58.296875 128.050781 59.328125 128.121094 C 60.355469 128.191406 61.371094 128.359375 62.367188 128.628906 C 63.363281 128.898438 64.328125 129.261719 65.25 129.71875 C 66.175781 130.179688 67.050781 130.722656 67.867188 131.351562 C 68.683594 131.984375 69.433594 132.6875 70.113281 133.464844 C 70.792969 134.242188 71.390625 135.078125 71.90625 135.972656 L 139.835938 253.542969 C 140.429688 254.601562 141.085938 255.613281 141.8125 256.582031 C 142.542969 257.546875 143.332031 258.464844 144.179688 259.324219 C 145.03125 260.1875 145.9375 260.988281 146.894531 261.726562 C 147.851562 262.46875 148.855469 263.140625 149.90625 263.746094 C 150.953125 264.351562 152.039062 264.882812 153.160156 265.34375 C 154.28125 265.800781 155.425781 266.183594 156.597656 266.488281 C 157.769531 266.792969 158.957031 267.019531 160.160156 267.164062 C 161.363281 267.3125 162.570312 267.375 163.78125 267.359375 Z M 335.3125 1.601562 L 344.410156 24.691406 C 344.574219 25.125 344.84375 25.476562 345.21875 25.75 C 345.589844 26.019531 346.007812 26.167969 346.472656 26.191406 L 371.269531 27.699219 C 371.757812 27.730469 372.191406 27.894531 372.578125 28.191406 C 372.960938 28.488281 373.230469 28.871094 373.378906 29.332031 C 373.53125 29.792969 373.535156 30.257812 373.402344 30.726562 C 373.265625 31.195312 373.007812 31.582031 372.632812 31.890625 L 353.464844 47.679688 C 353.105469 47.96875 352.851562 48.332031 352.710938 48.769531 C 352.566406 49.210938 352.554688 49.652344 352.675781 50.097656 L 358.898438 74.128906 C 359.019531 74.597656 359 75.0625 358.832031 75.519531 C 358.667969 75.980469 358.390625 76.351562 357.996094 76.636719 C 357.601562 76.921875 357.160156 77.074219 356.675781 77.089844 C 356.1875 77.105469 355.738281 76.980469 355.328125 76.71875 L 334.378906 63.378906 C 333.992188 63.125 333.566406 63 333.105469 63 C 332.644531 63 332.21875 63.125 331.832031 63.378906 L 310.886719 76.71875 C 310.472656 76.980469 310.027344 77.105469 309.539062 77.089844 C 309.050781 77.074219 308.613281 76.925781 308.21875 76.636719 C 307.824219 76.351562 307.542969 75.980469 307.378906 75.523438 C 307.214844 75.0625 307.195312 74.601562 307.316406 74.128906 L 313.539062 50.101562 C 313.660156 49.652344 313.648438 49.210938 313.503906 48.773438 C 313.363281 48.332031 313.109375 47.96875 312.75 47.679688 L 293.582031 31.890625 C 293.203125 31.582031 292.949219 31.195312 292.8125 30.726562 C 292.675781 30.261719 292.683594 29.796875 292.835938 29.332031 C 292.984375 28.871094 293.253906 28.492188 293.636719 28.191406 C 294.023438 27.894531 294.457031 27.730469 294.941406 27.703125 L 319.734375 26.1875 C 320.199219 26.164062 320.617188 26.019531 320.988281 25.746094 C 321.363281 25.472656 321.632812 25.121094 321.796875 24.6875 L 330.902344 1.601562 C 331.082031 1.148438 331.371094 0.785156 331.773438 0.511719 C 332.175781 0.238281 332.621094 0.101562 333.109375 0.101562 C 333.59375 0.101562 334.039062 0.238281 334.441406 0.511719 C 334.84375 0.785156 335.136719 1.148438 335.3125 1.601562 Z M 44.457031 1.601562 L 53.558594 24.691406 C 53.722656 25.125 53.992188 25.476562 54.363281 25.75 C 54.738281 26.019531 55.15625 26.167969 55.617188 26.191406 L 80.410156 27.703125 C 80.898438 27.734375 81.332031 27.898438 81.71875 28.195312 C 82.101562 28.492188 82.371094 28.875 82.519531 29.335938 C 82.671875 29.800781 82.679688 30.261719 82.542969 30.730469 C 82.40625 31.199219 82.148438 31.585938 81.773438 31.894531 L 62.605469 47.683594 C 62.246094 47.972656 61.992188 48.335938 61.851562 48.773438 C 61.707031 49.214844 61.695312 49.65625 61.816406 50.101562 L 68.039062 74.132812 C 68.160156 74.601562 68.140625 75.066406 67.976562 75.523438 C 67.808594 75.984375 67.53125 76.355469 67.136719 76.640625 C 66.742188 76.925781 66.300781 77.078125 65.816406 77.09375 C 65.328125 77.109375 64.878906 76.984375 64.46875 76.722656 L 43.523438 63.378906 C 43.136719 63.125 42.714844 63 42.25 63 C 41.789062 63 41.363281 63.125 40.976562 63.378906 L 20.03125 76.71875 C 19.621094 76.980469 19.171875 77.105469 18.683594 77.089844 C 18.199219 77.074219 17.757812 76.925781 17.363281 76.636719 C 16.96875 76.351562 16.691406 75.980469 16.527344 75.523438 C 16.363281 75.0625 16.339844 74.601562 16.464844 74.128906 L 22.683594 50.101562 C 22.804688 49.652344 22.792969 49.210938 22.652344 48.773438 C 22.507812 48.332031 22.253906 47.96875 21.894531 47.679688 L 2.726562 31.890625 C 2.351562 31.582031 2.09375 31.195312 1.957031 30.726562 C 1.820312 30.261719 1.828125 29.796875 1.980469 29.332031 C 2.128906 28.871094 2.398438 28.488281 2.78125 28.191406 C 3.167969 27.894531 3.601562 27.730469 4.089844 27.699219 L 28.882812 26.1875 C 29.34375 26.164062 29.761719 26.015625 30.136719 25.746094 C 30.511719 25.472656 30.777344 25.121094 30.941406 24.6875 L 40.046875 1.601562 C 40.226562 1.148438 40.515625 0.785156 40.917969 0.511719 C 41.320312 0.238281 41.765625 0.101562 42.253906 0.101562 C 42.738281 0.101562 43.183594 0.238281 43.585938 0.511719 C 43.988281 0.785156 44.277344 1.148438 44.457031 1.601562 Z M 189.886719 1.601562 L 198.984375 24.695312 C 199.148438 25.128906 199.417969 25.480469 199.792969 25.753906 C 200.167969 26.023438 200.585938 26.171875 201.046875 26.195312 L 225.839844 27.707031 C 226.324219 27.738281 226.761719 27.902344 227.144531 28.199219 C 227.53125 28.496094 227.796875 28.878906 227.949219 29.339844 C 228.097656 29.804688 228.105469 30.265625 227.96875 30.734375 C 227.835938 31.203125 227.578125 31.589844 227.203125 31.898438 L 208.035156 47.6875 C 207.671875 47.976562 207.421875 48.339844 207.277344 48.777344 C 207.132812 49.21875 207.125 49.660156 207.246094 50.105469 L 213.464844 74.136719 C 213.585938 74.605469 213.566406 75.070312 213.402344 75.527344 C 213.238281 75.988281 212.957031 76.359375 212.566406 76.644531 C 212.171875 76.929688 211.730469 77.082031 211.242188 77.097656 C 210.757812 77.109375 210.308594 76.988281 209.898438 76.726562 L 188.949219 63.386719 C 188.5625 63.132812 188.140625 63.003906 187.675781 63.003906 C 187.214844 63.003906 186.789062 63.132812 186.402344 63.386719 L 165.457031 76.726562 C 165.046875 76.988281 164.597656 77.109375 164.109375 77.097656 C 163.625 77.082031 163.183594 76.929688 162.789062 76.644531 C 162.394531 76.359375 162.117188 75.988281 161.953125 75.527344 C 161.789062 75.070312 161.765625 74.605469 161.886719 74.136719 L 168.109375 50.105469 C 168.230469 49.660156 168.21875 49.21875 168.074219 48.777344 C 167.933594 48.339844 167.679688 47.976562 167.320312 47.6875 L 148.152344 31.898438 C 147.777344 31.589844 147.519531 31.203125 147.382812 30.734375 C 147.246094 30.265625 147.253906 29.804688 147.40625 29.339844 C 147.554688 28.878906 147.824219 28.496094 148.207031 28.199219 C 148.59375 27.902344 149.027344 27.738281 149.515625 27.707031 L 174.304688 26.195312 C 174.769531 26.171875 175.1875 26.023438 175.5625 25.753906 C 175.933594 25.480469 176.203125 25.128906 176.367188 24.695312 L 185.476562 1.601562 C 185.652344 1.148438 185.945312 0.785156 186.347656 0.511719 C 186.75 0.238281 187.195312 0.101562 187.679688 0.101562 C 188.167969 0.101562 188.613281 0.238281 189.015625 0.511719 C 189.417969 0.785156 189.707031 1.148438 189.886719 1.601562 Z M 90.941406 106.574219 L 149.566406 173.75 C 149.804688 174.023438 150.066406 174.273438 150.351562 174.496094 C 150.640625 174.71875 150.945312 174.910156 151.269531 175.074219 C 151.59375 175.234375 151.933594 175.367188 152.285156 175.460938 C 152.632812 175.554688 152.992188 175.617188 153.351562 175.640625 C 153.714844 175.667969 154.078125 175.65625 154.4375 175.609375 C 154.796875 175.566406 155.148438 175.484375 155.492188 175.367188 C 155.839844 175.253906 156.167969 175.105469 156.484375 174.921875 C 156.796875 174.742188 157.089844 174.53125 157.363281 174.292969 C 157.636719 174.054688 157.886719 173.789062 158.105469 173.503906 C 158.328125 173.214844 158.519531 172.910156 158.679688 172.582031 C 158.839844 172.257812 158.96875 171.917969 159.0625 171.566406 C 159.15625 171.21875 159.214844 170.859375 159.234375 170.5 C 159.257812 170.136719 159.246094 169.777344 159.199219 169.414062 C 159.148438 169.054688 159.066406 168.703125 158.949219 168.359375 C 158.832031 168.019531 158.679688 167.6875 158.496094 167.375 C 158.3125 167.0625 158.101562 166.769531 157.863281 166.496094 L 99.234375 99.320312 C 98.996094 99.050781 98.734375 98.804688 98.445312 98.582031 C 98.160156 98.363281 97.855469 98.171875 97.53125 98.015625 C 97.207031 97.855469 96.867188 97.726562 96.519531 97.632812 C 96.171875 97.539062 95.816406 97.480469 95.453125 97.457031 C 95.09375 97.433594 94.734375 97.445312 94.375 97.492188 C 94.015625 97.539062 93.664062 97.621094 93.324219 97.734375 C 92.980469 97.851562 92.652344 98 92.339844 98.179688 C 92.027344 98.359375 91.734375 98.570312 91.460938 98.808594 C 91.1875 99.046875 90.941406 99.308594 90.722656 99.59375 C 90.5 99.878906 90.3125 100.1875 90.152344 100.507812 C 89.992188 100.832031 89.863281 101.171875 89.769531 101.519531 C 89.675781 101.867188 89.617188 102.222656 89.589844 102.582031 C 89.566406 102.945312 89.578125 103.304688 89.625 103.660156 C 89.671875 104.019531 89.753906 104.371094 89.867188 104.710938 C 89.984375 105.054688 90.132812 105.382812 90.3125 105.695312 C 90.492188 106.007812 90.703125 106.300781 90.941406 106.574219 Z M 225.792969 173.75 L 284.421875 106.574219 C 284.652344 106.300781 284.855469 106.007812 285.03125 105.695312 C 285.207031 105.382812 285.347656 105.054688 285.460938 104.714844 C 285.570312 104.375 285.648438 104.027344 285.691406 103.671875 C 285.734375 103.316406 285.742188 102.960938 285.714844 102.601562 C 285.6875 102.246094 285.628906 101.894531 285.53125 101.546875 C 285.4375 101.203125 285.308594 100.871094 285.148438 100.550781 C 284.992188 100.230469 284.800781 99.925781 284.582031 99.644531 C 284.363281 99.359375 284.117188 99.101562 283.847656 98.867188 C 283.578125 98.628906 283.289062 98.421875 282.980469 98.242188 C 282.667969 98.0625 282.34375 97.914062 282.003906 97.800781 C 281.664062 97.683594 281.320312 97.601562 280.964844 97.554688 C 280.609375 97.503906 280.253906 97.492188 279.894531 97.511719 C 279.535156 97.53125 279.183594 97.589844 278.835938 97.679688 C 278.488281 97.769531 278.15625 97.890625 277.832031 98.046875 C 277.507812 98.199219 277.203125 98.386719 276.917969 98.601562 C 276.628906 98.816406 276.367188 99.054688 276.125 99.320312 L 217.5 166.496094 C 217.257812 166.769531 217.046875 167.0625 216.863281 167.375 C 216.679688 167.6875 216.53125 168.015625 216.410156 168.359375 C 216.292969 168.703125 216.210938 169.054688 216.164062 169.414062 C 216.113281 169.773438 216.101562 170.136719 216.125 170.5 C 216.148438 170.859375 216.207031 171.21875 216.300781 171.566406 C 216.394531 171.917969 216.519531 172.257812 216.679688 172.582031 C 216.839844 172.90625 217.03125 173.214844 217.253906 173.503906 C 217.472656 173.789062 217.722656 174.054688 217.996094 174.292969 C 218.269531 174.53125 218.5625 174.742188 218.878906 174.921875 C 219.191406 175.105469 219.523438 175.253906 219.867188 175.367188 C 220.210938 175.484375 220.5625 175.566406 220.921875 175.609375 C 221.285156 175.65625 221.644531 175.667969 222.007812 175.640625 C 222.371094 175.617188 222.726562 175.554688 223.078125 175.460938 C 223.425781 175.363281 223.765625 175.234375 224.089844 175.074219 C 224.414062 174.910156 224.722656 174.71875 225.007812 174.496094 C 225.292969 174.273438 225.554688 174.023438 225.792969 173.75 Z M 193.210938 157.40625 L 193.210938 85.03125 C 193.210938 84.667969 193.175781 84.308594 193.105469 83.953125 C 193.03125 83.597656 192.929688 83.253906 192.789062 82.917969 C 192.648438 82.582031 192.480469 82.265625 192.277344 81.960938 C 192.078125 81.660156 191.847656 81.382812 191.589844 81.125 C 191.332031 80.867188 191.054688 80.640625 190.753906 80.4375 C 190.449219 80.234375 190.132812 80.066406 189.796875 79.925781 C 189.460938 79.789062 189.113281 79.683594 188.757812 79.613281 C 188.402344 79.542969 188.042969 79.507812 187.679688 79.507812 C 187.316406 79.507812 186.957031 79.542969 186.601562 79.613281 C 186.246094 79.683594 185.898438 79.789062 185.5625 79.925781 C 185.226562 80.066406 184.910156 80.234375 184.609375 80.4375 C 184.304688 80.640625 184.027344 80.867188 183.769531 81.125 C 183.511719 81.382812 183.285156 81.660156 183.082031 81.960938 C 182.878906 82.265625 182.710938 82.582031 182.570312 82.917969 C 182.433594 83.253906 182.328125 83.597656 182.257812 83.953125 C 182.1875 84.308594 182.148438 84.667969 182.148438 85.03125 L 182.148438 157.40625 C 182.148438 157.769531 182.1875 158.128906 182.257812 158.484375 C 182.328125 158.839844 182.433594 159.183594 182.570312 159.519531 C 182.710938 159.855469 182.878906 160.171875 183.082031 160.476562 C 183.285156 160.777344 183.511719 161.054688 183.769531 161.3125 C 184.027344 161.570312 184.304688 161.796875 184.609375 162 C 184.910156 162.199219 185.226562 162.371094 185.5625 162.511719 C 185.898438 162.648438 186.246094 162.753906 186.601562 162.824219 C 186.957031 162.894531 187.316406 162.929688 187.679688 162.929688 C 188.042969 162.929688 188.402344 162.894531 188.757812 162.824219 C 189.113281 162.753906 189.460938 162.648438 189.796875 162.511719 C 190.132812 162.371094 190.449219 162.199219 190.753906 162 C 191.054688 161.796875 191.332031 161.570312 191.589844 161.3125 C 191.847656 161.054688 192.078125 160.777344 192.277344 160.476562 C 192.480469 160.171875 192.648438 159.855469 192.789062 159.519531 C 192.929688 159.183594 193.03125 158.839844 193.105469 158.484375 C 193.175781 158.128906 193.210938 157.769531 193.210938 157.40625 Z M 187.679688 173.523438 C 186.515625 173.523438 185.355469 173.582031 184.195312 173.695312 C 183.035156 173.808594 181.886719 173.980469 180.746094 174.207031 C 179.601562 174.433594 178.476562 174.714844 177.359375 175.054688 C 176.246094 175.390625 175.152344 175.78125 174.074219 176.226562 C 173 176.671875 171.949219 177.171875 170.921875 177.71875 C 169.894531 178.265625 168.898438 178.863281 167.929688 179.511719 C 166.960938 180.15625 166.027344 180.847656 165.128906 181.585938 C 164.226562 182.324219 163.367188 183.105469 162.542969 183.929688 C 161.71875 184.75 160.9375 185.613281 160.199219 186.511719 C 159.460938 187.410156 158.769531 188.34375 158.121094 189.3125 C 157.476562 190.277344 156.878906 191.273438 156.328125 192.300781 C 155.78125 193.328125 155.28125 194.378906 154.835938 195.453125 C 154.390625 196.527344 154 197.621094 153.660156 198.734375 C 153.324219 199.847656 153.042969 200.976562 152.8125 202.117188 C 152.585938 203.257812 152.417969 204.40625 152.300781 205.5625 C 152.1875 206.722656 152.132812 207.882812 152.132812 209.046875 C 152.132812 210.210938 152.1875 211.371094 152.300781 212.527344 C 152.417969 213.6875 152.585938 214.835938 152.8125 215.976562 C 153.042969 217.117188 153.324219 218.246094 153.660156 219.359375 C 154 220.472656 154.390625 221.566406 154.835938 222.640625 C 155.28125 223.714844 155.78125 224.765625 156.328125 225.792969 C 156.878906 226.816406 157.476562 227.8125 158.121094 228.78125 C 158.769531 229.75 159.460938 230.683594 160.199219 231.582031 C 160.9375 232.480469 161.71875 233.339844 162.542969 234.164062 C 163.367188 234.988281 164.226562 235.765625 165.128906 236.503906 C 166.027344 237.242188 166.960938 237.933594 167.929688 238.582031 C 168.898438 239.226562 169.894531 239.824219 170.921875 240.375 C 171.949219 240.921875 173 241.417969 174.074219 241.863281 C 175.152344 242.308594 176.246094 242.699219 177.359375 243.039062 C 178.476562 243.375 179.601562 243.660156 180.746094 243.886719 C 181.886719 244.113281 183.035156 244.28125 184.195312 244.398438 C 185.355469 244.511719 186.515625 244.566406 187.679688 244.566406 C 188.84375 244.566406 190.007812 244.511719 191.164062 244.398438 C 192.324219 244.28125 193.472656 244.113281 194.617188 243.886719 C 195.757812 243.660156 196.886719 243.375 198 243.039062 C 199.113281 242.699219 200.207031 242.308594 201.285156 241.863281 C 202.359375 241.417969 203.410156 240.921875 204.4375 240.375 C 205.464844 239.824219 206.460938 239.226562 207.429688 238.582031 C 208.398438 237.933594 209.332031 237.242188 210.230469 236.503906 C 211.132812 235.765625 211.992188 234.988281 212.816406 234.164062 C 213.640625 233.339844 214.421875 232.480469 215.160156 231.582031 C 215.898438 230.683594 216.589844 229.75 217.238281 228.78125 C 217.886719 227.8125 218.484375 226.816406 219.03125 225.792969 C 219.582031 224.765625 220.078125 223.714844 220.523438 222.640625 C 220.96875 221.566406 221.359375 220.472656 221.699219 219.359375 C 222.035156 218.246094 222.320312 217.117188 222.546875 215.976562 C 222.773438 214.835938 222.945312 213.6875 223.058594 212.527344 C 223.171875 211.371094 223.230469 210.210938 223.230469 209.046875 C 223.230469 207.882812 223.171875 206.722656 223.058594 205.566406 C 222.941406 204.40625 222.773438 203.257812 222.546875 202.117188 C 222.316406 200.976562 222.035156 199.847656 221.699219 198.734375 C 221.359375 197.621094 220.96875 196.527344 220.523438 195.453125 C 220.078125 194.378906 219.578125 193.328125 219.03125 192.300781 C 218.480469 191.277344 217.882812 190.28125 217.238281 189.3125 C 216.589844 188.347656 215.898438 187.414062 215.160156 186.511719 C 214.417969 185.613281 213.640625 184.753906 212.816406 183.929688 C 211.992188 183.109375 211.128906 182.328125 210.230469 181.589844 C 209.332031 180.851562 208.398438 180.160156 207.429688 179.515625 C 206.460938 178.867188 205.464844 178.269531 204.4375 177.722656 C 203.410156 177.171875 202.359375 176.675781 201.285156 176.230469 C 200.207031 175.785156 199.113281 175.394531 198 175.058594 C 196.882812 174.71875 195.757812 174.4375 194.613281 174.210938 C 193.472656 173.984375 192.324219 173.8125 191.164062 173.699219 C 190.003906 173.585938 188.84375 173.527344 187.679688 173.527344 Z M 187.679688 173.523438 "/></g></g></svg>