<svg xmlns="http://www.w3.org/2000/svg" xmlns:xlink="http://www.w3.org/1999/xlink" width="500" zoomAndPan="magnify" viewBox="0 0 375 374.999991" height="500" preserveAspectRatio="xMidYMid meet" version="1.2"><defs><clipPath id="389bdbe1a8"><path d="M 248 164 L 337.863281 164 L 337.863281 368 L 248 368 Z M 248 164 "/></clipPath><clipPath id="b9c988bc88"><path d="M 33.363281 164 L 123 164 L 123 368 L 33.363281 368 Z M 33.363281 164 "/></clipPath></defs><g id="6a6aadf36b"><path style=" stroke:none;fill-rule:nonzero;fill:#231f20;fill-opacity:1;" d="M 316.042969 30.410156 C 309.117188 23.492188 297.886719 23.492188 290.957031 30.410156 L 241.789062 79.519531 C 227.292969 94 207.625 102.136719 187.121094 102.136719 C 166.617188 102.136719 146.953125 94 132.453125 79.519531 L 82.964844 30.089844 C 76.039062 23.171875 64.804688 23.171875 57.878906 30.089844 C 50.949219 37.007812 50.949219 48.226562 57.878906 55.144531 L 134.203125 131.378906 L 134.203125 352.324219 C 134.203125 364.84375 144.363281 374.996094 156.902344 374.996094 C 169.4375 374.996094 179.601562 364.847656 179.601562 352.324219 L 179.601562 251.105469 C 179.601562 247.683594 182.402344 244.78125 185.828125 244.84375 C 189.148438 244.90625 191.824219 247.613281 191.824219 250.945312 L 191.824219 352.324219 C 191.824219 364.84375 201.984375 374.996094 214.523438 374.996094 C 227.058594 374.996094 237.21875 364.84375 237.21875 352.324219 L 237.21875 134.195312 L 316.042969 55.464844 C 322.972656 48.546875 322.972656 37.328125 316.042969 30.410156 Z M 316.042969 30.410156 "/><path style=" stroke:none;fill-rule:nonzero;fill:#231f20;fill-opacity:1;" d="M 213.582031 26.589844 C 214.457031 27.460938 215.28125 28.375 216.066406 29.324219 C 216.847656 30.277344 217.582031 31.265625 218.265625 32.289062 C 218.953125 33.3125 219.585938 34.371094 220.167969 35.457031 C 220.746094 36.542969 221.273438 37.652344 221.746094 38.792969 C 222.21875 39.929688 222.632812 41.089844 222.992188 42.265625 C 223.347656 43.445312 223.648438 44.640625 223.890625 45.847656 C 224.128906 47.054688 224.308594 48.273438 224.429688 49.496094 C 224.550781 50.722656 224.613281 51.953125 224.613281 53.183594 C 224.613281 54.414062 224.550781 55.644531 224.429688 56.871094 C 224.308594 58.097656 224.128906 59.3125 223.890625 60.519531 C 223.648438 61.730469 223.347656 62.921875 222.992188 64.101562 C 222.632812 65.28125 222.21875 66.4375 221.746094 67.574219 C 221.273438 68.714844 220.75 69.824219 220.167969 70.914062 C 219.585938 72 218.953125 73.054688 218.265625 74.078125 C 217.582031 75.101562 216.847656 76.089844 216.066406 77.042969 C 215.285156 77.996094 214.457031 78.90625 213.585938 79.777344 C 212.710938 80.648438 211.800781 81.472656 210.847656 82.253906 C 209.894531 83.035156 208.90625 83.769531 207.878906 84.453125 C 206.855469 85.136719 205.796875 85.769531 204.710938 86.351562 C 203.621094 86.933594 202.507812 87.457031 201.371094 87.929688 C 200.230469 88.402344 199.070312 88.816406 197.890625 89.171875 C 196.710938 89.53125 195.515625 89.828125 194.304688 90.070312 C 193.097656 90.308594 191.878906 90.492188 190.652344 90.613281 C 189.421875 90.730469 188.191406 90.792969 186.960938 90.792969 C 185.726562 90.792969 184.496094 90.730469 183.269531 90.613281 C 182.042969 90.492188 180.824219 90.308594 179.613281 90.070312 C 178.40625 89.828125 177.210938 89.53125 176.03125 89.171875 C 174.851562 88.816406 173.691406 88.402344 172.550781 87.929688 C 171.410156 87.457031 170.296875 86.933594 169.210938 86.351562 C 168.121094 85.773438 167.066406 85.140625 166.042969 84.453125 C 165.015625 83.769531 164.027344 83.039062 163.074219 82.257812 C 162.121094 81.476562 161.207031 80.648438 160.335938 79.777344 C 159.464844 78.90625 158.636719 77.996094 157.855469 77.042969 C 157.070312 76.089844 156.335938 75.101562 155.652344 74.078125 C 154.96875 73.054688 154.335938 72 153.753906 70.914062 C 153.171875 69.828125 152.644531 68.714844 152.171875 67.578125 C 151.699219 66.4375 151.285156 65.28125 150.929688 64.101562 C 150.570312 62.921875 150.269531 61.730469 150.03125 60.523438 C 149.789062 59.3125 149.609375 58.097656 149.488281 56.871094 C 149.367188 55.644531 149.304688 54.417969 149.304688 53.183594 C 149.304688 51.953125 149.367188 50.726562 149.488281 49.5 C 149.609375 48.273438 149.789062 47.054688 150.03125 45.847656 C 150.269531 44.640625 150.570312 43.445312 150.925781 42.269531 C 151.285156 41.089844 151.699219 39.929688 152.171875 38.792969 C 152.644531 37.65625 153.171875 36.542969 153.753906 35.457031 C 154.332031 34.371094 154.964844 33.316406 155.652344 32.289062 C 156.335938 31.265625 157.070312 30.277344 157.851562 29.328125 C 158.636719 28.375 159.460938 27.460938 160.335938 26.59375 C 161.207031 25.722656 162.117188 24.894531 163.070312 24.113281 C 164.023438 23.332031 165.015625 22.597656 166.039062 21.914062 C 167.066406 21.230469 168.121094 20.597656 169.210938 20.015625 C 170.296875 19.4375 171.410156 18.910156 172.550781 18.4375 C 173.6875 17.96875 174.847656 17.554688 176.027344 17.195312 C 177.207031 16.839844 178.402344 16.539062 179.613281 16.300781 C 180.824219 16.058594 182.039062 15.878906 183.269531 15.757812 C 184.496094 15.636719 185.726562 15.578125 186.957031 15.578125 C 188.191406 15.578125 189.421875 15.636719 190.648438 15.757812 C 191.875 15.878906 193.09375 16.058594 194.304688 16.296875 C 195.515625 16.539062 196.707031 16.839844 197.890625 17.195312 C 199.070312 17.554688 200.230469 17.96875 201.367188 18.4375 C 202.507812 18.910156 203.621094 19.4375 204.707031 20.015625 C 205.796875 20.597656 206.851562 21.230469 207.878906 21.914062 C 208.902344 22.597656 209.894531 23.332031 210.847656 24.113281 C 211.800781 24.894531 212.710938 25.71875 213.582031 26.589844 Z M 213.582031 26.589844 "/><g clip-rule="nonzero" clip-path="url(#389bdbe1a8)"><path style=" stroke:none;fill-rule:nonzero;fill:#231f20;fill-opacity:1;" d="M 316.941406 164.441406 L 316.941406 164.429688 L 248.953125 164.429688 L 248.953125 354.785156 C 248.953125 361.648438 254.523438 367.214844 261.394531 367.214844 C 268.269531 367.214844 273.839844 361.648438 273.839844 354.785156 L 273.839844 270.925781 C 273.839844 267.417969 276.539062 264.402344 280.042969 264.238281 C 283.785156 264.0625 286.875 267.039062 286.875 270.742188 L 286.875 354.523438 C 286.875 361.296875 292.191406 367.023438 298.96875 367.207031 C 306 367.402344 311.761719 361.765625 311.761719 354.785156 L 311.761719 195.265625 C 311.761719 193.957031 312.824219 192.898438 314.132812 192.898438 C 315.441406 192.898438 316.503906 193.957031 316.503906 195.265625 L 316.503906 242.921875 C 316.503906 248.804688 321.277344 253.578125 327.167969 253.578125 C 333.058594 253.578125 337.835938 248.804688 337.835938 242.921875 L 337.835938 185.734375 C 337.835938 174.117188 328.519531 164.675781 316.941406 164.441406 Z M 316.941406 164.441406 "/></g><path style=" stroke:none;fill-rule:nonzero;fill:#231f20;fill-opacity:1;" d="M 295.84375 119.324219 C 296.398438 119.878906 296.925781 120.460938 297.421875 121.066406 C 297.921875 121.675781 298.390625 122.304688 298.828125 122.957031 C 299.261719 123.609375 299.667969 124.28125 300.039062 124.976562 C 300.40625 125.667969 300.742188 126.375 301.042969 127.101562 C 301.34375 127.828125 301.609375 128.566406 301.835938 129.316406 C 302.066406 130.066406 302.257812 130.828125 302.410156 131.597656 C 302.5625 132.367188 302.679688 133.144531 302.753906 133.925781 C 302.832031 134.707031 302.871094 135.488281 302.871094 136.273438 C 302.871094 137.058594 302.832031 137.84375 302.753906 138.625 C 302.679688 139.40625 302.5625 140.179688 302.410156 140.949219 C 302.257812 141.71875 302.066406 142.480469 301.835938 143.230469 C 301.609375 143.984375 301.34375 144.722656 301.042969 145.445312 C 300.742188 146.171875 300.40625 146.882812 300.039062 147.574219 C 299.667969 148.265625 299.261719 148.9375 298.828125 149.589844 C 298.390625 150.242188 297.921875 150.875 297.425781 151.480469 C 296.925781 152.085938 296.398438 152.667969 295.84375 153.222656 C 295.285156 153.777344 294.707031 154.304688 294.097656 154.804688 C 293.488281 155.300781 292.859375 155.769531 292.207031 156.203125 C 291.550781 156.640625 290.878906 157.042969 290.1875 157.414062 C 289.492188 157.785156 288.78125 158.117188 288.058594 158.417969 C 287.332031 158.71875 286.589844 158.984375 285.839844 159.210938 C 285.085938 159.441406 284.324219 159.628906 283.554688 159.785156 C 282.785156 159.9375 282.007812 160.050781 281.226562 160.128906 C 280.441406 160.207031 279.660156 160.242188 278.875 160.242188 C 278.085938 160.242188 277.304688 160.207031 276.519531 160.128906 C 275.738281 160.050781 274.960938 159.9375 274.191406 159.785156 C 273.421875 159.628906 272.660156 159.441406 271.90625 159.210938 C 271.15625 158.984375 270.414062 158.71875 269.6875 158.417969 C 268.964844 158.121094 268.253906 157.785156 267.558594 157.414062 C 266.867188 157.042969 266.195312 156.640625 265.539062 156.203125 C 264.886719 155.769531 264.257812 155.300781 263.648438 154.804688 C 263.042969 154.304688 262.460938 153.777344 261.902344 153.222656 C 261.347656 152.667969 260.820312 152.085938 260.320312 151.480469 C 259.824219 150.875 259.355469 150.246094 258.917969 149.589844 C 258.484375 148.9375 258.078125 148.265625 257.707031 147.574219 C 257.335938 146.882812 257.003906 146.171875 256.703125 145.449219 C 256.402344 144.722656 256.136719 143.984375 255.90625 143.234375 C 255.679688 142.480469 255.488281 141.722656 255.335938 140.949219 C 255.183594 140.179688 255.066406 139.40625 254.988281 138.625 C 254.914062 137.84375 254.875 137.058594 254.875 136.273438 C 254.875 135.488281 254.914062 134.707031 254.988281 133.925781 C 255.066406 133.144531 255.183594 132.367188 255.335938 131.597656 C 255.488281 130.828125 255.679688 130.066406 255.90625 129.316406 C 256.136719 128.566406 256.398438 127.828125 256.699219 127.101562 C 257 126.375 257.335938 125.667969 257.707031 124.976562 C 258.078125 124.28125 258.480469 123.609375 258.917969 122.957031 C 259.355469 122.304688 259.824219 121.675781 260.320312 121.070312 C 260.820312 120.460938 261.347656 119.878906 261.902344 119.324219 C 262.457031 118.769531 263.039062 118.242188 263.648438 117.746094 C 264.253906 117.246094 264.886719 116.78125 265.539062 116.34375 C 266.191406 115.910156 266.867188 115.503906 267.558594 115.136719 C 268.253906 114.765625 268.960938 114.429688 269.6875 114.128906 C 270.414062 113.828125 271.152344 113.566406 271.90625 113.335938 C 272.660156 113.109375 273.417969 112.917969 274.191406 112.765625 C 274.960938 112.613281 275.738281 112.496094 276.519531 112.421875 C 277.300781 112.34375 278.085938 112.304688 278.871094 112.304688 C 279.660156 112.304688 280.441406 112.34375 281.226562 112.421875 C 282.007812 112.496094 282.785156 112.613281 283.554688 112.765625 C 284.324219 112.917969 285.085938 113.109375 285.839844 113.335938 C 286.589844 113.566406 287.328125 113.828125 288.054688 114.128906 C 288.78125 114.429688 289.492188 114.765625 290.183594 115.136719 C 290.878906 115.503906 291.550781 115.90625 292.207031 116.34375 C 292.859375 116.78125 293.488281 117.246094 294.097656 117.746094 C 294.703125 118.242188 295.285156 118.769531 295.84375 119.324219 Z M 295.84375 119.324219 "/><g clip-rule="nonzero" clip-path="url(#b9c988bc88)"><path style=" stroke:none;fill-rule:nonzero;fill:#231f20;fill-opacity:1;" d="M 59.460938 164.429688 L 54.285156 164.429688 L 54.285156 164.441406 C 42.707031 164.675781 33.390625 174.117188 33.390625 185.734375 L 33.390625 242.921875 C 33.390625 248.804688 38.167969 253.578125 44.058594 253.578125 C 49.949219 253.578125 54.722656 248.804688 54.722656 242.921875 L 54.722656 195.265625 C 54.722656 193.957031 55.785156 192.898438 57.09375 192.898438 C 58.402344 192.898438 59.464844 193.957031 59.464844 195.265625 L 59.464844 354.785156 C 59.464844 361.765625 65.226562 367.402344 72.257812 367.207031 C 79.035156 367.023438 84.351562 361.296875 84.351562 354.523438 L 84.351562 270.742188 C 84.351562 267.039062 87.441406 264.0625 91.183594 264.238281 C 94.6875 264.402344 97.386719 267.417969 97.386719 270.925781 L 97.386719 354.785156 C 97.386719 361.648438 102.957031 367.214844 109.832031 367.214844 C 116.703125 367.214844 122.273438 361.648438 122.273438 354.785156 L 122.273438 164.429688 Z M 59.460938 164.429688 "/></g><path style=" stroke:none;fill-rule:nonzero;fill:#231f20;fill-opacity:1;" d="M 109.316406 119.324219 C 109.871094 119.878906 110.398438 120.460938 110.898438 121.066406 C 111.398438 121.671875 111.863281 122.304688 112.300781 122.957031 C 112.738281 123.609375 113.140625 124.28125 113.511719 124.972656 C 113.882812 125.664062 114.21875 126.375 114.519531 127.101562 C 114.820312 127.824219 115.085938 128.5625 115.3125 129.316406 C 115.542969 130.066406 115.730469 130.828125 115.886719 131.597656 C 116.039062 132.367188 116.152344 133.140625 116.230469 133.921875 C 116.308594 134.703125 116.347656 135.488281 116.347656 136.273438 C 116.347656 137.058594 116.308594 137.839844 116.230469 138.621094 C 116.152344 139.402344 116.039062 140.179688 115.886719 140.949219 C 115.730469 141.71875 115.542969 142.480469 115.3125 143.230469 C 115.085938 143.980469 114.820312 144.71875 114.519531 145.445312 C 114.21875 146.171875 113.882812 146.878906 113.511719 147.570312 C 113.140625 148.265625 112.738281 148.9375 112.300781 149.589844 C 111.867188 150.242188 111.398438 150.871094 110.898438 151.480469 C 110.402344 152.085938 109.875 152.667969 109.316406 153.222656 C 108.761719 153.777344 108.179688 154.304688 107.574219 154.800781 C 106.964844 155.300781 106.335938 155.765625 105.679688 156.203125 C 105.027344 156.640625 104.355469 157.042969 103.660156 157.414062 C 102.96875 157.78125 102.257812 158.117188 101.53125 158.417969 C 100.804688 158.71875 100.066406 158.984375 99.316406 159.210938 C 98.5625 159.4375 97.800781 159.628906 97.03125 159.78125 C 96.257812 159.933594 95.484375 160.050781 94.699219 160.128906 C 93.917969 160.203125 93.132812 160.242188 92.347656 160.242188 C 91.5625 160.242188 90.777344 160.203125 89.996094 160.128906 C 89.214844 160.050781 88.4375 159.9375 87.667969 159.78125 C 86.894531 159.628906 86.132812 159.4375 85.382812 159.210938 C 84.628906 158.984375 83.890625 158.71875 83.164062 158.417969 C 82.4375 158.117188 81.730469 157.78125 81.035156 157.414062 C 80.34375 157.042969 79.667969 156.640625 79.015625 156.203125 C 78.363281 155.765625 77.730469 155.300781 77.125 154.800781 C 76.515625 154.304688 75.933594 153.777344 75.378906 153.222656 C 74.824219 152.667969 74.296875 152.085938 73.796875 151.480469 C 73.296875 150.871094 72.832031 150.242188 72.394531 149.589844 C 71.957031 148.9375 71.554688 148.265625 71.183594 147.574219 C 70.8125 146.878906 70.476562 146.171875 70.175781 145.445312 C 69.875 144.722656 69.613281 143.984375 69.382812 143.230469 C 69.15625 142.480469 68.964844 141.71875 68.8125 140.949219 C 68.65625 140.179688 68.542969 139.40625 68.464844 138.625 C 68.386719 137.84375 68.351562 137.058594 68.351562 136.273438 C 68.351562 135.488281 68.386719 134.707031 68.464844 133.925781 C 68.542969 133.144531 68.65625 132.367188 68.8125 131.597656 C 68.964844 130.828125 69.15625 130.066406 69.382812 129.316406 C 69.609375 128.5625 69.875 127.824219 70.175781 127.101562 C 70.476562 126.375 70.8125 125.667969 71.183594 124.972656 C 71.554688 124.28125 71.957031 123.609375 72.394531 122.957031 C 72.832031 122.304688 73.296875 121.675781 73.796875 121.066406 C 74.296875 120.460938 74.824219 119.878906 75.378906 119.324219 C 75.933594 118.769531 76.515625 118.242188 77.125 117.746094 C 77.730469 117.246094 78.363281 116.78125 79.015625 116.34375 C 79.667969 115.90625 80.34375 115.503906 81.035156 115.132812 C 81.726562 114.765625 82.4375 114.429688 83.164062 114.128906 C 83.890625 113.828125 84.628906 113.5625 85.382812 113.335938 C 86.132812 113.109375 86.894531 112.917969 87.664062 112.765625 C 88.4375 112.609375 89.214844 112.496094 89.996094 112.417969 C 90.777344 112.34375 91.5625 112.304688 92.347656 112.304688 C 93.132812 112.304688 93.917969 112.34375 94.699219 112.417969 C 95.480469 112.496094 96.257812 112.609375 97.03125 112.765625 C 97.800781 112.917969 98.5625 113.109375 99.3125 113.335938 C 100.066406 113.5625 100.804688 113.828125 101.53125 114.128906 C 102.257812 114.429688 102.96875 114.761719 103.660156 115.132812 C 104.355469 115.503906 105.027344 115.90625 105.679688 116.34375 C 106.335938 116.777344 106.964844 117.246094 107.570312 117.746094 C 108.179688 118.242188 108.761719 118.769531 109.316406 119.324219 Z M 109.316406 119.324219 "/></g></svg>