<svg xmlns="http://www.w3.org/2000/svg" xmlns:xlink="http://www.w3.org/1999/xlink" width="500" zoomAndPan="magnify" viewBox="0 0 375 374.999991" height="500" preserveAspectRatio="xMidYMid meet" version="1.2"><g id="3e4b708983"><path style=" stroke:none;fill-rule:nonzero;fill:#000000;fill-opacity:1;" d="M 309.074219 247.984375 C 305.613281 247.980469 302.179688 248.273438 298.769531 248.863281 C 295.363281 249.453125 292.027344 250.328125 288.769531 251.496094 C 285.511719 252.660156 282.378906 254.09375 279.371094 255.800781 C 276.359375 257.507812 273.519531 259.457031 270.847656 261.652344 L 247.742188 238.609375 C 249.257812 236.851562 250.695312 235.027344 252.046875 233.140625 C 253.402344 231.253906 254.667969 229.3125 255.851562 227.3125 C 257.03125 225.3125 258.121094 223.265625 259.121094 221.171875 C 260.121094 219.074219 261.023438 216.9375 261.832031 214.761719 C 262.640625 212.585938 263.351562 210.375 263.964844 208.136719 C 264.574219 205.898438 265.085938 203.632812 265.5 201.347656 C 265.910156 199.0625 266.21875 196.765625 266.425781 194.453125 C 266.628906 192.140625 266.734375 189.820312 266.734375 187.5 C 266.734375 185.179688 266.628906 182.859375 266.425781 180.546875 C 266.21875 178.234375 265.910156 175.9375 265.5 173.652344 C 265.085938 171.363281 264.574219 169.101562 263.964844 166.863281 C 263.351562 164.625 262.640625 162.414062 261.832031 160.238281 C 261.023438 158.0625 260.121094 155.925781 259.121094 153.828125 C 258.121094 151.734375 257.03125 149.683594 255.851562 147.6875 C 254.667969 145.6875 253.402344 143.746094 252.046875 141.859375 C 250.695312 139.972656 249.257812 138.148438 247.742188 136.390625 L 267.339844 116.792969 C 270.753906 119.460938 274.464844 121.628906 278.46875 123.289062 C 282.472656 124.953125 286.625 126.054688 290.925781 126.59375 L 290.925781 139.960938 C 290.457031 140.082031 289.992188 140.214844 289.53125 140.367188 C 289.066406 140.515625 288.609375 140.679688 288.160156 140.855469 C 287.707031 141.03125 287.257812 141.222656 286.820312 141.425781 C 286.378906 141.628906 285.945312 141.847656 285.515625 142.078125 C 285.089844 142.308594 284.667969 142.550781 284.253906 142.804688 C 283.84375 143.058594 283.4375 143.328125 283.039062 143.609375 C 282.644531 143.886719 282.257812 144.179688 281.875 144.480469 C 281.496094 144.785156 281.128906 145.097656 280.765625 145.425781 C 280.40625 145.75 280.054688 146.085938 279.714844 146.429688 C 279.375 146.777344 279.046875 147.132812 278.726562 147.5 C 278.410156 147.867188 278.101562 148.242188 277.804688 148.625 C 277.507812 149.011719 277.222656 149.40625 276.953125 149.804688 C 276.679688 150.207031 276.417969 150.617188 276.171875 151.035156 C 275.921875 151.453125 275.6875 151.878906 275.464844 152.308594 C 275.242188 152.742188 275.035156 153.179688 274.839844 153.621094 C 274.644531 154.066406 274.460938 154.515625 274.292969 154.972656 C 274.125 155.425781 273.96875 155.886719 273.828125 156.351562 C 273.6875 156.816406 273.558594 157.285156 273.445312 157.757812 C 273.332031 158.230469 273.234375 158.703125 273.148438 159.183594 C 273.066406 159.660156 272.996094 160.140625 272.941406 160.625 C 272.886719 161.105469 272.84375 161.589844 272.816406 162.074219 C 272.792969 162.558594 272.78125 163.042969 272.78125 163.53125 C 272.785156 164.015625 272.804688 164.5 272.835938 164.984375 C 272.867188 165.46875 272.914062 165.953125 272.976562 166.433594 C 273.035156 166.914062 273.113281 167.394531 273.203125 167.871094 C 273.292969 168.347656 273.394531 168.824219 273.515625 169.292969 C 273.632812 169.765625 273.765625 170.230469 273.914062 170.695312 C 274.058594 171.15625 274.21875 171.613281 274.394531 172.066406 C 274.566406 172.519531 274.757812 172.96875 274.957031 173.410156 C 275.160156 173.851562 275.371094 174.289062 275.601562 174.714844 C 275.828125 175.144531 276.066406 175.566406 276.320312 175.980469 C 276.574219 176.394531 276.839844 176.804688 277.117188 177.203125 C 277.394531 177.601562 277.683594 177.988281 277.984375 178.371094 C 278.285156 178.753906 278.59375 179.125 278.917969 179.488281 C 279.242188 179.847656 279.574219 180.199219 279.917969 180.542969 C 280.265625 180.886719 280.617188 181.21875 280.984375 181.539062 C 281.347656 181.859375 281.71875 182.167969 282.101562 182.46875 C 282.484375 182.765625 282.878906 183.050781 283.277344 183.328125 C 283.679688 183.601562 284.085938 183.863281 284.503906 184.113281 C 284.917969 184.367188 285.339844 184.601562 285.773438 184.828125 C 286.203125 185.054688 286.640625 185.265625 287.082031 185.464844 C 287.523438 185.660156 287.972656 185.847656 288.429688 186.019531 C 288.882812 186.191406 289.339844 186.347656 289.804688 186.492188 C 290.269531 186.636719 290.734375 186.765625 291.207031 186.878906 C 291.679688 186.996094 292.152344 187.097656 292.632812 187.183594 C 293.109375 187.273438 293.589844 187.34375 294.070312 187.402344 C 294.550781 187.460938 295.035156 187.503906 295.519531 187.535156 C 296.003906 187.5625 296.492188 187.578125 296.976562 187.578125 C 297.460938 187.578125 297.945312 187.5625 298.429688 187.535156 C 298.914062 187.503906 299.398438 187.460938 299.882812 187.402344 C 300.363281 187.34375 300.84375 187.273438 301.320312 187.183594 C 301.796875 187.097656 302.273438 186.996094 302.742188 186.878906 C 303.214844 186.765625 303.683594 186.636719 304.148438 186.492188 C 304.609375 186.347656 305.070312 186.191406 305.523438 186.019531 C 305.976562 185.847656 306.425781 185.660156 306.871094 185.464844 C 307.3125 185.265625 307.75 185.054688 308.179688 184.828125 C 308.609375 184.601562 309.035156 184.367188 309.449219 184.113281 C 309.867188 183.863281 310.273438 183.601562 310.671875 183.328125 C 311.074219 183.050781 311.464844 182.765625 311.847656 182.46875 C 312.230469 182.167969 312.605469 181.859375 312.96875 181.539062 C 313.332031 181.21875 313.6875 180.886719 314.03125 180.542969 C 314.375 180.199219 314.710938 179.847656 315.035156 179.488281 C 315.355469 179.125 315.667969 178.753906 315.96875 178.371094 C 316.269531 177.988281 316.558594 177.601562 316.835938 177.203125 C 317.113281 176.804688 317.378906 176.394531 317.632812 175.980469 C 317.882812 175.566406 318.125 175.144531 318.351562 174.714844 C 318.578125 174.289062 318.792969 173.851562 318.996094 173.410156 C 319.195312 172.96875 319.382812 172.519531 319.558594 172.066406 C 319.730469 171.613281 319.890625 171.15625 320.039062 170.695312 C 320.1875 170.230469 320.316406 169.765625 320.4375 169.292969 C 320.554688 168.824219 320.660156 168.347656 320.75 167.871094 C 320.839844 167.394531 320.914062 166.914062 320.976562 166.433594 C 321.039062 165.953125 321.085938 165.46875 321.117188 164.984375 C 321.148438 164.5 321.164062 164.015625 321.167969 163.53125 C 321.171875 163.042969 321.160156 162.558594 321.132812 162.074219 C 321.109375 161.589844 321.066406 161.105469 321.011719 160.625 C 320.957031 160.140625 320.886719 159.660156 320.800781 159.183594 C 320.71875 158.703125 320.617188 158.230469 320.503906 157.757812 C 320.394531 157.285156 320.265625 156.816406 320.125 156.351562 C 319.984375 155.886719 319.828125 155.425781 319.660156 154.972656 C 319.492188 154.515625 319.308594 154.066406 319.113281 153.625 C 318.917969 153.179688 318.707031 152.742188 318.484375 152.308594 C 318.261719 151.878906 318.027344 151.453125 317.78125 151.035156 C 317.53125 150.617188 317.273438 150.207031 317 149.804688 C 316.726562 149.40625 316.441406 149.011719 316.148438 148.625 C 315.851562 148.242188 315.542969 147.867188 315.222656 147.5 C 314.90625 147.132812 314.574219 146.777344 314.234375 146.429688 C 313.894531 146.085938 313.546875 145.75 313.183594 145.425781 C 312.824219 145.097656 312.453125 144.785156 312.074219 144.480469 C 311.695312 144.179688 311.308594 143.886719 310.910156 143.609375 C 310.515625 143.328125 310.109375 143.058594 309.695312 142.804688 C 309.28125 142.550781 308.863281 142.308594 308.433594 142.078125 C 308.007812 141.847656 307.574219 141.628906 307.132812 141.425781 C 306.691406 141.222656 306.246094 141.03125 305.792969 140.855469 C 305.339844 140.679688 304.882812 140.515625 304.421875 140.367188 C 303.960938 140.214844 303.496094 140.082031 303.023438 139.960938 L 303.023438 126.59375 C 304.511719 126.40625 305.992188 126.152344 307.457031 125.828125 C 308.921875 125.503906 310.371094 125.113281 311.800781 124.65625 C 313.230469 124.195312 314.632812 123.671875 316.015625 123.085938 C 317.394531 122.496094 318.746094 121.84375 320.066406 121.128906 C 321.386719 120.414062 322.667969 119.640625 323.917969 118.804688 C 325.164062 117.972656 326.371094 117.082031 327.535156 116.132812 C 328.703125 115.1875 329.820312 114.191406 330.890625 113.140625 C 331.964844 112.089844 332.984375 110.992188 333.953125 109.84375 C 334.925781 108.699219 335.839844 107.511719 336.699219 106.28125 C 337.558594 105.050781 338.359375 103.78125 339.101562 102.476562 C 339.839844 101.171875 340.519531 99.835938 341.136719 98.464844 C 341.753906 97.097656 342.304688 95.703125 342.792969 94.285156 C 343.28125 92.863281 343.699219 91.425781 344.054688 89.964844 C 344.40625 88.507812 344.691406 87.035156 344.910156 85.550781 C 345.125 84.0625 345.269531 82.570312 345.347656 81.074219 C 345.425781 79.574219 345.433594 78.074219 345.371094 76.574219 C 345.308594 75.074219 345.175781 73.582031 344.976562 72.09375 C 344.773438 70.605469 344.503906 69.132812 344.167969 67.667969 C 343.828125 66.207031 343.421875 64.761719 342.949219 63.339844 C 342.476562 61.914062 341.941406 60.515625 341.335938 59.140625 C 340.734375 57.765625 340.066406 56.421875 339.339844 55.109375 C 338.613281 53.796875 337.824219 52.519531 336.976562 51.28125 C 336.132812 50.042969 335.226562 48.84375 334.269531 47.6875 C 333.3125 46.535156 332.300781 45.425781 331.242188 44.363281 C 330.179688 43.300781 329.070312 42.292969 327.914062 41.335938 C 326.761719 40.375 325.5625 39.472656 324.324219 38.628906 C 323.085938 37.78125 321.808594 36.992188 320.496094 36.265625 C 319.183594 35.535156 317.839844 34.871094 316.464844 34.269531 C 315.089844 33.664062 313.691406 33.128906 312.265625 32.65625 C 310.839844 32.183594 309.398438 31.777344 307.9375 31.4375 C 306.472656 31.097656 305 30.828125 303.511719 30.628906 C 302.023438 30.425781 300.53125 30.296875 299.03125 30.234375 C 297.53125 30.171875 296.03125 30.179688 294.53125 30.257812 C 293.03125 30.332031 291.539062 30.480469 290.054688 30.695312 C 288.570312 30.914062 287.097656 31.199219 285.640625 31.550781 C 284.179688 31.902344 282.742188 32.324219 281.320312 32.8125 C 279.902344 33.296875 278.507812 33.851562 277.140625 34.46875 C 275.769531 35.085938 274.433594 35.761719 273.128906 36.503906 C 271.824219 37.246094 270.554688 38.046875 269.324219 38.90625 C 268.09375 39.765625 266.90625 40.679688 265.761719 41.648438 C 264.613281 42.621094 263.515625 43.640625 262.464844 44.710938 C 261.414062 45.785156 260.417969 46.902344 259.46875 48.070312 C 258.523438 49.234375 257.632812 50.441406 256.800781 51.6875 C 255.964844 52.9375 255.191406 54.21875 254.476562 55.539062 C 253.761719 56.859375 253.109375 58.210938 252.519531 59.589844 C 251.929688 60.972656 251.40625 62.375 250.949219 63.804688 C 250.492188 65.234375 250.101562 66.683594 249.777344 68.148438 C 249.453125 69.613281 249.199219 71.089844 249.011719 72.582031 L 235.644531 72.582031 C 235.523438 72.109375 235.386719 71.644531 235.238281 71.183594 C 235.089844 70.71875 234.925781 70.261719 234.75 69.8125 C 234.574219 69.359375 234.382812 68.914062 234.179688 68.472656 C 233.972656 68.03125 233.757812 67.597656 233.527344 67.167969 C 233.296875 66.742188 233.054688 66.320312 232.800781 65.910156 C 232.542969 65.496094 232.277344 65.089844 231.996094 64.695312 C 231.71875 64.296875 231.425781 63.910156 231.125 63.53125 C 230.820312 63.152344 230.507812 62.78125 230.179688 62.421875 C 229.855469 62.058594 229.519531 61.710938 229.171875 61.367188 C 228.828125 61.027344 228.472656 60.699219 228.105469 60.378906 C 227.738281 60.0625 227.363281 59.753906 226.976562 59.457031 C 226.59375 59.160156 226.199219 58.878906 225.796875 58.605469 C 225.394531 58.332031 224.988281 58.074219 224.570312 57.824219 C 224.152344 57.578125 223.726562 57.34375 223.296875 57.121094 C 222.863281 56.898438 222.425781 56.6875 221.980469 56.492188 C 221.539062 56.296875 221.085938 56.113281 220.632812 55.945312 C 220.175781 55.777344 219.71875 55.621094 219.253906 55.480469 C 218.789062 55.339844 218.320312 55.210938 217.847656 55.097656 C 217.375 54.984375 216.902344 54.886719 216.421875 54.804688 C 215.945312 54.71875 215.464844 54.648438 214.980469 54.59375 C 214.5 54.539062 214.015625 54.496094 213.53125 54.472656 C 213.046875 54.445312 212.5625 54.433594 212.074219 54.4375 C 211.589844 54.4375 211.105469 54.457031 210.621094 54.488281 C 210.136719 54.519531 209.652344 54.566406 209.171875 54.628906 C 208.691406 54.691406 208.210938 54.765625 207.734375 54.855469 C 207.257812 54.945312 206.78125 55.050781 206.3125 55.167969 C 205.839844 55.285156 205.375 55.417969 204.910156 55.566406 C 204.449219 55.710938 203.988281 55.875 203.535156 56.046875 C 203.082031 56.222656 202.636719 56.410156 202.195312 56.609375 C 201.753906 56.8125 201.316406 57.027344 200.886719 57.253906 C 200.460938 57.480469 200.039062 57.722656 199.621094 57.972656 C 199.207031 58.226562 198.800781 58.492188 198.402344 58.769531 C 198.003906 59.046875 197.613281 59.335938 197.234375 59.636719 C 196.851562 59.9375 196.480469 60.25 196.117188 60.570312 C 195.757812 60.894531 195.402344 61.226562 195.0625 61.574219 C 194.71875 61.917969 194.386719 62.269531 194.066406 62.636719 C 193.746094 63 193.4375 63.375 193.136719 63.757812 C 192.839844 64.140625 192.550781 64.53125 192.277344 64.929688 C 192.003906 65.332031 191.738281 65.738281 191.488281 66.15625 C 191.238281 66.570312 191 66.996094 190.777344 67.425781 C 190.550781 67.855469 190.339844 68.292969 190.140625 68.734375 C 189.941406 69.179688 189.757812 69.625 189.585938 70.082031 C 189.414062 70.535156 189.257812 70.996094 189.113281 71.457031 C 188.96875 71.921875 188.839844 72.390625 188.722656 72.859375 C 188.609375 73.332031 188.507812 73.808594 188.417969 74.285156 C 188.332031 74.761719 188.257812 75.242188 188.203125 75.722656 C 188.144531 76.207031 188.097656 76.6875 188.070312 77.171875 C 188.039062 77.660156 188.027344 78.144531 188.027344 78.628906 C 188.027344 79.113281 188.039062 79.601562 188.070312 80.085938 C 188.097656 80.570312 188.144531 81.050781 188.203125 81.535156 C 188.257812 82.015625 188.332031 82.496094 188.417969 82.972656 C 188.507812 83.453125 188.609375 83.925781 188.722656 84.398438 C 188.839844 84.867188 188.96875 85.335938 189.113281 85.800781 C 189.257812 86.265625 189.414062 86.722656 189.585938 87.175781 C 189.757812 87.632812 189.941406 88.078125 190.140625 88.523438 C 190.339844 88.964844 190.550781 89.402344 190.777344 89.832031 C 191 90.261719 191.238281 90.6875 191.488281 91.101562 C 191.738281 91.519531 192.003906 91.925781 192.277344 92.328125 C 192.550781 92.726562 192.839844 93.117188 193.136719 93.5 C 193.4375 93.882812 193.746094 94.257812 194.066406 94.621094 C 194.386719 94.988281 194.71875 95.339844 195.0625 95.683594 C 195.402344 96.03125 195.757812 96.363281 196.117188 96.6875 C 196.480469 97.007812 196.851562 97.320312 197.234375 97.621094 C 197.613281 97.921875 198.003906 98.210938 198.402344 98.488281 C 198.800781 98.765625 199.207031 99.03125 199.621094 99.285156 C 200.039062 99.539062 200.460938 99.777344 200.886719 100.003906 C 201.316406 100.230469 201.753906 100.445312 202.195312 100.648438 C 202.636719 100.847656 203.082031 101.035156 203.535156 101.210938 C 203.988281 101.386719 204.449219 101.546875 204.910156 101.691406 C 205.375 101.839844 205.839844 101.972656 206.3125 102.089844 C 206.78125 102.207031 207.257812 102.3125 207.734375 102.402344 C 208.210938 102.492188 208.691406 102.570312 209.171875 102.628906 C 209.652344 102.691406 210.136719 102.738281 210.621094 102.769531 C 211.105469 102.800781 211.589844 102.820312 212.074219 102.820312 C 212.5625 102.824219 213.046875 102.8125 213.53125 102.785156 C 214.015625 102.761719 214.5 102.71875 214.980469 102.664062 C 215.464844 102.609375 215.945312 102.539062 216.421875 102.453125 C 216.902344 102.371094 217.375 102.273438 217.847656 102.160156 C 218.320312 102.046875 218.789062 101.917969 219.253906 101.777344 C 219.71875 101.636719 220.175781 101.480469 220.632812 101.3125 C 221.085938 101.144531 221.539062 100.960938 221.980469 100.765625 C 222.425781 100.570312 222.863281 100.359375 223.296875 100.136719 C 223.726562 99.917969 224.152344 99.679688 224.570312 99.433594 C 224.988281 99.183594 225.394531 98.925781 225.796875 98.652344 C 226.199219 98.378906 226.59375 98.097656 226.976562 97.800781 C 227.363281 97.503906 227.738281 97.195312 228.105469 96.878906 C 228.472656 96.558594 228.828125 96.230469 229.171875 95.890625 C 229.519531 95.546875 229.855469 95.199219 230.179688 94.839844 C 230.507812 94.476562 230.820312 94.109375 231.125 93.726562 C 231.425781 93.347656 231.71875 92.960938 231.996094 92.5625 C 232.277344 92.167969 232.542969 91.761719 232.800781 91.347656 C 233.054688 90.9375 233.296875 90.515625 233.527344 90.089844 C 233.757812 89.660156 233.972656 89.226562 234.179688 88.785156 C 234.382812 88.34375 234.574219 87.898438 234.75 87.445312 C 234.925781 86.996094 235.089844 86.539062 235.238281 86.074219 C 235.386719 85.613281 235.523438 85.148438 235.644531 84.675781 L 249.011719 84.675781 C 249.550781 88.980469 250.652344 93.132812 252.3125 97.136719 C 253.976562 101.140625 256.144531 104.847656 258.808594 108.265625 L 239.214844 127.863281 C 237.457031 126.347656 235.632812 124.910156 233.746094 123.558594 C 231.859375 122.203125 229.917969 120.9375 227.917969 119.753906 C 225.917969 118.574219 223.871094 117.484375 221.777344 116.484375 C 219.679688 115.484375 217.542969 114.582031 215.367188 113.773438 C 213.191406 112.964844 210.980469 112.253906 208.742188 111.640625 C 206.503906 111.027344 204.238281 110.515625 201.953125 110.105469 C 199.667969 109.695312 197.371094 109.386719 195.058594 109.179688 C 192.746094 108.972656 190.425781 108.871094 188.105469 108.871094 C 185.78125 108.871094 183.464844 108.972656 181.152344 109.179688 C 178.839844 109.386719 176.539062 109.695312 174.253906 110.105469 C 171.96875 110.515625 169.707031 111.027344 167.46875 111.640625 C 165.226562 112.253906 163.019531 112.964844 160.84375 113.773438 C 158.667969 114.582031 156.53125 115.484375 154.433594 116.484375 C 152.339844 117.484375 150.289062 118.574219 148.292969 119.753906 C 146.292969 120.9375 144.347656 122.203125 142.464844 123.558594 C 140.578125 124.910156 138.753906 126.347656 136.996094 127.863281 L 113.953125 104.757812 C 114.761719 103.769531 115.535156 102.753906 116.28125 101.714844 C 117.023438 100.675781 117.734375 99.613281 118.410156 98.53125 C 119.085938 97.449219 119.730469 96.34375 120.335938 95.21875 C 120.941406 94.09375 121.511719 92.953125 122.046875 91.789062 C 122.582031 90.628906 123.078125 89.453125 123.539062 88.261719 C 123.996094 87.070312 124.417969 85.863281 124.804688 84.644531 C 125.1875 83.425781 125.53125 82.195312 125.835938 80.957031 C 126.140625 79.714844 126.40625 78.464844 126.632812 77.207031 C 126.859375 75.949219 127.046875 74.6875 127.191406 73.417969 C 127.339844 72.148438 127.445312 70.875 127.507812 69.601562 C 127.574219 68.324219 127.601562 67.046875 127.585938 65.769531 C 127.570312 64.492188 127.511719 63.214844 127.417969 61.941406 C 127.320312 60.667969 127.183594 59.398438 127.007812 58.132812 C 126.832031 56.867188 126.613281 55.609375 126.355469 54.355469 C 126.101562 53.105469 125.804688 51.863281 125.46875 50.628906 C 125.132812 49.398438 124.761719 48.175781 124.347656 46.964844 C 123.933594 45.757812 123.484375 44.5625 122.996094 43.382812 C 122.507812 42.199219 121.980469 41.035156 121.421875 39.890625 C 120.859375 38.742188 120.261719 37.613281 119.625 36.503906 C 118.992188 35.394531 118.324219 34.304688 117.621094 33.238281 C 116.917969 32.171875 116.183594 31.128906 115.414062 30.105469 C 114.644531 29.085938 113.84375 28.089844 113.015625 27.121094 C 112.183594 26.152344 111.320312 25.210938 110.429688 24.292969 C 109.535156 23.378906 108.617188 22.492188 107.667969 21.636719 C 106.722656 20.777344 105.746094 19.953125 104.746094 19.15625 C 103.746094 18.363281 102.722656 17.597656 101.675781 16.867188 C 100.625 16.140625 99.554688 15.441406 98.464844 14.78125 C 97.371094 14.117188 96.257812 13.492188 95.125 12.898438 C 93.992188 12.304688 92.84375 11.75 91.675781 11.230469 C 90.507812 10.710938 89.324219 10.230469 88.128906 9.789062 C 86.929688 9.34375 85.71875 8.9375 84.496094 8.570312 C 83.269531 8.203125 82.035156 7.875 80.792969 7.585938 C 79.546875 7.296875 78.296875 7.046875 77.035156 6.835938 C 75.773438 6.628906 74.507812 6.457031 73.238281 6.328125 C 71.964844 6.199219 70.691406 6.109375 69.414062 6.058594 C 68.136719 6.011719 66.863281 6.003906 65.585938 6.035156 C 64.308594 6.066406 63.03125 6.140625 61.757812 6.253906 C 60.488281 6.367188 59.21875 6.519531 57.957031 6.710938 C 56.691406 6.90625 55.4375 7.136719 54.1875 7.410156 C 52.941406 7.683594 51.703125 7.996094 50.472656 8.347656 C 49.246094 8.699219 48.027344 9.089844 46.824219 9.515625 C 45.621094 9.945312 44.433594 10.410156 43.257812 10.914062 C 42.082031 11.417969 40.925781 11.960938 39.785156 12.535156 C 38.648438 13.113281 37.527344 13.726562 36.425781 14.375 C 35.324219 15.023438 34.246094 15.707031 33.1875 16.421875 C 32.128906 17.136719 31.09375 17.886719 30.082031 18.667969 C 29.074219 19.453125 28.089844 20.265625 27.128906 21.109375 C 26.171875 21.953125 25.238281 22.828125 24.335938 23.730469 C 23.433594 24.636719 22.558594 25.566406 21.714844 26.523438 C 20.871094 27.484375 20.054688 28.46875 19.273438 29.480469 C 18.492188 30.488281 17.742188 31.523438 17.027344 32.582031 C 16.308594 33.640625 15.628906 34.71875 14.980469 35.820312 C 14.332031 36.921875 13.71875 38.042969 13.140625 39.183594 C 12.566406 40.320312 12.023438 41.480469 11.519531 42.652344 C 11.015625 43.828125 10.550781 45.015625 10.121094 46.21875 C 9.695312 47.425781 9.304688 48.640625 8.953125 49.867188 C 8.601562 51.097656 8.289062 52.335938 8.015625 53.582031 C 7.742188 54.832031 7.511719 56.085938 7.316406 57.351562 C 7.125 58.613281 6.96875 59.882812 6.859375 61.152344 C 6.746094 62.425781 6.671875 63.703125 6.640625 64.980469 C 6.609375 66.257812 6.617188 67.535156 6.664062 68.808594 C 6.714844 70.085938 6.804688 71.359375 6.933594 72.632812 C 7.0625 73.902344 7.230469 75.167969 7.441406 76.429688 C 7.652344 77.691406 7.902344 78.941406 8.191406 80.1875 C 8.480469 81.433594 8.808594 82.664062 9.175781 83.890625 C 9.542969 85.113281 9.949219 86.324219 10.390625 87.523438 C 10.835938 88.71875 11.316406 89.902344 11.835938 91.070312 C 12.355469 92.238281 12.910156 93.386719 13.503906 94.519531 C 14.09375 95.652344 14.722656 96.765625 15.386719 97.859375 C 16.046875 98.949219 16.742188 100.019531 17.472656 101.070312 C 18.203125 102.117188 18.96875 103.144531 19.761719 104.144531 C 20.558594 105.144531 21.382812 106.117188 22.242188 107.066406 C 23.097656 108.011719 23.984375 108.933594 24.898438 109.824219 C 25.8125 110.714844 26.757812 111.578125 27.726562 112.410156 C 28.695312 113.242188 29.691406 114.042969 30.710938 114.808594 C 31.734375 115.578125 32.777344 116.316406 33.84375 117.015625 C 34.910156 117.71875 36 118.386719 37.109375 119.023438 C 38.21875 119.65625 39.347656 120.253906 40.492188 120.816406 C 41.640625 121.378906 42.804688 121.902344 43.984375 122.390625 C 45.167969 122.878906 46.363281 123.332031 47.570312 123.742188 C 48.78125 124.15625 50 124.53125 51.234375 124.863281 C 52.46875 125.199219 53.710938 125.496094 54.960938 125.753906 C 56.214844 126.007812 57.472656 126.226562 58.738281 126.402344 C 60.003906 126.578125 61.273438 126.714844 62.546875 126.8125 C 63.820312 126.90625 65.097656 126.964844 66.375 126.980469 C 67.652344 126.996094 68.929688 126.96875 70.203125 126.90625 C 71.480469 126.839844 72.753906 126.734375 74.023438 126.585938 C 75.292969 126.441406 76.554688 126.253906 77.8125 126.027344 C 79.070312 125.800781 80.320312 125.535156 81.5625 125.230469 C 82.800781 124.925781 84.03125 124.582031 85.25 124.199219 C 86.46875 123.816406 87.675781 123.394531 88.867188 122.933594 C 90.058594 122.472656 91.234375 121.976562 92.394531 121.441406 C 93.554688 120.90625 94.699219 120.335938 95.824219 119.730469 C 96.949219 119.125 98.050781 118.484375 99.136719 117.804688 C 100.21875 117.128906 101.28125 116.417969 102.320312 115.675781 C 103.359375 114.929688 104.375 114.15625 105.363281 113.347656 L 128.46875 136.390625 C 126.953125 138.148438 125.515625 139.972656 124.164062 141.859375 C 122.808594 143.746094 121.539062 145.6875 120.359375 147.6875 C 119.179688 149.683594 118.089844 151.734375 117.089844 153.828125 C 116.089844 155.925781 115.1875 158.0625 114.378906 160.238281 C 113.570312 162.414062 112.859375 164.625 112.246094 166.863281 C 111.632812 169.101562 111.121094 171.363281 110.710938 173.652344 C 110.300781 175.9375 109.992188 178.234375 109.785156 180.546875 C 109.578125 182.859375 109.476562 185.179688 109.476562 187.5 C 109.476562 189.820312 109.578125 192.140625 109.785156 194.453125 C 109.992188 196.765625 110.300781 199.0625 110.710938 201.347656 C 111.121094 203.632812 111.632812 205.898438 112.246094 208.136719 C 112.859375 210.375 113.570312 212.585938 114.378906 214.761719 C 115.1875 216.9375 116.089844 219.074219 117.089844 221.171875 C 118.089844 223.265625 119.179688 225.3125 120.359375 227.3125 C 121.539062 229.3125 122.808594 231.253906 124.164062 233.140625 C 125.515625 235.027344 126.953125 236.851562 128.46875 238.609375 L 108.871094 258.207031 C 105.453125 255.539062 101.742188 253.371094 97.738281 251.710938 C 93.738281 250.046875 89.582031 248.945312 85.28125 248.40625 L 85.28125 235.039062 C 85.753906 234.917969 86.21875 234.785156 86.679688 234.632812 C 87.140625 234.484375 87.597656 234.320312 88.050781 234.144531 C 88.503906 233.96875 88.949219 233.777344 89.390625 233.574219 C 89.832031 233.371094 90.265625 233.152344 90.691406 232.921875 C 91.121094 232.691406 91.539062 232.449219 91.953125 232.195312 C 92.367188 231.941406 92.773438 231.671875 93.167969 231.390625 C 93.566406 231.113281 93.953125 230.820312 94.332031 230.519531 C 94.710938 230.214844 95.082031 229.902344 95.441406 229.574219 C 95.804688 229.25 96.152344 228.914062 96.492188 228.570312 C 96.832031 228.222656 97.164062 227.867188 97.480469 227.5 C 97.800781 227.132812 98.109375 226.757812 98.40625 226.375 C 98.699219 225.988281 98.984375 225.59375 99.257812 225.195312 C 99.53125 224.792969 99.789062 224.382812 100.039062 223.964844 C 100.285156 223.546875 100.519531 223.121094 100.742188 222.691406 C 100.964844 222.257812 101.175781 221.820312 101.371094 221.375 C 101.566406 220.933594 101.75 220.484375 101.917969 220.027344 C 102.085938 219.574219 102.242188 219.113281 102.382812 218.648438 C 102.523438 218.183594 102.652344 217.714844 102.765625 217.242188 C 102.875 216.769531 102.976562 216.296875 103.058594 215.816406 C 103.144531 215.339844 103.214844 214.859375 103.269531 214.375 C 103.324219 213.894531 103.367188 213.410156 103.390625 212.925781 C 103.417969 212.441406 103.429688 211.957031 103.425781 211.46875 C 103.425781 210.984375 103.40625 210.5 103.375 210.015625 C 103.34375 209.53125 103.296875 209.046875 103.234375 208.566406 C 103.171875 208.085938 103.097656 207.605469 103.007812 207.128906 C 102.917969 206.652344 102.8125 206.175781 102.695312 205.707031 C 102.578125 205.234375 102.445312 204.769531 102.296875 204.304688 C 102.148438 203.84375 101.988281 203.386719 101.816406 202.933594 C 101.640625 202.480469 101.453125 202.03125 101.253906 201.589844 C 101.050781 201.148438 100.835938 200.710938 100.609375 200.285156 C 100.382812 199.855469 100.140625 199.433594 99.890625 199.019531 C 99.636719 198.605469 99.371094 198.195312 99.09375 197.796875 C 98.816406 197.398438 98.527344 197.011719 98.226562 196.628906 C 97.925781 196.246094 97.613281 195.875 97.292969 195.511719 C 96.96875 195.152344 96.632812 194.800781 96.289062 194.457031 C 95.945312 194.113281 95.589844 193.78125 95.226562 193.460938 C 94.863281 193.140625 94.488281 192.832031 94.105469 192.53125 C 93.722656 192.234375 93.332031 191.949219 92.929688 191.671875 C 92.53125 191.398438 92.125 191.136719 91.707031 190.886719 C 91.292969 190.632812 90.867188 190.398438 90.4375 190.171875 C 90.007812 189.945312 89.570312 189.734375 89.128906 189.535156 C 88.683594 189.339844 88.234375 189.152344 87.78125 188.980469 C 87.328125 188.808594 86.867188 188.652344 86.40625 188.507812 C 85.941406 188.363281 85.472656 188.234375 85.003906 188.121094 C 84.53125 188.003906 84.054688 187.902344 83.578125 187.816406 C 83.101562 187.726562 82.621094 187.65625 82.140625 187.597656 C 81.65625 187.539062 81.171875 187.496094 80.6875 187.464844 C 80.203125 187.4375 79.71875 187.421875 79.234375 187.421875 C 78.75 187.421875 78.261719 187.4375 77.777344 187.464844 C 77.292969 187.496094 76.8125 187.539062 76.328125 187.597656 C 75.847656 187.65625 75.367188 187.726562 74.890625 187.816406 C 74.410156 187.902344 73.9375 188.003906 73.464844 188.121094 C 72.992188 188.234375 72.527344 188.363281 72.0625 188.507812 C 71.597656 188.652344 71.140625 188.808594 70.6875 188.980469 C 70.230469 189.152344 69.78125 189.339844 69.339844 189.535156 C 68.898438 189.734375 68.460938 189.945312 68.03125 190.171875 C 67.601562 190.398438 67.175781 190.632812 66.761719 190.886719 C 66.34375 191.136719 65.9375 191.398438 65.535156 191.671875 C 65.136719 191.949219 64.746094 192.234375 64.363281 192.53125 C 63.976562 192.832031 63.605469 193.140625 63.242188 193.460938 C 62.875 193.78125 62.523438 194.113281 62.175781 194.457031 C 61.832031 194.800781 61.5 195.152344 61.175781 195.511719 C 60.851562 195.875 60.542969 196.246094 60.242188 196.628906 C 59.941406 197.011719 59.652344 197.398438 59.375 197.796875 C 59.097656 198.195312 58.832031 198.605469 58.578125 199.019531 C 58.324219 199.433594 58.085938 199.855469 57.859375 200.285156 C 57.628906 200.710938 57.417969 201.148438 57.214844 201.589844 C 57.015625 202.03125 56.828125 202.480469 56.652344 202.933594 C 56.476562 203.386719 56.316406 203.84375 56.171875 204.304688 C 56.023438 204.769531 55.890625 205.234375 55.773438 205.707031 C 55.65625 206.175781 55.550781 206.652344 55.460938 207.128906 C 55.371094 207.605469 55.292969 208.085938 55.234375 208.566406 C 55.171875 209.046875 55.125 209.53125 55.09375 210.015625 C 55.0625 210.5 55.042969 210.984375 55.039062 211.46875 C 55.039062 211.957031 55.050781 212.441406 55.074219 212.925781 C 55.101562 213.410156 55.144531 213.894531 55.199219 214.375 C 55.253906 214.859375 55.324219 215.339844 55.40625 215.816406 C 55.492188 216.296875 55.589844 216.769531 55.703125 217.242188 C 55.816406 217.714844 55.945312 218.183594 56.085938 218.648438 C 56.226562 219.113281 56.382812 219.574219 56.550781 220.027344 C 56.71875 220.484375 56.902344 220.933594 57.097656 221.375 C 57.292969 221.820312 57.503906 222.257812 57.722656 222.691406 C 57.945312 223.121094 58.183594 223.546875 58.429688 223.964844 C 58.675781 224.382812 58.9375 224.792969 59.210938 225.195312 C 59.484375 225.59375 59.765625 225.988281 60.0625 226.375 C 60.359375 226.757812 60.667969 227.132812 60.984375 227.5 C 61.304688 227.867188 61.632812 228.222656 61.972656 228.570312 C 62.3125 228.914062 62.664062 229.25 63.023438 229.574219 C 63.386719 229.902344 63.753906 230.214844 64.132812 230.519531 C 64.515625 230.820312 64.902344 231.113281 65.300781 231.390625 C 65.695312 231.671875 66.101562 231.941406 66.515625 232.195312 C 66.925781 232.449219 67.347656 232.691406 67.773438 232.921875 C 68.203125 233.152344 68.636719 233.371094 69.078125 233.574219 C 69.519531 233.777344 69.964844 233.96875 70.417969 234.144531 C 70.867188 234.320312 71.324219 234.484375 71.789062 234.632812 C 72.25 234.785156 72.714844 234.917969 73.183594 235.039062 L 73.183594 248.40625 C 71.695312 248.59375 70.21875 248.847656 68.753906 249.171875 C 67.285156 249.496094 65.839844 249.886719 64.410156 250.34375 C 62.980469 250.804688 61.574219 251.328125 60.195312 251.914062 C 58.816406 252.503906 57.464844 253.15625 56.144531 253.871094 C 54.824219 254.585938 53.539062 255.359375 52.292969 256.195312 C 51.042969 257.027344 49.839844 257.917969 48.671875 258.867188 C 47.507812 259.8125 46.390625 260.808594 45.316406 261.859375 C 44.246094 262.910156 43.222656 264.007812 42.253906 265.15625 C 41.285156 266.300781 40.371094 267.488281 39.511719 268.71875 C 38.652344 269.949219 37.851562 271.21875 37.109375 272.523438 C 36.367188 273.828125 35.6875 275.164062 35.074219 276.535156 C 34.457031 277.902344 33.902344 279.296875 33.417969 280.714844 C 32.929688 282.136719 32.507812 283.574219 32.15625 285.035156 C 31.800781 286.492188 31.519531 287.964844 31.300781 289.449219 C 31.085938 290.9375 30.9375 292.429688 30.859375 293.925781 C 30.785156 295.425781 30.777344 296.925781 30.839844 298.425781 C 30.898438 299.925781 31.03125 301.417969 31.234375 302.90625 C 31.433594 304.394531 31.703125 305.867188 32.042969 307.332031 C 32.382812 308.792969 32.785156 310.238281 33.257812 311.660156 C 33.730469 313.085938 34.269531 314.484375 34.871094 315.859375 C 35.476562 317.234375 36.140625 318.578125 36.871094 319.890625 C 37.597656 321.203125 38.386719 322.480469 39.230469 323.71875 C 40.078125 324.957031 40.980469 326.15625 41.9375 327.3125 C 42.898438 328.464844 43.90625 329.574219 44.96875 330.636719 C 46.03125 331.699219 47.136719 332.707031 48.292969 333.664062 C 49.449219 334.625 50.648438 335.527344 51.886719 336.371094 C 53.125 337.21875 54.402344 338.007812 55.714844 338.734375 C 57.027344 339.464844 58.371094 340.128906 59.746094 340.730469 C 61.121094 341.335938 62.519531 341.871094 63.945312 342.34375 C 65.367188 342.816406 66.8125 343.222656 68.273438 343.5625 C 69.738281 343.902344 71.210938 344.171875 72.699219 344.371094 C 74.1875 344.574219 75.679688 344.703125 77.179688 344.765625 C 78.679688 344.828125 80.179688 344.820312 81.679688 344.742188 C 83.175781 344.667969 84.667969 344.519531 86.15625 344.304688 C 87.640625 344.085938 89.113281 343.800781 90.570312 343.449219 C 92.03125 343.097656 93.46875 342.675781 94.890625 342.1875 C 96.308594 341.703125 97.703125 341.148438 99.070312 340.53125 C 100.4375 339.914062 101.777344 339.238281 103.082031 338.496094 C 104.386719 337.753906 105.65625 336.953125 106.886719 336.09375 C 108.117188 335.234375 109.304688 334.320312 110.449219 333.351562 C 111.59375 332.378906 112.691406 331.359375 113.742188 330.289062 C 114.792969 329.214844 115.792969 328.097656 116.738281 326.929688 C 117.6875 325.765625 118.574219 324.558594 119.410156 323.3125 C 120.246094 322.0625 121.019531 320.78125 121.734375 319.460938 C 122.449219 318.140625 123.101562 316.789062 123.6875 315.410156 C 124.277344 314.027344 124.800781 312.625 125.261719 311.195312 C 125.71875 309.765625 126.109375 308.316406 126.433594 306.851562 C 126.757812 305.386719 127.011719 303.910156 127.199219 302.417969 L 140.566406 302.417969 C 140.6875 302.890625 140.820312 303.355469 140.972656 303.816406 C 141.121094 304.28125 141.285156 304.738281 141.460938 305.1875 C 141.636719 305.640625 141.828125 306.085938 142.03125 306.527344 C 142.234375 306.96875 142.453125 307.402344 142.683594 307.828125 C 142.914062 308.257812 143.15625 308.679688 143.410156 309.089844 C 143.664062 309.503906 143.933594 309.910156 144.210938 310.304688 C 144.492188 310.703125 144.785156 311.089844 145.085938 311.46875 C 145.390625 311.847656 145.703125 312.21875 146.027344 312.578125 C 146.355469 312.941406 146.691406 313.289062 147.035156 313.628906 C 147.382812 313.972656 147.738281 314.300781 148.105469 314.621094 C 148.472656 314.9375 148.847656 315.246094 149.230469 315.542969 C 149.617188 315.835938 150.007812 316.121094 150.410156 316.394531 C 150.8125 316.667969 151.222656 316.925781 151.640625 317.175781 C 152.058594 317.421875 152.480469 317.65625 152.914062 317.878906 C 153.347656 318.101562 153.785156 318.3125 154.226562 318.507812 C 154.671875 318.703125 155.121094 318.886719 155.578125 319.054688 C 156.03125 319.222656 156.492188 319.378906 156.957031 319.519531 C 157.421875 319.660156 157.890625 319.789062 158.363281 319.902344 C 158.835938 320.015625 159.308594 320.113281 159.789062 320.195312 C 160.265625 320.28125 160.746094 320.351562 161.226562 320.40625 C 161.710938 320.460938 162.195312 320.503906 162.679688 320.527344 C 163.164062 320.554688 163.648438 320.566406 164.132812 320.5625 C 164.621094 320.5625 165.105469 320.542969 165.589844 320.511719 C 166.074219 320.480469 166.554688 320.433594 167.039062 320.371094 C 167.519531 320.308594 168 320.234375 168.476562 320.144531 C 168.953125 320.054688 169.425781 319.949219 169.898438 319.832031 C 170.367188 319.714844 170.835938 319.582031 171.296875 319.433594 C 171.761719 319.289062 172.21875 319.125 172.671875 318.953125 C 173.125 318.777344 173.574219 318.589844 174.015625 318.390625 C 174.457031 318.1875 174.890625 317.972656 175.320312 317.746094 C 175.75 317.519531 176.171875 317.277344 176.585938 317.027344 C 177 316.773438 177.40625 316.507812 177.804688 316.230469 C 178.203125 315.953125 178.59375 315.664062 178.976562 315.363281 C 179.355469 315.0625 179.730469 314.75 180.089844 314.429688 C 180.453125 314.105469 180.804688 313.773438 181.148438 313.425781 C 181.492188 313.082031 181.820312 312.730469 182.144531 312.363281 C 182.464844 312 182.773438 311.625 183.070312 311.242188 C 183.371094 310.859375 183.65625 310.46875 183.933594 310.070312 C 184.207031 309.667969 184.46875 309.261719 184.71875 308.84375 C 184.96875 308.429688 185.207031 308.003906 185.433594 307.574219 C 185.65625 307.144531 185.871094 306.707031 186.066406 306.265625 C 186.265625 305.820312 186.453125 305.375 186.621094 304.917969 C 186.792969 304.464844 186.953125 304.003906 187.097656 303.542969 C 187.238281 303.078125 187.371094 302.609375 187.484375 302.140625 C 187.601562 301.667969 187.703125 301.191406 187.789062 300.714844 C 187.878906 300.238281 187.949219 299.757812 188.007812 299.277344 C 188.066406 298.792969 188.109375 298.3125 188.140625 297.828125 C 188.167969 297.339844 188.183594 296.855469 188.183594 296.371094 C 188.183594 295.886719 188.167969 295.398438 188.140625 294.914062 C 188.109375 294.429688 188.066406 293.949219 188.007812 293.464844 C 187.949219 292.984375 187.878906 292.503906 187.789062 292.027344 C 187.703125 291.546875 187.601562 291.074219 187.484375 290.601562 C 187.371094 290.132812 187.238281 289.664062 187.097656 289.199219 C 186.953125 288.734375 186.792969 288.277344 186.621094 287.824219 C 186.453125 287.367188 186.265625 286.921875 186.066406 286.476562 C 185.871094 286.035156 185.65625 285.597656 185.433594 285.167969 C 185.207031 284.738281 184.96875 284.3125 184.71875 283.898438 C 184.46875 283.480469 184.207031 283.074219 183.933594 282.671875 C 183.65625 282.273438 183.371094 281.882812 183.070312 281.5 C 182.773438 281.117188 182.464844 280.742188 182.144531 280.378906 C 181.820312 280.011719 181.492188 279.660156 181.148438 279.316406 C 180.804688 278.96875 180.453125 278.636719 180.089844 278.3125 C 179.730469 277.992188 179.355469 277.679688 178.976562 277.378906 C 178.59375 277.078125 178.203125 276.789062 177.804688 276.511719 C 177.40625 276.234375 177 275.96875 176.585938 275.714844 C 176.171875 275.460938 175.75 275.222656 175.320312 274.996094 C 174.894531 274.769531 174.457031 274.554688 174.015625 274.351562 C 173.574219 274.152344 173.125 273.964844 172.671875 273.789062 C 172.21875 273.613281 171.761719 273.453125 171.296875 273.308594 C 170.835938 273.160156 170.367188 273.027344 169.898438 272.910156 C 169.425781 272.792969 168.953125 272.6875 168.476562 272.597656 C 168 272.507812 167.519531 272.429688 167.039062 272.371094 C 166.558594 272.308594 166.074219 272.261719 165.589844 272.230469 C 165.105469 272.199219 164.621094 272.179688 164.132812 272.179688 C 163.648438 272.175781 163.164062 272.1875 162.679688 272.214844 C 162.195312 272.238281 161.710938 272.28125 161.226562 272.335938 C 160.746094 272.390625 160.265625 272.460938 159.789062 272.546875 C 159.308594 272.628906 158.835938 272.726562 158.363281 272.839844 C 157.890625 272.953125 157.421875 273.082031 156.957031 273.222656 C 156.492188 273.363281 156.03125 273.519531 155.578125 273.6875 C 155.121094 273.855469 154.671875 274.039062 154.226562 274.234375 C 153.785156 274.429688 153.347656 274.640625 152.914062 274.863281 C 152.480469 275.082031 152.058594 275.320312 151.640625 275.566406 C 151.222656 275.816406 150.8125 276.074219 150.410156 276.347656 C 150.007812 276.621094 149.617188 276.902344 149.230469 277.199219 C 148.847656 277.496094 148.472656 277.804688 148.105469 278.121094 C 147.738281 278.441406 147.382812 278.769531 147.035156 279.109375 C 146.691406 279.453125 146.355469 279.800781 146.027344 280.160156 C 145.703125 280.523438 145.390625 280.890625 145.085938 281.273438 C 144.785156 281.652344 144.492188 282.039062 144.210938 282.4375 C 143.933594 282.832031 143.664062 283.238281 143.410156 283.652344 C 143.15625 284.0625 142.914062 284.484375 142.683594 284.910156 C 142.453125 285.339844 142.234375 285.773438 142.03125 286.214844 C 141.828125 286.65625 141.636719 287.101562 141.460938 287.554688 C 141.285156 288.003906 141.121094 288.460938 140.972656 288.925781 C 140.820312 289.386719 140.6875 289.851562 140.566406 290.324219 L 127.199219 290.324219 C 126.660156 286.019531 125.558594 281.867188 123.894531 277.863281 C 122.230469 273.859375 120.066406 270.152344 117.398438 266.734375 L 136.996094 247.136719 C 138.753906 248.652344 140.578125 250.089844 142.464844 251.441406 C 144.347656 252.796875 146.292969 254.0625 148.292969 255.246094 C 150.289062 256.425781 152.339844 257.515625 154.433594 258.515625 C 156.53125 259.515625 158.667969 260.417969 160.84375 261.226562 C 163.019531 262.035156 165.226562 262.746094 167.46875 263.359375 C 169.707031 263.972656 171.96875 264.484375 174.253906 264.894531 C 176.539062 265.304688 178.839844 265.613281 181.152344 265.820312 C 183.464844 266.027344 185.78125 266.128906 188.105469 266.128906 C 190.425781 266.128906 192.746094 266.027344 195.058594 265.820312 C 197.371094 265.613281 199.667969 265.304688 201.953125 264.894531 C 204.238281 264.484375 206.503906 263.972656 208.742188 263.359375 C 210.980469 262.746094 213.191406 262.035156 215.367188 261.226562 C 217.542969 260.417969 219.679688 259.515625 221.777344 258.515625 C 223.871094 257.515625 225.917969 256.425781 227.917969 255.246094 C 229.917969 254.0625 231.859375 252.796875 233.746094 251.441406 C 235.632812 250.089844 237.457031 248.652344 239.214844 247.136719 L 262.257812 270.242188 C 261.542969 271.121094 260.851562 272.019531 260.183594 272.9375 C 259.519531 273.855469 258.878906 274.789062 258.265625 275.742188 C 257.652344 276.695312 257.066406 277.667969 256.507812 278.652344 C 255.945312 279.640625 255.417969 280.640625 254.914062 281.65625 C 254.410156 282.671875 253.9375 283.703125 253.492188 284.746094 C 253.046875 285.789062 252.632812 286.84375 252.246094 287.910156 C 251.863281 288.976562 251.507812 290.054688 251.183594 291.140625 C 250.859375 292.226562 250.5625 293.320312 250.300781 294.421875 C 250.039062 295.527344 249.804688 296.636719 249.605469 297.75 C 249.402344 298.867188 249.234375 299.988281 249.097656 301.113281 C 248.957031 302.238281 248.851562 303.367188 248.777344 304.5 C 248.703125 305.628906 248.660156 306.761719 248.648438 307.894531 C 248.640625 309.03125 248.660156 310.164062 248.714844 311.296875 C 248.765625 312.429688 248.851562 313.558594 248.96875 314.6875 C 249.085938 315.816406 249.234375 316.9375 249.414062 318.058594 C 249.59375 319.175781 249.804688 320.289062 250.046875 321.398438 C 250.289062 322.507812 250.5625 323.605469 250.867188 324.699219 C 251.167969 325.789062 251.503906 326.875 251.871094 327.945312 C 252.234375 329.019531 252.628906 330.082031 253.054688 331.132812 C 253.480469 332.183594 253.933594 333.222656 254.417969 334.25 C 254.902344 335.273438 255.414062 336.285156 255.953125 337.28125 C 256.492188 338.28125 257.058594 339.261719 257.65625 340.226562 C 258.25 341.191406 258.871094 342.136719 259.523438 343.066406 C 260.171875 344 260.84375 344.910156 261.542969 345.800781 C 262.246094 346.691406 262.96875 347.566406 263.71875 348.417969 C 264.464844 349.269531 265.238281 350.097656 266.035156 350.90625 C 266.828125 351.714844 267.648438 352.496094 268.488281 353.261719 C 269.328125 354.023438 270.1875 354.757812 271.066406 355.472656 C 271.949219 356.1875 272.851562 356.875 273.769531 357.539062 C 274.691406 358.199219 275.628906 358.835938 276.582031 359.449219 C 277.539062 360.058594 278.511719 360.640625 279.5 361.195312 C 280.488281 361.75 281.492188 362.277344 282.507812 362.777344 C 283.527344 363.277344 284.558594 363.746094 285.601562 364.1875 C 286.648438 364.628906 287.703125 365.039062 288.769531 365.421875 C 289.839844 365.804688 290.917969 366.15625 292.003906 366.476562 C 293.089844 366.796875 294.1875 367.085938 295.289062 367.347656 C 296.394531 367.605469 297.503906 367.835938 298.621094 368.03125 C 299.738281 368.230469 300.859375 368.394531 301.984375 368.527344 C 303.109375 368.660156 304.238281 368.765625 305.371094 368.835938 C 306.503906 368.90625 307.636719 368.945312 308.769531 368.949219 C 309.902344 368.957031 311.035156 368.933594 312.167969 368.875 C 313.300781 368.816406 314.429688 368.730469 315.558594 368.609375 C 316.6875 368.488281 317.808594 368.335938 318.929688 368.152344 C 320.046875 367.96875 321.160156 367.753906 322.265625 367.507812 C 323.375 367.261719 324.472656 366.984375 325.5625 366.675781 C 326.65625 366.367188 327.738281 366.03125 328.808594 365.660156 C 329.882812 365.292969 330.941406 364.894531 331.992188 364.464844 C 333.042969 364.035156 334.078125 363.578125 335.101562 363.09375 C 336.125 362.605469 337.136719 362.089844 338.128906 361.546875 C 339.125 361.003906 340.105469 360.429688 341.066406 359.832031 C 342.03125 359.234375 342.976562 358.609375 343.902344 357.957031 C 344.832031 357.304688 345.738281 356.628906 346.628906 355.925781 C 347.519531 355.222656 348.386719 354.496094 349.238281 353.742188 C 350.085938 352.992188 350.914062 352.214844 351.71875 351.417969 C 352.523438 350.617188 353.304688 349.796875 354.0625 348.957031 C 354.824219 348.113281 355.558594 347.25 356.269531 346.367188 C 356.980469 345.484375 357.664062 344.582031 358.324219 343.660156 C 358.984375 342.734375 359.617188 341.796875 360.222656 340.839844 C 360.832031 339.878906 361.410156 338.90625 361.960938 337.917969 C 362.515625 336.925781 363.039062 335.921875 363.53125 334.902344 C 364.027344 333.882812 364.496094 332.847656 364.933594 331.800781 C 365.371094 330.757812 365.777344 329.699219 366.15625 328.628906 C 366.535156 327.558594 366.882812 326.480469 367.199219 325.394531 C 367.515625 324.304688 367.800781 323.207031 368.058594 322.101562 C 368.3125 321 368.539062 319.886719 368.730469 318.769531 C 368.925781 317.652344 369.085938 316.53125 369.214844 315.40625 C 369.347656 314.277344 369.445312 313.148438 369.511719 312.019531 C 369.578125 310.886719 369.613281 309.753906 369.613281 308.617188 C 369.617188 307.484375 369.589844 306.351562 369.527344 305.21875 C 369.46875 304.085938 369.375 302.957031 369.25 301.832031 C 369.125 300.703125 368.96875 299.582031 368.78125 298.464844 C 368.59375 297.34375 368.375 296.234375 368.125 295.128906 C 367.875 294.019531 367.59375 292.921875 367.28125 291.832031 C 366.972656 290.742188 366.628906 289.664062 366.257812 288.589844 C 365.882812 287.519531 365.480469 286.460938 365.046875 285.414062 C 364.617188 284.363281 364.15625 283.328125 363.664062 282.308594 C 363.175781 281.285156 362.65625 280.277344 362.109375 279.285156 C 361.5625 278.289062 360.988281 277.3125 360.386719 276.351562 C 359.78125 275.390625 359.152344 274.449219 358.5 273.523438 C 357.84375 272.597656 357.164062 271.691406 356.457031 270.804688 C 355.75 269.917969 355.019531 269.050781 354.265625 268.203125 C 353.511719 267.359375 352.734375 266.535156 351.933594 265.730469 C 351.132812 264.929688 350.308594 264.148438 349.464844 263.394531 C 348.617188 262.636719 347.753906 261.90625 346.867188 261.199219 C 345.980469 260.492188 345.074219 259.808594 344.152344 259.152344 C 343.226562 258.496094 342.285156 257.867188 341.324219 257.261719 C 340.363281 256.660156 339.386719 256.082031 338.394531 255.535156 C 337.402344 254.988281 336.398438 254.464844 335.375 253.972656 C 334.355469 253.480469 333.320312 253.019531 332.273438 252.585938 C 331.222656 252.152344 330.164062 251.746094 329.09375 251.375 C 328.023438 251 326.945312 250.65625 325.855469 250.34375 C 324.765625 250.027344 323.667969 249.746094 322.5625 249.492188 C 321.457031 249.242188 320.34375 249.023438 319.226562 248.832031 C 318.109375 248.644531 316.988281 248.484375 315.859375 248.359375 C 314.734375 248.234375 313.605469 248.140625 312.472656 248.074219 C 311.339844 248.011719 310.207031 247.984375 309.074219 247.984375 Z M 97.378906 104.273438 L 97.378906 96.773438 C 97.378906 94.785156 97.183594 92.816406 96.792969 90.863281 C 96.40625 88.914062 95.828125 87.019531 95.066406 85.183594 C 94.304688 83.34375 93.367188 81.601562 92.261719 79.949219 C 91.15625 78.296875 89.898438 76.765625 88.488281 75.363281 C 87.121094 74 85.628906 72.789062 84.011719 71.734375 C 84.582031 71.179688 85.125 70.59375 85.640625 69.984375 C 86.152344 69.375 86.632812 68.742188 87.085938 68.085938 C 87.535156 67.429688 87.953125 66.75 88.335938 66.054688 C 88.722656 65.355469 89.070312 64.640625 89.382812 63.90625 C 89.695312 63.171875 89.972656 62.425781 90.210938 61.667969 C 90.453125 60.90625 90.652344 60.136719 90.816406 59.355469 C 90.980469 58.578125 91.105469 57.789062 91.191406 57 C 91.277344 56.207031 91.324219 55.410156 91.328125 54.613281 C 91.335938 53.816406 91.304688 53.023438 91.234375 52.230469 C 91.160156 51.433594 91.050781 50.648438 90.902344 49.863281 C 90.753906 49.082031 90.566406 48.308594 90.339844 47.542969 C 90.113281 46.777344 89.851562 46.027344 89.550781 45.289062 C 89.25 44.550781 88.914062 43.828125 88.542969 43.125 C 88.171875 42.417969 87.765625 41.734375 87.328125 41.070312 C 86.890625 40.402344 86.417969 39.761719 85.917969 39.144531 C 85.414062 38.523438 84.882812 37.933594 84.320312 37.367188 C 83.761719 36.800781 83.171875 36.265625 82.558594 35.753906 C 81.945312 35.246094 81.308594 34.769531 80.644531 34.328125 C 79.984375 33.882812 79.304688 33.46875 78.601562 33.09375 C 77.898438 32.714844 77.179688 32.371094 76.445312 32.066406 C 75.710938 31.757812 74.960938 31.488281 74.199219 31.257812 C 73.4375 31.023438 72.664062 30.832031 71.882812 30.671875 C 71.101562 30.515625 70.316406 30.398438 69.523438 30.320312 C 68.730469 30.242188 67.933594 30.203125 67.136719 30.203125 C 66.339844 30.203125 65.546875 30.242188 64.753906 30.320312 C 63.960938 30.398438 63.171875 30.515625 62.390625 30.671875 C 61.609375 30.832031 60.835938 31.023438 60.074219 31.257812 C 59.3125 31.488281 58.5625 31.757812 57.828125 32.066406 C 57.09375 32.371094 56.375 32.714844 55.671875 33.09375 C 54.96875 33.46875 54.289062 33.882812 53.628906 34.328125 C 52.96875 34.769531 52.328125 35.246094 51.714844 35.753906 C 51.101562 36.265625 50.515625 36.800781 49.953125 37.367188 C 49.390625 37.933594 48.859375 38.523438 48.359375 39.144531 C 47.855469 39.761719 47.382812 40.402344 46.945312 41.070312 C 46.507812 41.734375 46.101562 42.417969 45.730469 43.125 C 45.359375 43.828125 45.023438 44.550781 44.722656 45.289062 C 44.421875 46.027344 44.160156 46.777344 43.933594 47.542969 C 43.707031 48.308594 43.519531 49.082031 43.371094 49.863281 C 43.222656 50.648438 43.113281 51.433594 43.039062 52.230469 C 42.96875 53.023438 42.9375 53.816406 42.945312 54.613281 C 42.953125 55.410156 43 56.207031 43.082031 57 C 43.167969 57.789062 43.292969 58.578125 43.457031 59.355469 C 43.621094 60.136719 43.820312 60.90625 44.0625 61.667969 C 44.300781 62.425781 44.578125 63.171875 44.890625 63.90625 C 45.203125 64.640625 45.550781 65.355469 45.9375 66.054688 C 46.320312 66.75 46.738281 67.429688 47.1875 68.085938 C 47.640625 68.742188 48.121094 69.375 48.636719 69.984375 C 49.148438 70.59375 49.691406 71.179688 50.261719 71.734375 C 48.207031 73.113281 46.351562 74.722656 44.695312 76.558594 C 43.035156 78.394531 41.625 80.40625 40.457031 82.589844 C 39.292969 84.769531 38.410156 87.0625 37.804688 89.460938 C 37.203125 91.863281 36.898438 94.300781 36.894531 96.773438 L 36.894531 104.273438 C 35.601562 103.238281 34.363281 102.136719 33.179688 100.972656 C 31.996094 99.808594 30.878906 98.585938 29.824219 97.308594 C 28.765625 96.027344 27.777344 94.699219 26.859375 93.316406 C 25.941406 91.933594 25.09375 90.511719 24.320312 89.042969 C 23.546875 87.574219 22.851562 86.070312 22.234375 84.53125 C 21.617188 82.992188 21.078125 81.425781 20.621094 79.828125 C 20.164062 78.234375 19.789062 76.621094 19.5 74.988281 C 19.207031 73.355469 19.003906 71.710938 18.878906 70.054688 C 18.757812 68.402344 18.722656 66.746094 18.769531 65.085938 C 18.820312 63.429688 18.953125 61.777344 19.171875 60.132812 C 19.390625 58.488281 19.691406 56.859375 20.078125 55.246094 C 20.464844 53.632812 20.929688 52.042969 21.480469 50.476562 C 22.03125 48.910156 22.660156 47.378906 23.367188 45.878906 C 24.074219 44.375 24.855469 42.917969 25.710938 41.496094 C 26.570312 40.074219 27.496094 38.703125 28.496094 37.378906 C 29.496094 36.054688 30.558594 34.78125 31.6875 33.566406 C 32.816406 32.351562 34.003906 31.199219 35.253906 30.105469 C 36.5 29.011719 37.800781 27.984375 39.15625 27.027344 C 40.507812 26.066406 41.910156 25.179688 43.351562 24.363281 C 44.796875 23.546875 46.28125 22.808594 47.800781 22.144531 C 49.324219 21.484375 50.875 20.898438 52.453125 20.394531 C 54.035156 19.894531 55.636719 19.472656 57.261719 19.132812 C 58.886719 18.792969 60.523438 18.539062 62.171875 18.371094 C 63.824219 18.199219 65.476562 18.113281 67.136719 18.113281 C 68.796875 18.113281 70.449219 18.199219 72.101562 18.371094 C 73.75 18.539062 75.386719 18.792969 77.011719 19.132812 C 78.636719 19.472656 80.238281 19.894531 81.820312 20.394531 C 83.402344 20.898438 84.953125 21.484375 86.472656 22.144531 C 87.992188 22.808594 89.476562 23.546875 90.921875 24.363281 C 92.367188 25.179688 93.765625 26.066406 95.117188 27.027344 C 96.472656 27.984375 97.773438 29.011719 99.019531 30.105469 C 100.269531 31.199219 101.457031 32.351562 102.585938 33.566406 C 103.714844 34.78125 104.777344 36.054688 105.777344 37.378906 C 106.777344 38.703125 107.703125 40.074219 108.5625 41.496094 C 109.417969 42.917969 110.203125 44.375 110.910156 45.878906 C 111.617188 47.378906 112.242188 48.910156 112.792969 50.476562 C 113.34375 52.042969 113.8125 53.632812 114.195312 55.246094 C 114.582031 56.859375 114.882812 58.488281 115.101562 60.132812 C 115.320312 61.777344 115.453125 63.429688 115.503906 65.085938 C 115.550781 66.746094 115.515625 68.402344 115.394531 70.054688 C 115.273438 71.710938 115.066406 73.355469 114.773438 74.988281 C 114.484375 76.621094 114.109375 78.234375 113.652344 79.828125 C 113.195312 81.425781 112.65625 82.992188 112.039062 84.53125 C 111.421875 86.070312 110.726562 87.574219 109.953125 89.042969 C 109.179688 90.511719 108.335938 91.933594 107.414062 93.316406 C 106.496094 94.699219 105.507812 96.027344 104.453125 97.308594 C 103.394531 98.585938 102.277344 99.808594 101.09375 100.972656 C 99.914062 102.136719 98.675781 103.238281 97.378906 104.273438 Z M 230.445312 238.789062 L 230.445312 223.789062 C 230.476562 221.023438 230.238281 218.28125 229.726562 215.558594 C 229.214844 212.839844 228.441406 210.199219 227.402344 207.632812 C 226.363281 205.070312 225.082031 202.632812 223.558594 200.320312 C 222.035156 198.011719 220.296875 195.875 218.347656 193.910156 C 215.296875 190.78125 211.832031 188.222656 207.945312 186.230469 C 208.726562 185.566406 209.476562 184.867188 210.1875 184.128906 C 210.902344 183.390625 211.574219 182.621094 212.210938 181.8125 C 212.84375 181.007812 213.433594 180.171875 213.984375 179.304688 C 214.535156 178.4375 215.035156 177.542969 215.496094 176.625 C 215.953125 175.707031 216.363281 174.769531 216.726562 173.808594 C 217.089844 172.851562 217.402344 171.875 217.664062 170.882812 C 217.929688 169.890625 218.140625 168.890625 218.304688 167.875 C 218.464844 166.863281 218.574219 165.84375 218.632812 164.820312 C 218.6875 163.796875 218.695312 162.769531 218.648438 161.746094 C 218.601562 160.722656 218.503906 159.699219 218.351562 158.6875 C 218.203125 157.671875 218 156.667969 217.75 155.671875 C 217.496094 154.675781 217.191406 153.699219 216.839844 152.734375 C 216.488281 151.769531 216.089844 150.828125 215.640625 149.90625 C 215.191406 148.984375 214.699219 148.085938 214.15625 147.210938 C 213.617188 146.339844 213.035156 145.496094 212.410156 144.683594 C 211.785156 143.871094 211.121094 143.089844 210.414062 142.34375 C 209.710938 141.597656 208.96875 140.890625 208.191406 140.222656 C 207.414062 139.550781 206.605469 138.921875 205.765625 138.335938 C 204.925781 137.746094 204.054688 137.203125 203.160156 136.703125 C 202.265625 136.203125 201.34375 135.75 200.402344 135.34375 C 199.460938 134.9375 198.5 134.582031 197.519531 134.273438 C 196.542969 133.964844 195.550781 133.707031 194.546875 133.5 C 193.539062 133.292969 192.527344 133.136719 191.507812 133.035156 C 190.488281 132.929688 189.464844 132.878906 188.4375 132.878906 C 187.410156 132.878906 186.386719 132.929688 185.367188 133.035156 C 184.347656 133.136719 183.335938 133.292969 182.328125 133.5 C 181.324219 133.707031 180.332031 133.964844 179.355469 134.273438 C 178.375 134.582031 177.414062 134.9375 176.472656 135.34375 C 175.53125 135.75 174.609375 136.203125 173.714844 136.703125 C 172.820312 137.203125 171.949219 137.746094 171.109375 138.335938 C 170.269531 138.921875 169.460938 139.550781 168.683594 140.222656 C 167.90625 140.890625 167.164062 141.597656 166.460938 142.34375 C 165.753906 143.089844 165.089844 143.871094 164.464844 144.683594 C 163.839844 145.496094 163.257812 146.339844 162.71875 147.210938 C 162.175781 148.085938 161.683594 148.984375 161.234375 149.90625 C 160.785156 150.828125 160.386719 151.769531 160.035156 152.734375 C 159.683594 153.699219 159.378906 154.675781 159.125 155.671875 C 158.875 156.667969 158.671875 157.671875 158.523438 158.6875 C 158.371094 159.699219 158.273438 160.722656 158.226562 161.746094 C 158.179688 162.769531 158.1875 163.796875 158.242188 164.820312 C 158.300781 165.84375 158.410156 166.863281 158.570312 167.875 C 158.734375 168.890625 158.945312 169.890625 159.210938 170.882812 C 159.472656 171.875 159.785156 172.851562 160.148438 173.808594 C 160.511719 174.769531 160.921875 175.707031 161.378906 176.625 C 161.839844 177.542969 162.339844 178.4375 162.890625 179.304688 C 163.441406 180.171875 164.03125 181.007812 164.664062 181.8125 C 165.300781 182.621094 165.972656 183.390625 166.6875 184.128906 C 167.398438 184.867188 168.148438 185.566406 168.929688 186.230469 C 167.203125 187.105469 165.546875 188.097656 163.953125 189.203125 C 162.363281 190.308594 160.855469 191.515625 159.429688 192.828125 C 158.003906 194.140625 156.675781 195.542969 155.441406 197.039062 C 154.210938 198.53125 153.085938 200.105469 152.066406 201.753906 C 151.050781 203.402344 150.152344 205.113281 149.371094 206.886719 C 148.585938 208.65625 147.929688 210.476562 147.398438 212.335938 C 146.863281 214.199219 146.460938 216.089844 146.1875 218.007812 C 145.914062 219.925781 145.773438 221.851562 145.765625 223.789062 L 145.765625 238.789062 C 144.890625 238.070312 144.035156 237.328125 143.199219 236.5625 C 142.363281 235.796875 141.550781 235.011719 140.753906 234.203125 C 139.957031 233.398438 139.183594 232.574219 138.429688 231.726562 C 137.675781 230.878906 136.941406 230.015625 136.234375 229.132812 C 135.523438 228.25 134.835938 227.347656 134.175781 226.429688 C 133.511719 225.511719 132.871094 224.578125 132.253906 223.625 C 131.640625 222.675781 131.046875 221.707031 130.480469 220.726562 C 129.914062 219.746094 129.375 218.75 128.859375 217.742188 C 128.34375 216.730469 127.855469 215.710938 127.390625 214.675781 C 126.925781 213.640625 126.492188 212.597656 126.082031 211.542969 C 125.671875 210.484375 125.289062 209.417969 124.933594 208.34375 C 124.578125 207.265625 124.25 206.183594 123.949219 205.089844 C 123.648438 203.996094 123.375 202.898438 123.132812 201.792969 C 122.890625 200.683594 122.671875 199.574219 122.484375 198.457031 C 122.300781 197.339844 122.140625 196.214844 122.011719 195.089844 C 121.882812 193.964844 121.78125 192.835938 121.707031 191.707031 C 121.636719 190.574219 121.59375 189.445312 121.578125 188.3125 C 121.5625 187.179688 121.578125 186.046875 121.621094 184.914062 C 121.664062 183.78125 121.738281 182.652344 121.839844 181.523438 C 121.941406 180.394531 122.070312 179.269531 122.230469 178.144531 C 122.386719 177.023438 122.574219 175.90625 122.789062 174.796875 C 123.007812 173.683594 123.25 172.578125 123.523438 171.476562 C 123.796875 170.378906 124.09375 169.285156 124.421875 168.199219 C 124.75 167.117188 125.105469 166.039062 125.492188 164.972656 C 125.875 163.90625 126.285156 162.851562 126.71875 161.804688 C 127.15625 160.761719 127.621094 159.726562 128.109375 158.707031 C 128.601562 157.683594 129.117188 156.675781 129.65625 155.679688 C 130.199219 154.683594 130.765625 153.703125 131.355469 152.738281 C 131.949219 151.769531 132.5625 150.820312 133.203125 149.886719 C 133.84375 148.949219 134.507812 148.03125 135.195312 147.132812 C 135.882812 146.230469 136.589844 145.347656 137.324219 144.484375 C 138.054688 143.617188 138.808594 142.773438 139.585938 141.945312 C 140.359375 141.121094 141.15625 140.3125 141.972656 139.527344 C 142.789062 138.742188 143.625 137.976562 144.480469 137.234375 C 145.335938 136.492188 146.207031 135.769531 147.101562 135.074219 C 147.992188 134.375 148.902344 133.699219 149.828125 133.046875 C 150.757812 132.394531 151.699219 131.769531 152.65625 131.164062 C 153.617188 130.5625 154.589844 129.980469 155.578125 129.429688 C 156.566406 128.875 157.570312 128.347656 158.585938 127.84375 C 159.601562 127.339844 160.628906 126.863281 161.667969 126.414062 C 162.707031 125.964844 163.757812 125.539062 164.820312 125.144531 C 165.878906 124.746094 166.953125 124.378906 168.03125 124.035156 C 169.113281 123.695312 170.199219 123.378906 171.296875 123.09375 C 172.394531 122.808594 173.496094 122.550781 174.605469 122.320312 C 175.714844 122.089844 176.828125 121.886719 177.949219 121.714844 C 179.070312 121.542969 180.191406 121.398438 181.320312 121.28125 C 182.445312 121.167969 183.578125 121.082031 184.707031 121.023438 C 185.839844 120.964844 186.972656 120.9375 188.105469 120.9375 C 189.238281 120.9375 190.371094 120.964844 191.5 121.023438 C 192.632812 121.082031 193.761719 121.167969 194.890625 121.28125 C 196.015625 121.398438 197.140625 121.542969 198.261719 121.714844 C 199.378906 121.886719 200.496094 122.089844 201.605469 122.320312 C 202.714844 122.550781 203.816406 122.808594 204.914062 123.09375 C 206.007812 123.378906 207.097656 123.695312 208.179688 124.035156 C 209.257812 124.378906 210.328125 124.746094 211.390625 125.144531 C 212.453125 125.539062 213.503906 125.964844 214.542969 126.414062 C 215.582031 126.863281 216.609375 127.339844 217.625 127.84375 C 218.640625 128.347656 219.640625 128.875 220.628906 129.429688 C 221.617188 129.980469 222.59375 130.5625 223.550781 131.164062 C 224.511719 131.769531 225.453125 132.394531 226.378906 133.046875 C 227.308594 133.699219 228.214844 134.375 229.109375 135.074219 C 230 135.769531 230.875 136.492188 231.730469 137.234375 C 232.585938 137.976562 233.421875 138.742188 234.238281 139.527344 C 235.054688 140.3125 235.851562 141.121094 236.625 141.945312 C 237.402344 142.773438 238.15625 143.617188 238.886719 144.484375 C 239.617188 145.347656 240.328125 146.230469 241.015625 147.132812 C 241.703125 148.03125 242.367188 148.949219 243.003906 149.886719 C 243.644531 150.820312 244.261719 151.769531 244.851562 152.738281 C 245.445312 153.703125 246.011719 154.683594 246.550781 155.679688 C 247.09375 156.675781 247.609375 157.683594 248.097656 158.707031 C 248.589844 159.726562 249.050781 160.761719 249.488281 161.804688 C 249.925781 162.851562 250.335938 163.90625 250.71875 164.972656 C 251.101562 166.039062 251.457031 167.117188 251.785156 168.199219 C 252.113281 169.285156 252.414062 170.378906 252.6875 171.476562 C 252.960938 172.578125 253.203125 173.683594 253.417969 174.796875 C 253.636719 175.90625 253.820312 177.023438 253.980469 178.144531 C 254.140625 179.269531 254.269531 180.394531 254.371094 181.523438 C 254.472656 182.652344 254.542969 183.78125 254.589844 184.914062 C 254.632812 186.046875 254.644531 187.179688 254.632812 188.3125 C 254.617188 189.445312 254.574219 190.574219 254.5 191.707031 C 254.429688 192.835938 254.328125 193.964844 254.199219 195.089844 C 254.070312 196.214844 253.910156 197.339844 253.722656 198.457031 C 253.535156 199.574219 253.320312 200.683594 253.078125 201.792969 C 252.832031 202.898438 252.5625 203.996094 252.261719 205.089844 C 251.960938 206.183594 251.632812 207.265625 251.277344 208.34375 C 250.921875 209.417969 250.539062 210.484375 250.128906 211.542969 C 249.71875 212.597656 249.28125 213.640625 248.820312 214.675781 C 248.355469 215.710938 247.867188 216.730469 247.351562 217.742188 C 246.835938 218.75 246.292969 219.746094 245.726562 220.726562 C 245.160156 221.707031 244.570312 222.675781 243.953125 223.625 C 243.339844 224.578125 242.699219 225.511719 242.035156 226.429688 C 241.371094 227.347656 240.6875 228.25 239.976562 229.132812 C 239.265625 230.015625 238.535156 230.878906 237.78125 231.726562 C 237.027344 232.574219 236.253906 233.398438 235.457031 234.203125 C 234.660156 235.011719 233.84375 235.796875 233.007812 236.5625 C 232.171875 237.328125 231.316406 238.070312 230.445312 238.789062 Z M 339.316406 346.210938 L 339.316406 338.710938 C 339.3125 336.71875 339.121094 334.75 338.730469 332.800781 C 338.339844 330.847656 337.765625 328.957031 337.003906 327.117188 C 336.238281 325.28125 335.304688 323.535156 334.195312 321.882812 C 333.089844 320.230469 331.832031 318.703125 330.421875 317.296875 C 329.054688 315.933594 327.566406 314.726562 325.949219 313.667969 C 326.519531 313.113281 327.0625 312.53125 327.574219 311.921875 C 328.085938 311.3125 328.570312 310.679688 329.019531 310.023438 C 329.472656 309.363281 329.890625 308.6875 330.273438 307.988281 C 330.65625 307.289062 331.003906 306.574219 331.320312 305.84375 C 331.632812 305.109375 331.910156 304.363281 332.148438 303.601562 C 332.386719 302.84375 332.589844 302.074219 332.753906 301.292969 C 332.914062 300.511719 333.039062 299.726562 333.125 298.933594 C 333.210938 298.140625 333.257812 297.347656 333.265625 296.550781 C 333.273438 295.753906 333.238281 294.957031 333.167969 294.164062 C 333.097656 293.371094 332.988281 292.582031 332.835938 291.800781 C 332.6875 291.015625 332.5 290.242188 332.273438 289.480469 C 332.050781 288.714844 331.785156 287.964844 331.488281 287.226562 C 331.1875 286.488281 330.851562 285.765625 330.480469 285.058594 C 330.109375 284.355469 329.703125 283.667969 329.265625 283.003906 C 328.824219 282.339844 328.355469 281.699219 327.851562 281.078125 C 327.347656 280.460938 326.816406 279.867188 326.257812 279.300781 C 325.695312 278.734375 325.109375 278.199219 324.496094 277.691406 C 323.878906 277.183594 323.242188 276.707031 322.582031 276.261719 C 321.921875 275.816406 321.238281 275.40625 320.539062 275.027344 C 319.835938 274.648438 319.117188 274.308594 318.382812 274 C 317.644531 273.695312 316.898438 273.425781 316.132812 273.191406 C 315.371094 272.960938 314.601562 272.765625 313.820312 272.609375 C 313.039062 272.453125 312.25 272.335938 311.457031 272.257812 C 310.664062 272.179688 309.871094 272.140625 309.074219 272.140625 C 308.277344 272.140625 307.480469 272.179688 306.6875 272.257812 C 305.894531 272.335938 305.105469 272.453125 304.324219 272.609375 C 303.542969 272.765625 302.773438 272.960938 302.011719 273.191406 C 301.25 273.425781 300.5 273.695312 299.765625 274 C 299.027344 274.308594 298.308594 274.648438 297.609375 275.027344 C 296.90625 275.40625 296.226562 275.816406 295.5625 276.261719 C 294.902344 276.707031 294.265625 277.183594 293.652344 277.691406 C 293.035156 278.199219 292.449219 278.734375 291.886719 279.300781 C 291.328125 279.867188 290.796875 280.460938 290.292969 281.078125 C 289.789062 281.699219 289.320312 282.339844 288.882812 283.003906 C 288.441406 283.667969 288.035156 284.355469 287.664062 285.058594 C 287.292969 285.765625 286.957031 286.488281 286.660156 287.226562 C 286.359375 287.964844 286.097656 288.714844 285.871094 289.480469 C 285.644531 290.242188 285.457031 291.015625 285.308594 291.800781 C 285.15625 292.582031 285.046875 293.371094 284.976562 294.164062 C 284.90625 294.957031 284.871094 295.753906 284.878906 296.550781 C 284.886719 297.347656 284.933594 298.140625 285.019531 298.933594 C 285.105469 299.726562 285.230469 300.511719 285.394531 301.292969 C 285.554688 302.074219 285.757812 302.84375 285.996094 303.601562 C 286.238281 304.363281 286.511719 305.109375 286.824219 305.84375 C 287.140625 306.574219 287.488281 307.289062 287.871094 307.988281 C 288.253906 308.6875 288.671875 309.363281 289.125 310.023438 C 289.574219 310.679688 290.058594 311.3125 290.570312 311.921875 C 291.085938 312.53125 291.625 313.113281 292.199219 313.667969 C 290.144531 315.050781 288.289062 316.660156 286.628906 318.496094 C 284.972656 320.332031 283.558594 322.339844 282.394531 324.523438 C 281.230469 326.707031 280.34375 329 279.742188 331.398438 C 279.140625 333.796875 278.835938 336.234375 278.832031 338.710938 L 278.832031 346.210938 C 277.535156 345.171875 276.296875 344.070312 275.117188 342.90625 C 273.933594 341.742188 272.8125 340.523438 271.757812 339.242188 C 270.703125 337.964844 269.714844 336.632812 268.792969 335.25 C 267.875 333.871094 267.027344 332.445312 266.257812 330.976562 C 265.484375 329.511719 264.789062 328.007812 264.171875 326.46875 C 263.550781 324.925781 263.015625 323.359375 262.558594 321.765625 C 262.101562 320.171875 261.726562 318.554688 261.433594 316.921875 C 261.144531 315.289062 260.9375 313.644531 260.816406 311.992188 C 260.695312 310.335938 260.65625 308.679688 260.707031 307.023438 C 260.753906 305.363281 260.886719 303.710938 261.105469 302.066406 C 261.324219 300.421875 261.628906 298.792969 262.011719 297.179688 C 262.398438 295.566406 262.867188 293.976562 263.417969 292.414062 C 263.964844 290.847656 264.59375 289.3125 265.300781 287.8125 C 266.007812 286.3125 266.789062 284.851562 267.648438 283.429688 C 268.503906 282.011719 269.433594 280.636719 270.433594 279.3125 C 271.429688 277.988281 272.496094 276.71875 273.625 275.503906 C 274.753906 274.289062 275.941406 273.132812 277.1875 272.039062 C 278.4375 270.945312 279.738281 269.921875 281.089844 268.960938 C 282.445312 268.003906 283.84375 267.113281 285.289062 266.300781 C 286.734375 265.484375 288.214844 264.746094 289.738281 264.082031 C 291.257812 263.417969 292.808594 262.835938 294.390625 262.332031 C 295.96875 261.828125 297.574219 261.40625 299.195312 261.070312 C 300.820312 260.730469 302.457031 260.476562 304.109375 260.304688 C 305.757812 260.136719 307.414062 260.050781 309.074219 260.050781 C 310.730469 260.050781 312.386719 260.136719 314.035156 260.304688 C 315.6875 260.476562 317.324219 260.730469 318.949219 261.070312 C 320.570312 261.40625 322.175781 261.828125 323.753906 262.332031 C 325.335938 262.835938 326.886719 263.417969 328.40625 264.082031 C 329.929688 264.746094 331.410156 265.484375 332.855469 266.300781 C 334.300781 267.113281 335.699219 268.003906 337.054688 268.960938 C 338.40625 269.921875 339.707031 270.945312 340.957031 272.039062 C 342.203125 273.132812 343.390625 274.289062 344.523438 275.503906 C 345.652344 276.71875 346.714844 277.988281 347.714844 279.3125 C 348.710938 280.636719 349.640625 282.011719 350.496094 283.429688 C 351.355469 284.851562 352.136719 286.3125 352.84375 287.8125 C 353.550781 289.3125 354.179688 290.847656 354.730469 292.414062 C 355.277344 293.976562 355.746094 295.566406 356.132812 297.179688 C 356.519531 298.792969 356.820312 300.421875 357.039062 302.066406 C 357.257812 303.710938 357.390625 305.363281 357.4375 307.023438 C 357.488281 308.679688 357.449219 310.335938 357.328125 311.992188 C 357.207031 313.644531 357 315.289062 356.710938 316.921875 C 356.417969 318.554688 356.042969 320.171875 355.589844 321.765625 C 355.132812 323.359375 354.59375 324.925781 353.976562 326.46875 C 353.355469 328.007812 352.660156 329.511719 351.890625 330.976562 C 351.117188 332.445312 350.269531 333.871094 349.351562 335.25 C 348.429688 336.632812 347.441406 337.964844 346.386719 339.242188 C 345.332031 340.523438 344.210938 341.742188 343.03125 342.90625 C 341.847656 344.070312 340.609375 345.171875 339.316406 346.210938 Z M 339.316406 346.210938 "/></g></svg>