<svg xmlns="http://www.w3.org/2000/svg" xmlns:xlink="http://www.w3.org/1999/xlink" width="500" zoomAndPan="magnify" viewBox="0 0 375 374.999991" height="500" preserveAspectRatio="xMidYMid meet" version="1.2"><defs><clipPath id="d72869274c"><path d="M 133 304 L 263 304 L 263 347.621094 L 133 347.621094 Z M 133 304 "/></clipPath><clipPath id="3fb4d212dc"><path d="M 200 153 L 375 153 L 375 347.621094 L 200 347.621094 Z M 200 153 "/></clipPath><clipPath id="5a0bab92a1"><path d="M 0 199 L 159 199 L 159 347.621094 L 0 347.621094 Z M 0 199 "/></clipPath></defs><g id="b76ff5bfaa"><g clip-rule="nonzero" clip-path="url(#d72869274c)"><path style=" stroke:none;fill-rule:nonzero;fill:#000000;fill-opacity:1;" d="M 220.40625 304.558594 L 175.300781 304.558594 C 151.980469 304.558594 133.082031 323.449219 133.082031 346.746094 L 133.082031 347.449219 L 262.621094 347.449219 L 262.621094 346.746094 C 262.621094 323.449219 243.730469 304.558594 220.40625 304.558594 Z M 220.40625 304.558594 "/></g><path style=" stroke:none;fill-rule:nonzero;fill:#000000;fill-opacity:1;" d="M 238.765625 245.777344 C 238.765625 247.191406 238.695312 248.605469 238.558594 250.015625 C 238.417969 251.421875 238.210938 252.820312 237.933594 254.210938 C 237.65625 255.597656 237.3125 256.96875 236.902344 258.324219 C 236.492188 259.679688 236.015625 261.011719 235.472656 262.320312 C 234.929688 263.628906 234.324219 264.90625 233.65625 266.15625 C 232.992188 267.402344 232.261719 268.617188 231.476562 269.792969 C 230.6875 270.96875 229.847656 272.105469 228.945312 273.199219 C 228.046875 274.296875 227.097656 275.34375 226.097656 276.34375 C 225.09375 277.34375 224.046875 278.296875 222.953125 279.191406 C 221.855469 280.089844 220.71875 280.933594 219.542969 281.71875 C 218.363281 282.507812 217.148438 283.234375 215.902344 283.902344 C 214.652344 284.570312 213.371094 285.171875 212.0625 285.714844 C 210.753906 286.257812 209.421875 286.734375 208.066406 287.144531 C 206.710938 287.554688 205.339844 287.898438 203.949219 288.175781 C 202.558594 288.453125 201.160156 288.660156 199.75 288.796875 C 198.339844 288.9375 196.925781 289.003906 195.511719 289.003906 C 194.09375 289.003906 192.679688 288.9375 191.269531 288.796875 C 189.859375 288.660156 188.460938 288.453125 187.070312 288.175781 C 185.683594 287.898438 184.308594 287.554688 182.953125 287.144531 C 181.597656 286.734375 180.265625 286.257812 178.957031 285.714844 C 177.648438 285.171875 176.371094 284.570312 175.121094 283.902344 C 173.871094 283.234375 172.65625 282.507812 171.480469 281.71875 C 170.300781 280.933594 169.164062 280.089844 168.070312 279.191406 C 166.972656 278.292969 165.925781 277.34375 164.925781 276.34375 C 163.921875 275.34375 162.972656 274.296875 162.074219 273.199219 C 161.175781 272.105469 160.332031 270.96875 159.546875 269.792969 C 158.757812 268.617188 158.03125 267.402344 157.363281 266.15625 C 156.695312 264.90625 156.089844 263.628906 155.546875 262.320312 C 155.003906 261.011719 154.527344 259.679688 154.117188 258.324219 C 153.707031 256.96875 153.363281 255.597656 153.085938 254.210938 C 152.808594 252.820312 152.601562 251.421875 152.464844 250.015625 C 152.324219 248.605469 152.253906 247.191406 152.253906 245.777344 C 152.253906 244.359375 152.324219 242.949219 152.464844 241.539062 C 152.601562 240.128906 152.808594 238.730469 153.085938 237.34375 C 153.363281 235.953125 153.707031 234.582031 154.117188 233.226562 C 154.527344 231.875 155.003906 230.542969 155.546875 229.234375 C 156.089844 227.925781 156.695312 226.648438 157.363281 225.398438 C 158.03125 224.148438 158.757812 222.9375 159.546875 221.761719 C 160.332031 220.582031 161.175781 219.445312 162.074219 218.351562 C 162.972656 217.257812 163.921875 216.210938 164.925781 215.210938 C 165.925781 214.207031 166.972656 213.257812 168.070312 212.359375 C 169.164062 211.460938 170.300781 210.621094 171.480469 209.832031 C 172.65625 209.046875 173.871094 208.320312 175.121094 207.652344 C 176.371094 206.984375 177.648438 206.378906 178.957031 205.839844 C 180.265625 205.296875 181.597656 204.820312 182.953125 204.410156 C 184.308594 204 185.683594 203.65625 187.070312 203.378906 C 188.460938 203.101562 189.859375 202.894531 191.269531 202.757812 C 192.679688 202.617188 194.09375 202.546875 195.511719 202.546875 C 196.925781 202.546875 198.339844 202.617188 199.75 202.757812 C 201.160156 202.894531 202.558594 203.101562 203.949219 203.378906 C 205.339844 203.65625 206.710938 204 208.066406 204.410156 C 209.421875 204.820312 210.753906 205.296875 212.0625 205.839844 C 213.371094 206.378906 214.652344 206.984375 215.902344 207.652344 C 217.148438 208.320312 218.363281 209.046875 219.542969 209.832031 C 220.71875 210.621094 221.855469 211.460938 222.953125 212.359375 C 224.046875 213.257812 225.09375 214.207031 226.097656 215.210938 C 227.097656 216.210938 228.046875 217.257812 228.945312 218.351562 C 229.847656 219.445312 230.6875 220.582031 231.476562 221.761719 C 232.261719 222.9375 232.992188 224.148438 233.65625 225.398438 C 234.324219 226.648438 234.929688 227.925781 235.472656 229.234375 C 236.015625 230.542969 236.492188 231.875 236.902344 233.226562 C 237.3125 234.582031 237.65625 235.953125 237.933594 237.34375 C 238.210938 238.730469 238.417969 240.128906 238.558594 241.539062 C 238.695312 242.949219 238.765625 244.359375 238.765625 245.777344 Z M 238.765625 245.777344 "/><path style=" stroke:none;fill-rule:nonzero;fill:#000000;fill-opacity:1;" d="M 146.871094 126.078125 C 146.871094 128.046875 146.773438 130.007812 146.582031 131.96875 C 146.386719 133.925781 146.097656 135.871094 145.714844 137.800781 C 145.332031 139.730469 144.851562 141.636719 144.28125 143.519531 C 143.710938 145.402344 143.046875 147.253906 142.292969 149.070312 C 141.539062 150.890625 140.699219 152.667969 139.769531 154.402344 C 138.84375 156.136719 137.832031 157.824219 136.738281 159.460938 C 135.644531 161.09375 134.472656 162.675781 133.222656 164.195312 C 131.972656 165.714844 130.652344 167.171875 129.261719 168.5625 C 127.867188 169.957031 126.410156 171.273438 124.890625 172.523438 C 123.367188 173.773438 121.789062 174.941406 120.152344 176.035156 C 118.511719 177.128906 116.828125 178.140625 115.089844 179.066406 C 113.355469 179.996094 111.574219 180.835938 109.757812 181.589844 C 107.9375 182.339844 106.085938 183.003906 104.203125 183.574219 C 102.316406 184.144531 100.410156 184.625 98.480469 185.007812 C 96.546875 185.390625 94.601562 185.679688 92.644531 185.871094 C 90.683594 186.066406 88.71875 186.160156 86.75 186.160156 C 84.78125 186.160156 82.816406 186.066406 80.855469 185.871094 C 78.898438 185.679688 76.953125 185.390625 75.019531 185.007812 C 73.089844 184.625 71.183594 184.144531 69.296875 183.574219 C 67.414062 183.003906 65.5625 182.339844 63.742188 181.589844 C 61.925781 180.835938 60.144531 179.996094 58.410156 179.066406 C 56.671875 178.140625 54.988281 177.128906 53.347656 176.035156 C 51.710938 174.941406 50.132812 173.773438 48.609375 172.523438 C 47.089844 171.273438 45.632812 169.957031 44.238281 168.5625 C 42.847656 167.171875 41.527344 165.714844 40.277344 164.195312 C 39.027344 162.675781 37.855469 161.09375 36.761719 159.460938 C 35.667969 157.824219 34.65625 156.136719 33.730469 154.402344 C 32.800781 152.667969 31.960938 150.890625 31.207031 149.070312 C 30.453125 147.253906 29.789062 145.402344 29.21875 143.519531 C 28.648438 141.636719 28.167969 139.730469 27.785156 137.800781 C 27.402344 135.871094 27.113281 133.925781 26.917969 131.96875 C 26.726562 130.007812 26.628906 128.046875 26.628906 126.078125 C 26.628906 124.109375 26.726562 122.148438 26.917969 120.1875 C 27.113281 118.230469 27.402344 116.285156 27.785156 114.355469 C 28.167969 112.425781 28.648438 110.519531 29.21875 108.636719 C 29.789062 106.753906 30.453125 104.902344 31.207031 103.085938 C 31.960938 101.269531 32.800781 99.492188 33.730469 97.753906 C 34.65625 96.019531 35.667969 94.335938 36.761719 92.699219 C 37.855469 91.0625 39.027344 89.484375 40.277344 87.960938 C 41.527344 86.441406 42.847656 84.984375 44.238281 83.59375 C 45.632812 82.203125 47.089844 80.882812 48.609375 79.632812 C 50.132812 78.386719 51.710938 77.214844 53.347656 76.121094 C 54.988281 75.027344 56.671875 74.015625 58.410156 73.089844 C 60.144531 72.164062 61.925781 71.320312 63.742188 70.570312 C 65.5625 69.816406 67.414062 69.152344 69.296875 68.582031 C 71.183594 68.011719 73.089844 67.535156 75.019531 67.148438 C 76.953125 66.765625 78.898438 66.476562 80.855469 66.285156 C 82.816406 66.09375 84.78125 65.996094 86.75 65.996094 C 88.71875 65.996094 90.683594 66.09375 92.644531 66.285156 C 94.601562 66.476562 96.546875 66.765625 98.480469 67.148438 C 100.410156 67.535156 102.316406 68.011719 104.203125 68.582031 C 106.085938 69.152344 107.9375 69.816406 109.757812 70.570312 C 111.574219 71.320312 113.355469 72.164062 115.089844 73.089844 C 116.828125 74.015625 118.511719 75.027344 120.152344 76.121094 C 121.789062 77.214844 123.367188 78.386719 124.890625 79.632812 C 126.410156 80.882812 127.867188 82.203125 129.261719 83.59375 C 130.652344 84.984375 131.972656 86.441406 133.222656 87.960938 C 134.472656 89.484375 135.644531 91.0625 136.738281 92.699219 C 137.832031 94.335938 138.84375 96.019531 139.769531 97.753906 C 140.699219 99.492188 141.539062 101.269531 142.292969 103.085938 C 143.046875 104.902344 143.710938 106.753906 144.28125 108.636719 C 144.851562 110.519531 145.332031 112.425781 145.714844 114.355469 C 146.097656 116.285156 146.386719 118.230469 146.582031 120.191406 C 146.773438 122.148438 146.871094 124.109375 146.871094 126.078125 Z M 146.871094 126.078125 "/><path style=" stroke:none;fill-rule:nonzero;fill:#000000;fill-opacity:1;" d="M 341.855469 80.207031 C 341.855469 82.171875 341.757812 84.136719 341.566406 86.09375 C 341.371094 88.054688 341.082031 89.996094 340.699219 91.925781 C 340.316406 93.855469 339.835938 95.761719 339.265625 97.648438 C 338.695312 99.53125 338.03125 101.378906 337.277344 103.199219 C 336.523438 105.015625 335.683594 106.792969 334.753906 108.527344 C 333.828125 110.265625 332.816406 111.949219 331.722656 113.585938 C 330.628906 115.222656 329.457031 116.800781 328.207031 118.320312 C 326.957031 119.84375 325.636719 121.300781 324.246094 122.691406 C 322.851562 124.082031 321.394531 125.402344 319.875 126.652344 C 318.351562 127.898438 316.773438 129.070312 315.136719 130.164062 C 313.496094 131.257812 311.8125 132.265625 310.074219 133.195312 C 308.339844 134.121094 306.558594 134.960938 304.742188 135.714844 C 302.921875 136.46875 301.070312 137.128906 299.1875 137.703125 C 297.300781 138.273438 295.394531 138.75 293.464844 139.132812 C 291.53125 139.519531 289.585938 139.804688 287.628906 140 C 285.667969 140.191406 283.703125 140.289062 281.734375 140.289062 C 279.765625 140.289062 277.800781 140.191406 275.839844 140 C 273.882812 139.804688 271.9375 139.519531 270.003906 139.132812 C 268.074219 138.75 266.167969 138.273438 264.28125 137.703125 C 262.398438 137.128906 260.546875 136.46875 258.726562 135.714844 C 256.910156 134.960938 255.128906 134.121094 253.394531 133.195312 C 251.65625 132.265625 249.972656 131.257812 248.332031 130.164062 C 246.695312 129.070312 245.117188 127.898438 243.59375 126.652344 C 242.074219 125.402344 240.617188 124.082031 239.222656 122.691406 C 237.832031 121.300781 236.511719 119.84375 235.261719 118.320312 C 234.011719 116.800781 232.839844 115.222656 231.746094 113.585938 C 230.652344 111.949219 229.640625 110.265625 228.714844 108.527344 C 227.785156 106.792969 226.945312 105.015625 226.191406 103.199219 C 225.4375 101.378906 224.773438 99.53125 224.203125 97.648438 C 223.632812 95.761719 223.152344 93.855469 222.769531 91.925781 C 222.386719 89.996094 222.097656 88.054688 221.902344 86.09375 C 221.710938 84.136719 221.613281 82.171875 221.613281 80.207031 C 221.613281 78.238281 221.710938 76.273438 221.902344 74.316406 C 222.097656 72.359375 222.386719 70.414062 222.769531 68.484375 C 223.152344 66.554688 223.632812 64.648438 224.203125 62.765625 C 224.773438 60.882812 225.4375 59.03125 226.191406 57.210938 C 226.945312 55.394531 227.785156 53.617188 228.714844 51.882812 C 229.640625 50.148438 230.652344 48.460938 231.746094 46.824219 C 232.839844 45.1875 234.011719 43.609375 235.261719 42.089844 C 236.511719 40.566406 237.832031 39.113281 239.222656 37.71875 C 240.617188 36.328125 242.074219 35.007812 243.59375 33.761719 C 245.117188 32.511719 246.695312 31.339844 248.332031 30.25 C 249.972656 29.15625 251.65625 28.144531 253.394531 27.214844 C 255.128906 26.289062 256.910156 25.449219 258.726562 24.695312 C 260.546875 23.941406 262.398438 23.28125 264.28125 22.710938 C 266.167969 22.136719 268.074219 21.660156 270.003906 21.277344 C 271.9375 20.894531 273.882812 20.605469 275.839844 20.410156 C 277.800781 20.21875 279.765625 20.121094 281.734375 20.121094 C 283.703125 20.121094 285.667969 20.21875 287.628906 20.410156 C 289.585938 20.605469 291.53125 20.894531 293.464844 21.277344 C 295.394531 21.660156 297.300781 22.136719 299.1875 22.710938 C 301.070312 23.28125 302.921875 23.941406 304.742188 24.695312 C 306.558594 25.449219 308.339844 26.289062 310.074219 27.214844 C 311.8125 28.144531 313.496094 29.15625 315.136719 30.25 C 316.773438 31.339844 318.351562 32.511719 319.875 33.761719 C 321.394531 35.007812 322.851562 36.328125 324.246094 37.71875 C 325.636719 39.113281 326.957031 40.566406 328.207031 42.089844 C 329.457031 43.609375 330.628906 45.1875 331.722656 46.824219 C 332.816406 48.460938 333.828125 50.148438 334.753906 51.882812 C 335.683594 53.617188 336.523438 55.394531 337.277344 57.210938 C 338.03125 59.03125 338.695312 60.882812 339.265625 62.765625 C 339.835938 64.648438 340.316406 66.554688 340.699219 68.484375 C 341.082031 70.414062 341.371094 72.359375 341.566406 74.316406 C 341.757812 76.273438 341.855469 78.238281 341.855469 80.207031 Z M 341.855469 80.207031 "/><g clip-rule="nonzero" clip-path="url(#3fb4d212dc)"><path style=" stroke:none;fill-rule:nonzero;fill:#000000;fill-opacity:1;" d="M 316.328125 153.171875 L 253.644531 153.171875 C 230.058594 153.171875 209.777344 167.117188 200.457031 187.175781 C 230.609375 189.703125 254.386719 214.992188 254.386719 245.777344 C 254.386719 263.6875 246.3125 279.726562 233.644531 290.53125 C 259.167969 296.539062 278.246094 319.433594 278.246094 346.75 L 278.246094 347.449219 L 375 347.449219 L 375 211.808594 C 375 179.429688 348.734375 153.171875 316.328125 153.171875 Z M 316.328125 153.171875 "/></g><g clip-rule="nonzero" clip-path="url(#5a0bab92a1)"><path style=" stroke:none;fill-rule:nonzero;fill:#000000;fill-opacity:1;" d="M 158.457031 291.457031 C 145.15625 280.65625 136.628906 264.203125 136.628906 245.777344 C 136.628906 231.023438 142.128906 217.558594 151.128906 207.222656 C 142.394531 202.0625 132.238281 199.050781 121.355469 199.050781 L 58.660156 199.050781 C 26.261719 199.042969 0 225.292969 0 257.679688 L 0 347.449219 L 117.457031 347.449219 L 117.457031 346.746094 C 117.457031 320.726562 134.753906 298.683594 158.457031 291.457031 Z M 158.457031 291.457031 "/></g></g></svg>