<svg xmlns="http://www.w3.org/2000/svg" xmlns:xlink="http://www.w3.org/1999/xlink" width="500" zoomAndPan="magnify" viewBox="0 0 375 374.999991" height="500" preserveAspectRatio="xMidYMid meet" version="1.2"><g id="e0bf835259"><path style=" stroke:none;fill-rule:nonzero;fill:#000000;fill-opacity:1;" d="M 337.023438 255.683594 C 337.023438 255.683594 249.699219 226.078125 247.007812 225.777344 C 246.710938 226.972656 246.410156 228.167969 246.113281 229.066406 C 241.925781 244.917969 237.738281 260.765625 232.953125 276.316406 C 227.273438 294.855469 220.695312 313.097656 214.414062 331.339844 C 214.414062 331.640625 214.414062 331.640625 214.113281 331.9375 C 213.515625 334.03125 212.320312 335.824219 211.421875 337.917969 C 210.226562 329.546875 208.730469 318.480469 207.238281 307.714844 C 205.742188 295.753906 204.246094 284.089844 203.347656 276.316406 C 203.347656 275.417969 202.453125 274.820312 201.554688 274.820312 L 173.144531 274.820312 C 172.25 274.820312 171.652344 275.417969 171.351562 276.316406 C 170.453125 284.089844 168.960938 295.753906 167.464844 307.714844 C 165.96875 318.480469 164.472656 329.546875 163.277344 337.917969 C 162.378906 335.824219 161.183594 334.03125 160.585938 331.9375 C 160.585938 331.640625 160.285156 331.640625 160.285156 331.339844 C 154.007812 313.097656 147.429688 294.855469 141.746094 276.316406 C 136.960938 260.765625 132.773438 244.917969 128.589844 229.066406 C 128.289062 227.871094 127.992188 226.972656 127.691406 225.777344 C 125.300781 226.078125 37.679688 255.683594 37.679688 255.683594 C 0 268.242188 2.09375 293.660156 2.09375 293.660156 L 2.09375 343.898438 C 5.683594 374.699219 29.304688 374.101562 29.304688 374.101562 L 345.695312 374.101562 C 345.695312 374.101562 369.316406 374.699219 372.90625 343.898438 L 372.90625 293.660156 C 372.90625 293.660156 375 268.242188 337.023438 255.683594 Z M 337.023438 255.683594 "/><path style=" stroke:none;fill-rule:nonzero;fill:#000000;fill-opacity:1;" d="M 211.722656 246.113281 L 207.835938 238.636719 C 206.9375 237.140625 205.441406 235.945312 203.648438 235.945312 L 171.351562 235.945312 C 169.558594 235.945312 168.0625 236.84375 167.164062 238.636719 L 163.277344 246.113281 C 162.679688 247.308594 162.679688 249.101562 163.277344 250.300781 L 170.753906 265.847656 C 170.753906 266.148438 171.351562 266.449219 171.652344 266.449219 L 203.648438 266.449219 C 203.949219 266.449219 204.246094 266.148438 204.546875 265.847656 L 212.023438 250.300781 C 212.621094 249.101562 212.621094 247.308594 211.722656 246.113281 Z M 211.722656 246.113281 "/><path style=" stroke:none;fill-rule:nonzero;fill:#000000;fill-opacity:1;" d="M 270.035156 108.253906 C 270.035156 108.253906 270.035156 107.953125 270.035156 107.953125 C 270.335938 101.078125 266.449219 93.003906 259.269531 90.910156 C 259.269531 90.609375 259.269531 90.609375 259.269531 90.3125 C 259.269531 89.414062 259.570312 88.515625 259.570312 87.621094 C 259.867188 85.226562 260.167969 82.835938 260.464844 80.742188 C 262.261719 73.863281 263.15625 66.984375 263.457031 60.40625 C 264.652344 37.679688 252.992188 18.839844 232.65625 9.867188 C 230.5625 8.972656 228.167969 8.074219 226.078125 7.175781 C 214.113281 2.691406 200.957031 0.300781 187.800781 0.300781 C 185.109375 0.300781 182.117188 0.300781 179.425781 0.597656 C 171.351562 1.195312 160.585938 1.792969 151.015625 6.28125 C 150.121094 6.878906 148.921875 7.476562 148.027344 8.074219 C 144.4375 10.464844 141.148438 13.457031 138.757812 17.34375 C 138.15625 17.941406 137.859375 18.539062 137.558594 19.140625 C 136.363281 20.933594 136.066406 21.53125 134.867188 22.726562 C 132.476562 24.523438 130.683594 25.71875 128.886719 26.613281 C 124.699219 28.410156 121.410156 31.398438 119.617188 34.988281 C 116.625 40.371094 115.132812 46.652344 114.832031 54.726562 C 114.535156 62.800781 114.832031 70.574219 115.429688 76.554688 C 115.730469 79.546875 116.328125 82.238281 116.625 84.929688 L 116.625 85.527344 C 116.925781 87.320312 117.523438 89.414062 117.523438 90.910156 C 117.226562 90.910156 117.226562 90.910156 116.925781 90.910156 C 109.152344 92.703125 104.964844 101.078125 105.5625 108.253906 L 105.5625 108.550781 C 105.5625 110.644531 105.5625 112.738281 105.5625 114.234375 C 105.859375 116.925781 106.160156 119.316406 106.460938 121.710938 C 106.757812 122.90625 106.757812 124.101562 107.058594 125.300781 C 108.550781 136.664062 113.933594 145.335938 122.609375 149.820312 C 122.90625 150.121094 122.90625 150.121094 122.90625 150.71875 C 127.992188 171.050781 138.457031 186.601562 154.007812 197.070312 C 156.101562 198.265625 158.195312 199.761719 160.285156 200.957031 L 160.585938 200.957031 C 163.578125 202.453125 167.164062 203.949219 170.753906 205.144531 C 171.050781 205.144531 171.050781 205.144531 171.351562 205.441406 C 174.34375 206.640625 177.332031 207.535156 180.324219 208.132812 C 183.015625 208.730469 186.003906 208.730469 188.695312 208.730469 L 189.59375 208.730469 C 192.285156 208.730469 194.675781 208.433594 197.367188 208.132812 C 200.359375 207.535156 203.050781 206.640625 206.039062 205.441406 L 206.640625 205.144531 C 210.527344 203.648438 214.113281 202.453125 217.105469 200.65625 L 217.40625 200.65625 C 219.496094 199.460938 221.589844 198.265625 223.683594 196.769531 C 232.058594 191.089844 239.234375 183.613281 244.316406 174.941406 C 246.710938 171.050781 248.804688 166.566406 250.898438 161.484375 C 251.792969 159.390625 252.09375 157.597656 252.691406 155.800781 C 253.289062 153.707031 253.589844 151.914062 254.484375 150.71875 C 255.683594 149.523438 257.175781 148.027344 258.671875 146.832031 C 259.570312 145.933594 260.464844 145.335938 261.363281 144.4375 C 267.941406 138.15625 269.738281 130.683594 270.335938 125 C 270.632812 123.804688 270.632812 122.609375 270.933594 121.410156 C 271.230469 119.019531 271.832031 116.625 271.832031 113.933594 C 270.035156 112.441406 270.335938 110.347656 270.035156 108.253906 Z M 270.035156 108.253906 "/></g></svg>