<svg xmlns="http://www.w3.org/2000/svg" xmlns:xlink="http://www.w3.org/1999/xlink" width="500" zoomAndPan="magnify" viewBox="0 0 375 374.999991" height="500" preserveAspectRatio="xMidYMid meet" version="1.2"><g id="87d954d1ea"><path style=" stroke:none;fill-rule:nonzero;fill:#000000;fill-opacity:1;" d="M 47.195312 310.09375 L 47.195312 332.460938 C 47.195312 335.410156 46.578125 338.214844 45.472656 340.761719 C 48.449219 338.757812 51.25 336.519531 53.625 334.144531 L 64.257812 323.515625 L 60.503906 296.792969 Z M 47.195312 310.09375 "/><path style=" stroke:none;fill-rule:nonzero;fill:#000000;fill-opacity:1;" d="M 166.699219 221.132812 L 173.339844 222.820312 L 103.867188 303.59375 L 107.5625 329.894531 C 107.796875 331.539062 107.804688 333.160156 107.660156 334.75 C 108.46875 333.953125 109.242188 333.152344 109.9375 332.339844 L 215.875 209.167969 L 238.808594 190.109375 L 246.660156 194.664062 C 246.808594 194.75 246.972656 194.828125 247.148438 194.898438 C 249.171875 195.691406 252.710938 195.195312 256.824219 193.515625 C 261.292969 191.6875 265.875 188.691406 269.109375 185.484375 C 314.933594 140.039062 314.507812 128.457031 309.488281 125.710938 C 309.113281 125.253906 308.546875 124.910156 307.765625 124.710938 L 300.734375 122.929688 C 302.917969 121.824219 305.128906 120.457031 307.1875 118.875 C 310.296875 116.484375 312.5 114.039062 313.640625 111.933594 C 325.59375 108.722656 340.035156 101.21875 351.816406 91.425781 C 369.875 76.414062 374.808594 61.78125 362.828125 58.742188 C 350.847656 55.703125 326.496094 65.410156 308.433594 80.421875 C 294.824219 91.734375 288.675781 102.828125 291.59375 108.910156 C 286.414062 110.613281 280.425781 112.996094 273.625 116.050781 L 270.75 115.324219 C 269.40625 114.316406 266.769531 114.214844 263.164062 115.269531 C 228.484375 125.390625 185.097656 164.441406 180.265625 168.863281 C 180.1875 168.929688 180.121094 169 180.046875 169.070312 C 179.839844 169.261719 179.636719 169.457031 179.441406 169.652344 C 179.292969 169.796875 179.144531 169.945312 179.003906 170.089844 C 178.847656 170.253906 178.695312 170.414062 178.546875 170.574219 C 178.386719 170.75 178.230469 170.925781 178.082031 171.097656 C 177.96875 171.226562 177.863281 171.355469 177.753906 171.484375 C 177.597656 171.679688 177.441406 171.867188 177.300781 172.058594 C 177.210938 172.171875 177.132812 172.285156 177.050781 172.394531 C 176.910156 172.589844 176.773438 172.78125 176.648438 172.972656 C 176.574219 173.085938 176.507812 173.195312 176.4375 173.308594 C 176.328125 173.488281 176.222656 173.664062 176.125 173.839844 C 176.058594 173.964844 176 174.085938 175.9375 174.207031 C 175.859375 174.359375 175.785156 174.515625 175.722656 174.664062 C 175.664062 174.800781 175.617188 174.929688 175.566406 175.0625 C 175.519531 175.195312 175.472656 175.324219 175.4375 175.453125 C 175.394531 175.589844 175.367188 175.71875 175.335938 175.851562 C 175.3125 175.96875 175.289062 176.089844 175.269531 176.203125 C 175.253906 176.324219 175.246094 176.445312 175.242188 176.5625 C 175.234375 176.679688 175.230469 176.800781 175.238281 176.914062 C 175.242188 177.011719 175.253906 177.105469 175.269531 177.199219 C 175.285156 177.328125 175.3125 177.453125 175.347656 177.570312 C 175.367188 177.640625 175.394531 177.710938 175.417969 177.78125 C 175.472656 177.910156 175.535156 178.035156 175.605469 178.152344 C 175.625 178.183594 175.632812 178.214844 175.652344 178.242188 C 175.664062 178.261719 175.683594 178.269531 175.695312 178.289062 C 175.992188 178.699219 176.425781 179.03125 177.007812 179.257812 C 177.078125 179.285156 177.152344 179.304688 177.226562 179.328125 C 177.441406 179.402344 177.675781 179.460938 177.925781 179.507812 C 178.027344 179.523438 178.132812 179.542969 178.238281 179.558594 C 178.308594 179.566406 178.367188 179.585938 178.4375 179.59375 C 178.71875 179.621094 179.015625 179.636719 179.320312 179.636719 C 179.714844 179.636719 180.136719 179.605469 180.566406 179.558594 C 180.628906 179.550781 180.691406 179.542969 180.753906 179.535156 C 181.160156 179.484375 181.578125 179.417969 182.011719 179.332031 C 182.058594 179.320312 182.105469 179.3125 182.15625 179.304688 C 182.910156 179.144531 183.695312 178.9375 184.503906 178.675781 L 152.433594 205.328125 C 151.875 205.792969 151.371094 206.25 150.886719 206.710938 C 149.859375 207.582031 148.875 208.472656 147.957031 209.386719 L 97.691406 259.625 L 101.445312 286.351562 Z M 271.589844 133.53125 C 281.878906 134.792969 278.472656 140.667969 272.605469 145.246094 C 266.234375 150.21875 259.792969 153.265625 249.933594 155.96875 C 241.828125 158.195312 239.652344 159.003906 234.214844 163.25 L 230.136719 166.433594 L 222.191406 165.457031 L 227.78125 160.617188 C 234.3125 154.96875 239.046875 153.328125 247.324219 150.964844 C 253.296875 149.242188 256.851562 148.453125 261.269531 145.003906 C 264.667969 142.351562 264.390625 140.859375 261.441406 140.496094 C 260.152344 140.335938 258.945312 140.1875 257.617188 140.332031 C 256.769531 140.382812 255.710938 140.867188 254.519531 141.792969 L 249.59375 145.640625 L 242.023438 144.097656 L 254.34375 134.480469 C 259.0625 133.601562 266.371094 132.886719 271.589844 133.53125 Z M 221.566406 174.898438 C 218.421875 177.351562 213.40625 179.421875 209.851562 178.984375 C 206.144531 178.527344 206.820312 176.15625 210.21875 173.503906 C 213.53125 170.917969 218.519531 169.074219 221.851562 169.484375 C 225.480469 169.929688 225.050781 172.179688 221.566406 174.898438 Z M 221.566406 174.898438 "/><path style=" stroke:none;fill-rule:nonzero;fill:#000000;fill-opacity:1;" d="M 74.929688 104.824219 C 73.621094 104.824219 72.320312 104.644531 71.054688 104.28125 C 68.769531 104.355469 59.878906 108.460938 44.976562 126.578125 C 44.21875 127.503906 43.464844 128.433594 42.726562 129.363281 L 91.269531 147.183594 C 90.683594 141.109375 89.839844 136.554688 88.964844 133.164062 L 92.261719 133.457031 C 93.324219 137.859375 94.277344 143.808594 94.792969 151.824219 L 25.027344 126.210938 C 19.328125 124.125 13.078125 127.035156 10.996094 132.703125 C 8.914062 138.367188 11.820312 144.644531 17.488281 146.726562 L 102.355469 177.882812 C 102.617188 177.980469 102.886719 178.066406 103.15625 178.144531 C 106.28125 179.027344 109.652344 178.476562 112.347656 176.613281 C 115.273438 174.589844 117.03125 171.269531 117.058594 167.710938 C 117.160156 154.554688 116.320312 143.980469 114.878906 135.449219 C 110.808594 111.355469 101.90625 103.742188 95.546875 101.484375 C 94.621094 100.972656 93.601562 100.585938 92.507812 100.363281 L 86.234375 99.09375 C 83.625 102.601562 79.449219 104.824219 74.929688 104.824219 Z M 74.929688 104.824219 "/><path style=" stroke:none;fill-rule:nonzero;fill:#000000;fill-opacity:1;" d="M 9.574219 191.234375 C 9.40625 192.199219 9.300781 193.1875 9.300781 194.203125 L 9.300781 332.460938 C 9.300781 341.789062 16.867188 349.347656 26.195312 349.347656 C 35.527344 349.347656 43.09375 341.789062 43.09375 332.460938 L 43.09375 207.222656 L 47.195312 208.050781 L 48.058594 208.226562 L 52.320312 209.085938 L 70.035156 335.160156 C 71.332031 344.398438 79.878906 350.832031 89.117188 349.535156 C 98.359375 348.238281 104.800781 339.703125 103.503906 330.464844 L 84.324219 193.960938 L 86.769531 181.894531 L 87.972656 175.953125 L 25.863281 153.148438 C 24.15625 155.816406 23.175781 157.449219 23.148438 157.5 C 21.3125 160.570312 18.367188 162.777344 15.011719 163.773438 L 11.964844 178.820312 L 9.757812 189.703125 C 9.65625 190.21875 9.601562 190.726562 9.574219 191.234375 Z M 9.574219 191.234375 "/><path style=" stroke:none;fill-rule:nonzero;fill:#000000;fill-opacity:1;" d="M 78.96875 77.277344 C 82.566406 78.359375 85.535156 80.773438 87.316406 84.082031 C 87.476562 84.382812 87.613281 84.691406 87.753906 84.996094 C 96.050781 80.945312 102.441406 73.222656 104.414062 63.476562 C 107.785156 46.839844 97.027344 30.625 80.378906 27.253906 C 63.734375 23.886719 47.507812 34.640625 44.136719 51.277344 C 41.84375 62.601562 46.101562 73.726562 54.300781 80.742188 C 60.136719 77.652344 65.714844 76.121094 71.074219 76.121094 C 73.753906 76.121094 76.410156 76.511719 78.96875 77.277344 Z M 88.773438 55.027344 C 91.351562 55.027344 93.4375 57.117188 93.4375 59.691406 C 93.4375 62.265625 91.351562 64.351562 88.773438 64.351562 C 86.199219 64.351562 84.109375 62.265625 84.109375 59.691406 C 84.109375 57.117188 86.199219 55.027344 88.773438 55.027344 Z M 65.292969 53.835938 C 65.292969 51.261719 67.378906 49.171875 69.957031 49.171875 C 72.53125 49.171875 74.621094 51.261719 74.621094 53.835938 C 74.621094 56.410156 72.53125 58.496094 69.957031 58.496094 C 67.378906 58.496094 65.292969 56.410156 65.292969 53.835938 Z M 65.292969 53.835938 "/><path style=" stroke:none;fill-rule:nonzero;fill:#000000;fill-opacity:1;" d="M 11.039062 161.226562 C 14.765625 161.226562 18.394531 159.324219 20.441406 155.898438 C 20.472656 155.847656 21.332031 154.414062 22.839844 152.039062 L 16.402344 149.675781 C 12.875 148.378906 10.0625 145.789062 8.480469 142.378906 C 6.902344 138.964844 6.746094 135.144531 8.042969 131.621094 C 10.5625 124.761719 18.042969 120.945312 25.070312 122.925781 C 25.417969 123.023438 25.765625 123.136719 26.113281 123.265625 L 39.625 128.222656 C 40.582031 127.007812 41.554688 125.792969 42.550781 124.582031 C 59.941406 103.441406 69.539062 100.566406 71.78125 101.21875 C 77.566406 102.957031 83.660156 99.675781 85.394531 93.894531 C 87.128906 88.113281 83.847656 82.019531 78.0625 80.289062 C 63.386719 75.882812 46.394531 85.664062 26.121094 110.148438 C 24.320312 109.394531 23.074219 108.898438 23.074219 108.898438 C 29.382812 101.210938 35.394531 94.933594 41.15625 89.972656 L 41.082031 89.957031 C 38.472656 88.84375 35.4375 88.730469 32.609375 89.898438 C 5.398438 101.113281 0.617188 144.390625 0.164062 149.289062 C 0.15625 149.375 0.160156 149.457031 0.152344 149.539062 C 0.140625 149.742188 0.128906 149.945312 0.125 150.144531 C 0.125 150.324219 0.125 150.496094 0.132812 150.671875 C 0.136719 150.839844 0.148438 151.003906 0.160156 151.167969 C 0.175781 151.375 0.199219 151.578125 0.226562 151.78125 C 0.242188 151.914062 0.265625 152.046875 0.289062 152.179688 C 0.328125 152.402344 0.371094 152.625 0.425781 152.84375 C 0.453125 152.960938 0.484375 153.074219 0.515625 153.191406 C 0.578125 153.414062 0.644531 153.636719 0.71875 153.855469 C 0.757812 153.972656 0.804688 154.085938 0.847656 154.203125 C 0.925781 154.410156 1.007812 154.613281 1.097656 154.8125 C 1.160156 154.945312 1.226562 155.074219 1.289062 155.203125 C 1.378906 155.378906 1.46875 155.554688 1.566406 155.726562 C 1.652344 155.871094 1.742188 156.015625 1.832031 156.15625 C 1.925781 156.304688 2.019531 156.453125 2.121094 156.597656 C 2.226562 156.746094 2.339844 156.890625 2.453125 157.035156 C 2.554688 157.167969 2.660156 157.296875 2.769531 157.425781 C 2.886719 157.5625 3.011719 157.695312 3.140625 157.828125 C 3.261719 157.957031 3.386719 158.085938 3.515625 158.207031 C 3.632812 158.320312 3.757812 158.429688 3.882812 158.539062 C 4.039062 158.675781 4.199219 158.804688 4.359375 158.933594 C 4.46875 159.015625 4.582031 159.101562 4.695312 159.183594 C 4.890625 159.320312 5.085938 159.449219 5.289062 159.578125 C 5.34375 159.613281 5.394531 159.652344 5.453125 159.6875 C 5.488281 159.707031 5.53125 159.722656 5.566406 159.742188 C 5.652344 159.792969 5.734375 159.847656 5.820312 159.894531 C 5.824219 159.890625 5.828125 159.886719 5.835938 159.878906 C 7.488281 160.777344 9.269531 161.226562 11.039062 161.226562 Z M 11.039062 161.226562 "/></g></svg>