<svg xmlns="http://www.w3.org/2000/svg" xmlns:xlink="http://www.w3.org/1999/xlink" width="500" zoomAndPan="magnify" viewBox="0 0 375 374.999991" height="500" preserveAspectRatio="xMidYMid meet" version="1.2"><defs><clipPath id="3f922c56a0"><path d="M 1 23 L 374 23 L 374 352.5 L 1 352.5 Z M 1 23 "/></clipPath></defs><g id="07716dcc4c"><g clip-rule="nonzero" clip-path="url(#3f922c56a0)"><path style=" stroke:none;fill-rule:evenodd;fill:#000000;fill-opacity:1;" d="M 361.792969 97.089844 L 339.097656 102.238281 C 338.757812 102.316406 338.417969 102.167969 338.25 101.859375 C 335.503906 96.941406 336.382812 92.40625 330.800781 94.121094 C 324.566406 96.03125 322.980469 101.273438 320.726562 106.71875 C 320.632812 106.949219 320.453125 107.109375 320.210938 107.171875 L 281.96875 117.367188 C 273.972656 119.5 266.785156 116.980469 259.703125 112.699219 C 208.382812 81.664062 166.710938 81.914062 115.386719 112.699219 C 108.292969 116.953125 101.117188 119.5 93.121094 117.367188 L 54.878906 107.171875 C 54.636719 107.109375 54.457031 106.949219 54.363281 106.71875 C 52.109375 101.273438 50.523438 96.03125 44.289062 94.121094 C 38.710938 92.40625 41.488281 96.933594 38.875 101.855469 C 38.710938 102.164062 38.375 102.320312 38.03125 102.25 L 13.296875 97.089844 C 7.941406 95.976562 2.773438 99.734375 1.617188 105.078125 L 1.5 105.621094 C 0.363281 110.886719 3.449219 116.109375 8.609375 117.652344 L 99.0625 144.691406 C 103.429688 146 107.46875 146.132812 111.914062 145.117188 L 150.496094 136.316406 C 150.746094 136.257812 150.984375 136.320312 151.175781 136.484375 C 151.371094 136.652344 151.460938 136.882812 151.441406 137.136719 L 144.703125 217.070312 C 144.683594 217.292969 144.75 217.488281 144.898438 217.652344 C 145.046875 217.820312 145.234375 217.90625 145.457031 217.910156 C 169.410156 218.527344 182.765625 246.019531 168.6875 265.21875 C 168.554688 265.402344 168.507812 265.613281 168.554688 265.835938 C 168.601562 266.0625 168.730469 266.234375 168.925781 266.347656 C 176.363281 270.628906 182.578125 276.832031 186.871094 284.253906 C 187.011719 284.5 187.257812 284.640625 187.542969 284.640625 C 187.828125 284.640625 188.070312 284.5 188.214844 284.253906 C 192.453125 276.925781 198.570312 270.78125 205.886719 266.507812 C 206.082031 266.390625 206.210938 266.214844 206.253906 265.992188 C 206.300781 265.769531 206.253906 265.558594 206.117188 265.375 C 191.789062 246.09375 205.335938 218.234375 229.617188 217.902344 C 229.839844 217.902344 230.035156 217.816406 230.183594 217.648438 C 230.335938 217.484375 230.402344 217.285156 230.382812 217.0625 L 223.644531 137.136719 C 223.625 136.882812 223.714844 136.65625 223.910156 136.488281 C 224.101562 136.320312 224.339844 136.257812 224.589844 136.316406 L 263.171875 145.117188 C 267.617188 146.132812 271.65625 146 276.023438 144.691406 L 366.476562 117.652344 C 371.636719 116.109375 374.722656 110.886719 373.585938 105.625 L 373.46875 105.082031 C 372.316406 99.730469 367.128906 95.882812 361.792969 97.089844 Z M 96.300781 308.441406 L 96.300781 351.726562 C 96.300781 352.15625 95.953125 352.503906 95.527344 352.503906 L 28.859375 352.503906 C 25.378906 352.503906 22.523438 349.648438 22.523438 346.167969 L 22.523438 308.4375 C 22.523438 288.160156 39.132812 271.550781 59.414062 271.550781 C 79.6875 271.550781 96.300781 288.164062 96.300781 308.441406 Z M 181.722656 308.441406 L 181.722656 351.726562 C 181.722656 352.15625 181.375 352.503906 180.945312 352.503906 L 114.28125 352.503906 C 110.796875 352.503906 107.945312 349.648438 107.945312 346.167969 L 107.945312 308.4375 C 107.945312 288.160156 124.554688 271.550781 144.832031 271.550781 C 165.109375 271.550781 181.722656 288.164062 181.722656 308.441406 Z M 157.453125 260.488281 C 150.367188 267.574219 138.890625 267.5625 131.816406 260.488281 C 120.644531 249.320312 128.203125 230.144531 143.949219 229.554688 C 160.390625 228.941406 169.0625 248.882812 157.453125 260.488281 Z M 302.660156 260.488281 C 295.582031 253.410156 295.582031 241.929688 302.660156 234.851562 C 314.046875 223.464844 333.605469 231.566406 333.605469 247.671875 C 333.605469 263.777344 314.046875 271.878906 302.660156 260.488281 Z M 289.628906 282.390625 C 296.316406 275.703125 305.539062 271.550781 315.675781 271.550781 C 335.953125 271.550781 352.566406 288.164062 352.566406 308.441406 L 352.566406 346.167969 C 352.566406 349.652344 349.710938 352.503906 346.226562 352.503906 L 279.5625 352.503906 C 279.132812 352.503906 278.785156 352.15625 278.785156 351.730469 L 278.785156 308.441406 C 278.785156 298.300781 282.9375 289.082031 289.628906 282.390625 Z M 217.238281 260.488281 C 210.160156 253.410156 210.160156 241.929688 217.238281 234.851562 C 228.605469 223.484375 248.1875 231.539062 248.1875 247.667969 C 248.1875 263.78125 228.632812 271.882812 217.238281 260.488281 Z M 204.207031 282.390625 C 210.894531 275.703125 220.117188 271.550781 230.253906 271.550781 C 250.449219 271.550781 267.144531 288.078125 267.144531 308.441406 L 267.144531 351.726562 C 267.144531 352.15625 266.792969 352.503906 266.367188 352.503906 L 194.140625 352.503906 C 193.714844 352.503906 193.363281 352.15625 193.363281 351.726562 L 193.363281 308.441406 C 193.367188 298.300781 197.515625 289.082031 204.207031 282.390625 Z M 59.214844 265.796875 C 49.199219 265.796875 41.085938 257.683594 41.085938 247.671875 C 41.085938 231.566406 60.644531 223.464844 72.035156 234.851562 C 83.421875 246.238281 75.320312 265.796875 59.214844 265.796875 Z M 132.378906 47.085938 C 135.59375 47.085938 138.199219 49.691406 138.199219 52.90625 C 138.199219 56.121094 135.59375 58.726562 132.378906 58.726562 L 119.136719 58.726562 C 115.921875 58.726562 113.316406 56.121094 113.316406 52.90625 C 113.316406 49.691406 115.921875 47.085938 119.136719 47.085938 Z M 236.609375 78.113281 C 233.566406 77.09375 231.929688 73.804688 232.945312 70.765625 C 233.964844 67.726562 237.253906 66.089844 240.292969 67.105469 L 252.847656 71.304688 C 255.886719 72.324219 257.527344 75.613281 256.507812 78.652344 C 255.492188 81.691406 252.203125 83.328125 249.164062 82.3125 Z M 240.292969 38.707031 C 237.25 39.722656 233.964844 38.082031 232.945312 35.042969 C 231.929688 32.003906 233.566406 28.714844 236.605469 27.699219 L 249.164062 23.5 C 252.203125 22.480469 255.492188 24.121094 256.507812 27.160156 C 257.523438 30.199219 255.886719 33.488281 252.847656 34.503906 Z M 242.710938 58.726562 C 239.496094 58.726562 236.886719 56.121094 236.886719 52.90625 C 236.886719 49.691406 239.496094 47.085938 242.710938 47.085938 L 255.949219 47.085938 C 259.164062 47.085938 261.773438 49.691406 261.773438 52.90625 C 261.773438 56.121094 259.164062 58.726562 255.949219 58.726562 Z M 134.796875 67.105469 C 137.835938 66.089844 141.125 67.726562 142.140625 70.765625 C 143.160156 73.804688 141.519531 77.09375 138.480469 78.113281 L 125.925781 82.3125 C 122.886719 83.328125 119.597656 81.691406 118.578125 78.652344 C 117.5625 75.613281 119.203125 72.324219 122.242188 71.304688 Z M 138.480469 27.699219 C 141.519531 28.714844 143.15625 32.003906 142.140625 35.042969 C 141.125 38.082031 137.835938 39.722656 134.796875 38.707031 L 122.238281 34.503906 C 119.199219 33.488281 117.5625 30.199219 118.578125 27.160156 C 119.597656 24.121094 122.886719 22.480469 125.925781 23.5 Z M 187.542969 27.609375 C 202.941406 27.609375 215.425781 40.09375 215.425781 55.492188 C 215.425781 70.890625 202.941406 83.375 187.542969 83.375 C 172.144531 83.375 159.660156 70.890625 159.660156 55.492188 C 159.660156 40.09375 172.144531 27.609375 187.542969 27.609375 Z M 187.542969 27.609375 "/></g></g></svg>